<?xml version="1.0" encoding="UTF-8"?>
<svg xmlns="http://www.w3.org/2000/svg" xmlns:xlink="http://www.w3.org/1999/xlink" width="375pt" height="449.999984pt" viewBox="0 0 375 449.999984" version="1.2">
<defs>
<clipPath id="clip1">
  <path d="M 203 306.347656 L 212.730469 306.347656 L 212.730469 317 L 203 317 Z M 203 306.347656 "/>
</clipPath>
<clipPath id="clip2">
  <path d="M 107.542969 353.445312 L 117.355469 353.445312 L 117.355469 363.738281 L 107.542969 363.738281 Z M 107.542969 353.445312 "/>
</clipPath>
<clipPath id="clip3">
  <path d="M 84 86.25 L 94 86.25 L 94 97 L 84 97 Z M 84 86.25 "/>
</clipPath>
<clipPath id="clip4">
  <path d="M 121 19 L 359 19 L 359 264 L 121 264 Z M 121 19 "/>
</clipPath>
<clipPath id="clip5">
  <path d="M 327.8125 273.121094 L 74.988281 108.859375 L 169.375 -36.421875 L 422.199219 127.839844 Z M 327.8125 273.121094 "/>
</clipPath>
<clipPath id="clip6">
  <path d="M 327.8125 273.121094 L 74.988281 108.859375 L 169.375 -36.421875 L 422.199219 127.839844 Z M 327.8125 273.121094 "/>
</clipPath>
<clipPath id="clip7">
  <path d="M 327.910156 272.96875 L 74.488281 108.324219 L 168.902344 -37 L 422.324219 127.648438 Z M 327.910156 272.96875 "/>
</clipPath>
<clipPath id="clip8">
  <path d="M 327.910156 272.96875 L 75.058594 108.695312 L 169.269531 -36.3125 L 422.121094 127.964844 Z M 327.910156 272.96875 "/>
</clipPath>
<clipPath id="clip9">
  <path d="M 152 39 L 348 39 L 348 240 L 152 240 Z M 152 39 "/>
</clipPath>
<clipPath id="clip10">
  <path d="M 327.8125 273.121094 L 74.988281 108.859375 L 169.375 -36.421875 L 422.199219 127.839844 Z M 327.8125 273.121094 "/>
</clipPath>
<clipPath id="clip11">
  <path d="M 327.8125 273.121094 L 74.988281 108.859375 L 169.375 -36.421875 L 422.199219 127.839844 Z M 327.8125 273.121094 "/>
</clipPath>
<clipPath id="clip12">
  <path d="M 190 63 L 334 63 L 334 210 L 190 210 Z M 190 63 "/>
</clipPath>
<clipPath id="clip13">
  <path d="M 327.8125 273.121094 L 74.988281 108.859375 L 169.375 -36.421875 L 422.199219 127.839844 Z M 327.8125 273.121094 "/>
</clipPath>
<clipPath id="clip14">
  <path d="M 327.8125 273.121094 L 74.988281 108.859375 L 169.375 -36.421875 L 422.199219 127.839844 Z M 327.8125 273.121094 "/>
</clipPath>
<clipPath id="clip15">
  <path d="M 224 82 L 323 82 L 323 183 L 224 183 Z M 224 82 "/>
</clipPath>
<clipPath id="clip16">
  <path d="M 327.8125 273.121094 L 74.988281 108.859375 L 169.375 -36.421875 L 422.199219 127.839844 Z M 327.8125 273.121094 "/>
</clipPath>
<clipPath id="clip17">
  <path d="M 327.8125 273.121094 L 74.988281 108.859375 L 169.375 -36.421875 L 422.199219 127.839844 Z M 327.8125 273.121094 "/>
</clipPath>
<clipPath id="clip18">
  <path d="M 154 96.25 L 305 96.25 L 305 284 L 154 284 Z M 154 96.25 "/>
</clipPath>
<clipPath id="clip19">
  <path d="M 81.496094 289.164062 L 374.179688 289.164062 L 374.179688 450 L 81.496094 450 Z M 81.496094 289.164062 "/>
</clipPath>
<clipPath id="clip20">
  <path d="M 111.664062 307.269531 L 161.734375 307.269531 L 161.734375 450 L 111.664062 450 Z M 111.664062 307.269531 "/>
</clipPath>
</defs>
<g id="surface1">
<path style=" stroke:none;fill-rule:nonzero;fill:rgb(51.368713%,34.899902%,51.368713%);fill-opacity:1;" d="M 313.320312 214.527344 C 313.863281 212.9375 314.496094 211.382812 315.21875 209.863281 C 319.40625 202.269531 324.273438 195.144531 329.820312 188.488281 C 352.480469 157.785156 362.050781 113.597656 341.441406 81.378906 C 330.441406 64.007812 312.507812 52.503906 294.957031 41.507812 C 263.078125 21.140625 225.96875 -0.15625 188.898438 9.289062 C 159.691406 16.828125 138.152344 42.207031 110.148438 53.632812 C 85.742188 63.699219 52.855469 64.046875 35.460938 86.472656 C 15.785156 111.925781 12.414062 164.160156 15.667969 195.132812 C 19.308594 229.527344 38.523438 264.542969 70.789062 276.746094 C 89.113281 283.664062 109.527344 282.578125 128.894531 279.703125 C 134.148438 278.519531 139.441406 278.296875 144.777344 279.039062 C 152.835938 280.789062 158.992188 286.8125 165.460938 292.097656 C 166.90625 293.230469 168.386719 294.316406 169.898438 295.355469 C 171.410156 296.394531 172.953125 297.386719 174.527344 298.328125 C 176.097656 299.273438 177.699219 300.167969 179.328125 301.011719 C 180.957031 301.859375 182.609375 302.652344 184.285156 303.394531 C 185.960938 304.136719 187.660156 304.828125 189.378906 305.464844 C 191.097656 306.101562 192.835938 306.683594 194.59375 307.214844 C 196.347656 307.746094 198.117188 308.21875 199.902344 308.640625 C 201.6875 309.058594 203.480469 309.425781 205.289062 309.734375 C 207.097656 310.042969 208.910156 310.296875 210.734375 310.492188 C 212.554688 310.6875 214.382812 310.828125 216.214844 310.910156 C 218.042969 310.996094 219.875 311.023438 221.710938 310.992188 C 223.542969 310.960938 225.371094 310.875 227.199219 310.730469 C 229.027344 310.589844 230.847656 310.390625 232.664062 310.132812 C 234.480469 309.878906 236.285156 309.566406 238.078125 309.199219 C 239.875 308.828125 241.660156 308.40625 243.429688 307.929688 C 245.199219 307.449219 246.953125 306.917969 248.691406 306.332031 C 250.425781 305.742188 252.144531 305.101562 253.84375 304.410156 C 255.539062 303.71875 257.214844 302.972656 258.867188 302.175781 C 260.519531 301.378906 262.144531 300.53125 263.742188 299.632812 C 265.34375 298.734375 266.914062 297.789062 268.457031 296.792969 C 269.996094 295.800781 271.507812 294.757812 272.984375 293.667969 C 274.460938 292.582031 275.90625 291.449219 277.3125 290.269531 C 278.722656 289.09375 280.089844 287.871094 281.425781 286.609375 C 282.757812 285.347656 284.050781 284.046875 285.300781 282.703125 C 286.554688 281.359375 287.765625 279.980469 288.933594 278.5625 C 290.101562 277.144531 291.222656 275.691406 292.300781 274.207031 C 293.378906 272.71875 294.410156 271.199219 295.398438 269.648438 C 296.382812 268.097656 297.316406 266.515625 298.207031 264.910156 C 299.09375 263.300781 299.929688 261.664062 300.71875 260.003906 C 301.503906 258.34375 302.242188 256.660156 302.925781 254.953125 C 303.609375 253.246094 304.238281 251.519531 304.816406 249.777344 C 305.394531 248.03125 305.917969 246.269531 306.386719 244.492188 C 308.980469 234.582031 309.871094 224.125 313.320312 214.527344 Z M 313.320312 214.527344 "/>
<path style=" stroke:none;fill-rule:nonzero;fill:rgb(91.369629%,78.42865%,76.469421%);fill-opacity:1;" d="M 41.566406 278.039062 C 43.144531 279.792969 44.71875 281.546875 46.300781 283.296875 C 46.527344 283.550781 46.757812 283.804688 46.980469 284.058594 C 47.703125 284.859375 49.070312 285.039062 49.886719 284.261719 C 50.691406 283.5 50.867188 282.210938 50.089844 281.351562 C 48.515625 279.597656 46.9375 277.84375 45.355469 276.09375 C 45.128906 275.839844 44.902344 275.585938 44.675781 275.332031 C 43.953125 274.53125 42.585938 274.355469 41.769531 275.128906 C 40.96875 275.894531 40.789062 277.179688 41.566406 278.039062 "/>
<path style=" stroke:none;fill-rule:nonzero;fill:rgb(91.369629%,78.42865%,76.469421%);fill-opacity:1;" d="M 116.539062 277.015625 C 118.121094 278.769531 119.699219 280.523438 121.273438 282.277344 C 121.503906 282.53125 121.730469 282.78125 121.957031 283.035156 C 122.679688 283.835938 124.046875 284.015625 124.867188 283.238281 C 125.664062 282.480469 125.839844 281.191406 125.070312 280.332031 C 123.492188 278.574219 121.910156 276.824219 120.332031 275.074219 C 120.105469 274.816406 119.878906 274.566406 119.652344 274.3125 C 118.929688 273.511719 117.558594 273.332031 116.742188 274.109375 C 115.945312 274.871094 115.769531 276.15625 116.539062 277.015625 "/>
<path style=" stroke:none;fill-rule:nonzero;fill:rgb(91.369629%,78.42865%,76.469421%);fill-opacity:1;" d="M 7 272.164062 C 8.574219 273.914062 10.152344 275.671875 11.734375 277.421875 C 11.960938 277.675781 12.1875 277.929688 12.414062 278.179688 C 13.136719 278.980469 14.503906 279.164062 15.320312 278.382812 C 16.121094 277.625 16.300781 276.335938 15.523438 275.480469 C 13.945312 273.722656 12.371094 271.972656 10.789062 270.214844 C 10.5625 269.964844 10.335938 269.714844 10.109375 269.457031 C 9.386719 268.660156 8.019531 268.480469 7.203125 269.253906 C 6.402344 270.015625 6.222656 271.304688 7 272.164062 "/>
<path style=" stroke:none;fill-rule:nonzero;fill:rgb(91.369629%,78.42865%,76.469421%);fill-opacity:1;" d="M 177.691406 314.386719 C 179.265625 316.144531 180.847656 317.898438 182.425781 319.652344 C 182.652344 319.902344 182.882812 320.15625 183.109375 320.410156 C 183.828125 321.210938 185.199219 321.386719 186.015625 320.613281 C 186.816406 319.855469 186.992188 318.5625 186.21875 317.703125 C 184.640625 315.953125 183.0625 314.195312 181.484375 312.445312 C 181.257812 312.191406 181.027344 311.9375 180.800781 311.6875 C 180.078125 310.882812 178.710938 310.703125 177.894531 311.484375 C 177.09375 312.242188 176.917969 313.53125 177.691406 314.386719 "/>
<path style=" stroke:none;fill-rule:nonzero;fill:rgb(91.369629%,78.42865%,76.469421%);fill-opacity:1;" d="M 141.757812 100.050781 C 143.339844 101.808594 144.914062 103.5625 146.496094 105.316406 C 146.722656 105.566406 146.949219 105.820312 147.175781 106.074219 C 147.898438 106.875 149.265625 107.050781 150.082031 106.277344 C 150.878906 105.519531 151.0625 104.226562 150.289062 103.367188 C 148.707031 101.617188 147.132812 99.859375 145.550781 98.105469 C 145.324219 97.855469 145.097656 97.601562 144.867188 97.351562 C 144.148438 96.546875 142.78125 96.367188 141.960938 97.148438 C 141.164062 97.90625 140.984375 99.195312 141.757812 100.050781 "/>
<g clip-path="url(#clip1)" clip-rule="nonzero">
<path style=" stroke:none;fill-rule:nonzero;fill:rgb(91.369629%,78.42865%,76.469421%);fill-opacity:1;" d="M 203.703125 310.023438 C 205.285156 311.777344 206.863281 313.535156 208.441406 315.285156 C 208.667969 315.539062 208.894531 315.789062 209.121094 316.042969 C 209.84375 316.84375 211.214844 317.023438 212.03125 316.246094 C 212.828125 315.488281 213.003906 314.195312 212.234375 313.335938 C 210.65625 311.585938 209.074219 309.832031 207.5 308.078125 C 207.269531 307.824219 207.042969 307.574219 206.816406 307.320312 C 206.097656 306.519531 204.726562 306.339844 203.90625 307.117188 C 203.109375 307.875 202.933594 309.167969 203.703125 310.023438 "/>
</g>
<path style=" stroke:none;fill-rule:nonzero;fill:rgb(91.369629%,78.42865%,76.469421%);fill-opacity:1;" d="M 13.746094 221.679688 C 15.324219 223.433594 16.90625 225.183594 18.484375 226.9375 C 18.710938 227.195312 18.9375 227.441406 19.167969 227.695312 C 19.886719 228.496094 21.257812 228.675781 22.074219 227.898438 C 22.871094 227.140625 23.050781 225.851562 22.277344 224.992188 C 20.695312 223.238281 19.117188 221.488281 17.542969 219.730469 C 17.3125 219.476562 17.085938 219.230469 16.859375 218.976562 C 16.136719 218.175781 14.765625 217.996094 13.953125 218.773438 C 13.152344 219.53125 12.976562 220.820312 13.746094 221.679688 "/>
<path style=" stroke:none;fill-rule:nonzero;fill:rgb(91.369629%,78.42865%,76.469421%);fill-opacity:1;" d="M 171.910156 165.730469 C 173.488281 167.484375 175.070312 169.238281 176.644531 170.988281 C 176.875 171.242188 177.101562 171.496094 177.328125 171.75 C 178.050781 172.550781 179.421875 172.726562 180.238281 171.953125 C 181.035156 171.191406 181.214844 169.902344 180.441406 169.042969 C 178.859375 167.292969 177.28125 165.539062 175.699219 163.785156 C 175.476562 163.53125 175.25 163.277344 175.023438 163.023438 C 174.300781 162.226562 172.929688 162.046875 172.113281 162.820312 C 171.316406 163.582031 171.140625 164.871094 171.910156 165.730469 "/>
<path style=" stroke:none;fill-rule:nonzero;fill:rgb(91.369629%,78.42865%,76.469421%);fill-opacity:1;" d="M 114.152344 93.132812 C 115.730469 94.886719 117.308594 96.636719 118.886719 98.390625 C 119.113281 98.644531 119.34375 98.898438 119.570312 99.152344 C 120.289062 99.949219 121.660156 100.128906 122.476562 99.355469 C 123.277344 98.59375 123.453125 97.304688 122.683594 96.445312 C 121.101562 94.695312 119.523438 92.9375 117.945312 91.1875 C 117.71875 90.933594 117.492188 90.679688 117.261719 90.425781 C 116.539062 89.625 115.171875 89.449219 114.355469 90.222656 C 113.558594 90.984375 113.378906 92.273438 114.152344 93.132812 "/>
<path style=" stroke:none;fill-rule:nonzero;fill:rgb(91.369629%,78.42865%,76.469421%);fill-opacity:1;" d="M 72.875 271.679688 C 74.457031 273.433594 76.035156 275.1875 77.613281 276.9375 C 77.839844 277.191406 78.066406 277.445312 78.296875 277.699219 C 79.019531 278.5 80.386719 278.679688 81.203125 277.902344 C 82 277.140625 82.179688 275.851562 81.40625 274.992188 C 79.828125 273.242188 78.25 271.484375 76.671875 269.734375 C 76.445312 269.480469 76.214844 269.226562 75.988281 268.972656 C 75.269531 268.171875 73.898438 267.996094 73.082031 268.769531 C 72.28125 269.53125 72.105469 270.820312 72.875 271.679688 "/>
<path style=" stroke:none;fill-rule:nonzero;fill:rgb(91.369629%,78.42865%,76.469421%);fill-opacity:1;" d="M 148.554688 172.386719 C 150.132812 174.140625 151.710938 175.894531 153.292969 177.648438 C 153.519531 177.902344 153.746094 178.148438 153.972656 178.402344 C 154.691406 179.203125 156.0625 179.382812 156.878906 178.605469 C 157.679688 177.847656 157.859375 176.558594 157.082031 175.699219 C 155.503906 173.945312 153.929688 172.195312 152.347656 170.4375 C 152.117188 170.1875 151.894531 169.9375 151.667969 169.683594 C 150.945312 168.882812 149.574219 168.703125 148.757812 169.480469 C 147.960938 170.238281 147.78125 171.527344 148.554688 172.386719 "/>
<path style=" stroke:none;fill-rule:nonzero;fill:rgb(91.369629%,78.42865%,76.469421%);fill-opacity:1;" d="M 172.175781 109.144531 C 173.757812 110.894531 175.332031 112.652344 176.914062 114.402344 C 177.140625 114.65625 177.367188 114.910156 177.59375 115.160156 C 178.316406 115.964844 179.683594 116.144531 180.5 115.363281 C 181.296875 114.605469 181.480469 113.3125 180.703125 112.457031 C 179.128906 110.703125 177.550781 108.953125 175.96875 107.195312 C 175.742188 106.945312 175.515625 106.691406 175.285156 106.4375 C 174.566406 105.640625 173.199219 105.460938 172.382812 106.234375 C 171.578125 106.996094 171.402344 108.285156 172.175781 109.144531 "/>
<path style=" stroke:none;fill-rule:nonzero;fill:rgb(91.369629%,78.42865%,76.469421%);fill-opacity:1;" d="M 154.441406 120.449219 C 156.023438 122.203125 157.601562 123.953125 159.175781 125.710938 C 159.40625 125.964844 159.632812 126.214844 159.859375 126.464844 C 160.582031 127.265625 161.949219 127.445312 162.769531 126.667969 C 163.566406 125.910156 163.742188 124.621094 162.972656 123.761719 C 161.394531 122.011719 159.8125 120.257812 158.234375 118.5 C 158.007812 118.25 157.78125 118 157.550781 117.746094 C 156.832031 116.945312 155.460938 116.765625 154.644531 117.542969 C 153.847656 118.300781 153.667969 119.589844 154.441406 120.449219 "/>
<path style=" stroke:none;fill-rule:nonzero;fill:rgb(91.369629%,78.42865%,76.469421%);fill-opacity:1;" d="M 57.191406 294.253906 C 58.769531 296.007812 60.351562 297.761719 61.929688 299.515625 C 62.15625 299.769531 62.382812 300.023438 62.609375 300.269531 C 63.332031 301.070312 64.703125 301.253906 65.519531 300.472656 C 66.316406 299.714844 66.492188 298.425781 65.722656 297.570312 C 64.144531 295.8125 62.5625 294.0625 60.988281 292.304688 C 60.757812 292.054688 60.53125 291.804688 60.304688 291.550781 C 59.585938 290.75 58.210938 290.570312 57.394531 291.347656 C 56.597656 292.105469 56.421875 293.394531 57.191406 294.253906 "/>
<path style=" stroke:none;fill-rule:nonzero;fill:rgb(91.369629%,78.42865%,76.469421%);fill-opacity:1;" d="M 69.039062 247.945312 C 70.617188 249.699219 72.199219 251.453125 73.777344 253.207031 C 74.003906 253.457031 74.230469 253.710938 74.457031 253.964844 C 75.179688 254.765625 76.550781 254.945312 77.367188 254.167969 C 78.164062 253.40625 78.34375 252.121094 77.570312 251.261719 C 75.988281 249.507812 74.410156 247.75 72.835938 246 C 72.609375 245.746094 72.378906 245.492188 72.152344 245.238281 C 71.429688 244.4375 70.0625 244.261719 69.242188 245.035156 C 68.445312 245.800781 68.269531 247.085938 69.039062 247.945312 "/>
<path style=" stroke:none;fill-rule:nonzero;fill:rgb(91.369629%,78.42865%,76.469421%);fill-opacity:1;" d="M 37.414062 259.605469 C 38.992188 261.363281 40.570312 263.113281 42.148438 264.867188 C 42.378906 265.121094 42.605469 265.375 42.832031 265.628906 C 43.550781 266.425781 44.921875 266.609375 45.738281 265.832031 C 46.539062 265.070312 46.714844 263.78125 45.941406 262.921875 C 44.363281 261.171875 42.785156 259.414062 41.203125 257.664062 C 40.976562 257.410156 40.753906 257.15625 40.527344 256.902344 C 39.800781 256.101562 38.433594 255.921875 37.617188 256.699219 C 36.820312 257.460938 36.640625 258.746094 37.414062 259.605469 "/>
<path style=" stroke:none;fill-rule:nonzero;fill:rgb(91.369629%,78.42865%,76.469421%);fill-opacity:1;" d="M 56.285156 159.808594 C 57.863281 161.566406 59.441406 163.316406 61.023438 165.070312 C 61.25 165.324219 61.472656 165.578125 61.703125 165.832031 C 62.425781 166.628906 63.792969 166.808594 64.609375 166.035156 C 65.40625 165.269531 65.589844 163.984375 64.8125 163.125 C 63.234375 161.371094 61.660156 159.617188 60.078125 157.867188 C 59.847656 157.613281 59.621094 157.359375 59.394531 157.105469 C 58.675781 156.304688 57.308594 156.125 56.488281 156.902344 C 55.6875 157.664062 55.511719 158.949219 56.285156 159.808594 "/>
<path style=" stroke:none;fill-rule:nonzero;fill:rgb(91.369629%,78.42865%,76.469421%);fill-opacity:1;" d="M 138.914062 271.355469 C 140.492188 273.105469 142.070312 274.859375 143.648438 276.613281 C 143.875 276.867188 144.105469 277.121094 144.332031 277.371094 C 145.054688 278.167969 146.421875 278.355469 147.238281 277.574219 C 148.039062 276.816406 148.214844 275.523438 147.441406 274.667969 C 145.867188 272.914062 144.285156 271.160156 142.707031 269.40625 C 142.480469 269.15625 142.25 268.902344 142.023438 268.648438 C 141.304688 267.847656 139.933594 267.671875 139.117188 268.445312 C 138.316406 269.203125 138.140625 270.496094 138.914062 271.355469 "/>
<path style=" stroke:none;fill-rule:nonzero;fill:rgb(91.369629%,78.42865%,76.469421%);fill-opacity:1;" d="M 75.667969 299.566406 C 77.242188 301.320312 78.824219 303.074219 80.402344 304.828125 C 80.628906 305.082031 80.855469 305.335938 81.085938 305.582031 C 81.804688 306.386719 83.175781 306.566406 83.992188 305.785156 C 84.789062 305.027344 84.96875 303.738281 84.195312 302.882812 C 82.613281 301.125 81.039062 299.375 79.460938 297.617188 C 79.234375 297.371094 79.003906 297.117188 78.777344 296.863281 C 78.054688 296.0625 76.6875 295.882812 75.871094 296.660156 C 75.070312 297.417969 74.894531 298.707031 75.667969 299.566406 "/>
<path style=" stroke:none;fill-rule:nonzero;fill:rgb(91.369629%,78.42865%,76.469421%);fill-opacity:1;" d="M 63.957031 215.351562 C 65.539062 217.101562 67.113281 218.855469 68.695312 220.609375 C 68.917969 220.863281 69.148438 221.113281 69.375 221.367188 C 70.097656 222.167969 71.464844 222.347656 72.28125 221.570312 C 73.082031 220.8125 73.257812 219.519531 72.484375 218.660156 C 70.910156 216.910156 69.328125 215.15625 67.75 213.402344 C 67.523438 213.148438 67.292969 212.898438 67.066406 212.644531 C 66.347656 211.84375 64.976562 211.667969 64.160156 212.441406 C 63.359375 213.199219 63.183594 214.492188 63.957031 215.351562 "/>
<path style=" stroke:none;fill-rule:nonzero;fill:rgb(91.369629%,78.42865%,76.469421%);fill-opacity:1;" d="M 75.707031 326.21875 C 77.285156 327.976562 78.863281 329.726562 80.445312 331.480469 C 80.671875 331.734375 80.898438 331.984375 81.121094 332.238281 C 81.847656 333.039062 83.214844 333.21875 84.03125 332.441406 C 84.832031 331.683594 85.007812 330.394531 84.234375 329.535156 C 82.65625 327.78125 81.078125 326.027344 79.5 324.273438 C 79.269531 324.023438 79.046875 323.769531 78.820312 323.519531 C 78.097656 322.71875 76.726562 322.539062 75.910156 323.316406 C 75.113281 324.074219 74.933594 325.363281 75.707031 326.21875 "/>
<path style=" stroke:none;fill-rule:nonzero;fill:rgb(91.369629%,78.42865%,76.469421%);fill-opacity:1;" d="M 33.378906 300.375 C 34.957031 302.128906 36.535156 303.882812 38.113281 305.636719 C 38.339844 305.890625 38.570312 306.144531 38.796875 306.394531 C 39.519531 307.195312 40.886719 307.375 41.703125 306.597656 C 42.503906 305.835938 42.679688 304.546875 41.90625 303.691406 C 40.332031 301.9375 38.75 300.183594 37.171875 298.425781 C 36.945312 298.179688 36.71875 297.925781 36.488281 297.671875 C 35.769531 296.871094 34.398438 296.691406 33.582031 297.46875 C 32.785156 298.226562 32.605469 299.519531 33.378906 300.375 "/>
<path style=" stroke:none;fill-rule:nonzero;fill:rgb(91.369629%,78.42865%,76.469421%);fill-opacity:1;" d="M 96.617188 318.707031 C 98.195312 320.464844 99.773438 322.21875 101.355469 323.96875 C 101.582031 324.222656 101.808594 324.476562 102.03125 324.730469 C 102.753906 325.53125 104.125 325.707031 104.941406 324.933594 C 105.742188 324.171875 105.921875 322.882812 105.144531 322.023438 C 103.566406 320.273438 101.988281 318.515625 100.410156 316.765625 C 100.179688 316.511719 99.953125 316.257812 99.730469 316.003906 C 99.007812 315.203125 97.636719 315.027344 96.820312 315.800781 C 96.019531 316.5625 95.84375 317.847656 96.617188 318.707031 "/>
<path style=" stroke:none;fill-rule:nonzero;fill:rgb(91.369629%,78.42865%,76.469421%);fill-opacity:1;" d="M 152.90625 316.511719 C 154.484375 318.265625 156.0625 320.019531 157.644531 321.773438 C 157.871094 322.027344 158.097656 322.277344 158.320312 322.53125 C 159.042969 323.332031 160.414062 323.511719 161.230469 322.734375 C 162.03125 321.976562 162.207031 320.6875 161.433594 319.828125 C 159.855469 318.070312 158.277344 316.320312 156.699219 314.566406 C 156.46875 314.3125 156.242188 314.0625 156.019531 313.808594 C 155.296875 313.007812 153.925781 312.828125 153.109375 313.605469 C 152.308594 314.363281 152.132812 315.652344 152.90625 316.511719 "/>
<path style=" stroke:none;fill-rule:nonzero;fill:rgb(91.369629%,78.42865%,76.469421%);fill-opacity:1;" d="M 104.449219 220.039062 C 106.027344 221.792969 107.605469 223.546875 109.183594 225.300781 C 109.410156 225.550781 109.640625 225.804688 109.867188 226.054688 C 110.585938 226.855469 111.953125 227.035156 112.773438 226.257812 C 113.574219 225.5 113.75 224.210938 112.976562 223.351562 C 111.398438 221.597656 109.820312 219.847656 108.238281 218.089844 C 108.015625 217.839844 107.789062 217.589844 107.5625 217.335938 C 106.835938 216.535156 105.46875 216.355469 104.652344 217.132812 C 103.855469 217.890625 103.675781 219.179688 104.449219 220.039062 "/>
<path style=" stroke:none;fill-rule:nonzero;fill:rgb(91.369629%,78.42865%,76.469421%);fill-opacity:1;" d="M 134.121094 201.324219 C 135.703125 203.078125 137.28125 204.832031 138.859375 206.582031 C 139.085938 206.835938 139.3125 207.089844 139.539062 207.34375 C 140.261719 208.144531 141.628906 208.320312 142.449219 207.546875 C 143.246094 206.785156 143.421875 205.496094 142.652344 204.636719 C 141.074219 202.886719 139.492188 201.128906 137.914062 199.378906 C 137.6875 199.125 137.460938 198.871094 137.234375 198.617188 C 136.515625 197.816406 135.140625 197.640625 134.324219 198.414062 C 133.527344 199.175781 133.351562 200.464844 134.121094 201.324219 "/>
<path style=" stroke:none;fill-rule:nonzero;fill:rgb(91.369629%,78.42865%,76.469421%);fill-opacity:1;" d="M 139.523438 330.769531 C 141.105469 332.527344 142.683594 334.277344 144.257812 336.035156 C 144.488281 336.285156 144.714844 336.535156 144.941406 336.789062 C 145.664062 337.589844 147.03125 337.769531 147.847656 336.992188 C 148.648438 336.234375 148.824219 334.945312 148.050781 334.085938 C 146.476562 332.332031 144.894531 330.578125 143.316406 328.824219 C 143.089844 328.570312 142.859375 328.316406 142.632812 328.066406 C 141.914062 327.265625 140.542969 327.085938 139.726562 327.863281 C 138.929688 328.625 138.75 329.910156 139.523438 330.769531 "/>
<path style=" stroke:none;fill-rule:nonzero;fill:rgb(91.369629%,78.42865%,76.469421%);fill-opacity:1;" d="M 151.628906 236.085938 C 153.207031 237.84375 154.789062 239.59375 156.363281 241.347656 C 156.59375 241.601562 156.820312 241.855469 157.046875 242.105469 C 157.765625 242.90625 159.136719 243.085938 159.953125 242.308594 C 160.753906 241.550781 160.929688 240.261719 160.15625 239.402344 C 158.578125 237.652344 157 235.894531 155.417969 234.140625 C 155.195312 233.890625 154.96875 233.636719 154.738281 233.382812 C 154.015625 232.582031 152.648438 232.402344 151.832031 233.179688 C 151.035156 233.941406 150.855469 235.226562 151.628906 236.085938 "/>
<g clip-path="url(#clip2)" clip-rule="nonzero">
<path style=" stroke:none;fill-rule:nonzero;fill:rgb(91.369629%,78.42865%,76.469421%);fill-opacity:1;" d="M 108.136719 357.019531 C 109.714844 358.773438 111.296875 360.527344 112.875 362.28125 C 113.101562 362.535156 113.328125 362.785156 113.558594 363.035156 C 114.273438 363.839844 115.648438 364.019531 116.464844 363.238281 C 117.261719 362.480469 117.441406 361.191406 116.667969 360.335938 C 115.085938 358.578125 113.507812 356.828125 111.933594 355.070312 C 111.703125 354.820312 111.476562 354.570312 111.25 354.316406 C 110.527344 353.515625 109.15625 353.335938 108.339844 354.113281 C 107.542969 354.871094 107.367188 356.160156 108.136719 357.019531 "/>
</g>
<path style=" stroke:none;fill-rule:nonzero;fill:rgb(91.369629%,78.42865%,76.469421%);fill-opacity:1;" d="M 108.976562 198.957031 C 110.554688 200.710938 112.136719 202.464844 113.710938 204.21875 C 113.941406 204.472656 114.167969 204.722656 114.394531 204.972656 C 115.113281 205.773438 116.484375 205.957031 117.300781 205.175781 C 118.101562 204.417969 118.277344 203.128906 117.503906 202.273438 C 115.925781 200.515625 114.347656 198.765625 112.769531 197.007812 C 112.542969 196.753906 112.316406 196.507812 112.089844 196.253906 C 111.363281 195.453125 109.996094 195.273438 109.179688 196.050781 C 108.382812 196.808594 108.207031 198.097656 108.976562 198.957031 "/>
<path style=" stroke:none;fill-rule:nonzero;fill:rgb(91.369629%,78.42865%,76.469421%);fill-opacity:1;" d="M 105.261719 244.75 C 106.835938 246.503906 108.417969 248.257812 109.996094 250.011719 C 110.222656 250.265625 110.449219 250.515625 110.675781 250.765625 C 111.398438 251.566406 112.769531 251.75 113.585938 250.96875 C 114.382812 250.210938 114.5625 248.921875 113.789062 248.066406 C 112.207031 246.308594 110.628906 244.558594 109.054688 242.800781 C 108.828125 242.550781 108.597656 242.296875 108.371094 242.046875 C 107.648438 241.246094 106.28125 241.066406 105.464844 241.84375 C 104.664062 242.601562 104.488281 243.890625 105.261719 244.75 "/>
<path style=" stroke:none;fill-rule:nonzero;fill:rgb(91.369629%,78.42865%,76.469421%);fill-opacity:1;" d="M 126.292969 249.601562 C 127.875 251.355469 129.453125 253.109375 131.03125 254.859375 C 131.257812 255.113281 131.484375 255.367188 131.714844 255.621094 C 132.433594 256.421875 133.804688 256.601562 134.621094 255.824219 C 135.417969 255.0625 135.597656 253.777344 134.824219 252.917969 C 133.246094 251.160156 131.664062 249.40625 130.089844 247.65625 C 129.859375 247.402344 129.632812 247.148438 129.40625 246.894531 C 128.6875 246.09375 127.3125 245.917969 126.496094 246.695312 C 125.699219 247.453125 125.523438 248.742188 126.292969 249.601562 "/>
<path style=" stroke:none;fill-rule:nonzero;fill:rgb(91.369629%,78.42865%,76.469421%);fill-opacity:1;" d="M 1.054688 243.871094 C 2.636719 245.625 4.214844 247.378906 5.792969 249.128906 C 6.019531 249.382812 6.246094 249.636719 6.472656 249.890625 C 7.199219 250.691406 8.566406 250.871094 9.382812 250.09375 C 10.179688 249.332031 10.355469 248.046875 9.585938 247.1875 C 8.007812 245.429688 6.429688 243.679688 4.851562 241.925781 C 4.621094 241.671875 4.394531 241.421875 4.167969 241.164062 C 3.449219 240.367188 2.074219 240.1875 1.261719 240.960938 C 0.460938 241.726562 0.285156 243.011719 1.054688 243.871094 "/>
<path style=" stroke:none;fill-rule:nonzero;fill:rgb(91.369629%,78.42865%,76.469421%);fill-opacity:1;" d="M 126.785156 160.914062 C 128.363281 162.667969 129.945312 164.421875 131.523438 166.175781 C 131.75 166.429688 131.976562 166.683594 132.207031 166.933594 C 132.921875 167.730469 134.296875 167.914062 135.113281 167.136719 C 135.910156 166.375 136.089844 165.085938 135.316406 164.230469 C 133.734375 162.476562 132.15625 160.722656 130.578125 158.964844 C 130.351562 158.714844 130.125 158.464844 129.898438 158.210938 C 129.175781 157.410156 127.804688 157.230469 126.988281 158.007812 C 126.191406 158.765625 126.015625 160.054688 126.785156 160.914062 "/>
<path style=" stroke:none;fill-rule:nonzero;fill:rgb(91.369629%,78.42865%,76.469421%);fill-opacity:1;" d="M 67.855469 106.082031 C 69.429688 107.832031 71.007812 109.589844 72.589844 111.339844 C 72.816406 111.59375 73.042969 111.847656 73.269531 112.097656 C 73.992188 112.898438 75.359375 113.082031 76.175781 112.300781 C 76.976562 111.542969 77.15625 110.25 76.378906 109.394531 C 74.804688 107.640625 73.226562 105.890625 71.644531 104.132812 C 71.417969 103.882812 71.1875 103.628906 70.964844 103.375 C 70.242188 102.578125 68.875 102.398438 68.058594 103.171875 C 67.257812 103.929688 67.078125 105.222656 67.855469 106.082031 "/>
<g clip-path="url(#clip3)" clip-rule="nonzero">
<path style=" stroke:none;fill-rule:nonzero;fill:rgb(91.369629%,78.42865%,76.469421%);fill-opacity:1;" d="M 84.496094 89.945312 C 86.078125 91.699219 87.65625 93.453125 89.234375 95.207031 C 89.460938 95.460938 89.6875 95.714844 89.917969 95.960938 C 90.636719 96.761719 92.007812 96.945312 92.824219 96.164062 C 93.621094 95.40625 93.800781 94.117188 93.027344 93.261719 C 91.449219 91.503906 89.867188 89.753906 88.292969 87.996094 C 88.066406 87.746094 87.835938 87.496094 87.609375 87.242188 C 86.890625 86.441406 85.519531 86.261719 84.699219 87.039062 C 83.902344 87.796875 83.726562 89.085938 84.496094 89.945312 "/>
</g>
<path style=" stroke:none;fill-rule:nonzero;fill:rgb(91.369629%,78.42865%,76.469421%);fill-opacity:1;" d="M 128.285156 119.585938 C 129.859375 121.335938 131.4375 123.09375 133.019531 124.84375 C 133.246094 125.097656 133.476562 125.351562 133.699219 125.601562 C 134.421875 126.402344 135.789062 126.585938 136.605469 125.804688 C 137.410156 125.046875 137.585938 123.757812 136.808594 122.902344 C 135.234375 121.144531 133.65625 119.390625 132.074219 117.636719 C 131.847656 117.386719 131.617188 117.132812 131.394531 116.878906 C 130.671875 116.078125 129.304688 115.902344 128.488281 116.675781 C 127.683594 117.433594 127.507812 118.726562 128.285156 119.585938 "/>
<path style=" stroke:none;fill-rule:nonzero;fill:rgb(91.369629%,78.42865%,76.469421%);fill-opacity:1;" d="M 27.753906 198.765625 C 29.335938 200.515625 30.914062 202.273438 32.492188 204.023438 C 32.71875 204.277344 32.945312 204.527344 33.171875 204.78125 C 33.898438 205.582031 35.265625 205.761719 36.082031 204.984375 C 36.878906 204.226562 37.058594 202.9375 36.285156 202.078125 C 34.707031 200.324219 33.125 198.570312 31.550781 196.816406 C 31.320312 196.5625 31.09375 196.3125 30.867188 196.058594 C 30.148438 195.257812 28.773438 195.082031 27.957031 195.855469 C 27.160156 196.617188 26.984375 197.90625 27.753906 198.765625 "/>
<path style=" stroke:none;fill-rule:nonzero;fill:rgb(91.369629%,78.42865%,76.469421%);fill-opacity:1;" d="M 84.113281 202.148438 C 85.6875 203.902344 87.269531 205.65625 88.847656 207.410156 C 89.074219 207.660156 89.300781 207.914062 89.53125 208.167969 C 90.25 208.96875 91.621094 209.148438 92.4375 208.371094 C 93.234375 207.609375 93.414062 206.324219 92.640625 205.464844 C 91.058594 203.707031 89.484375 201.957031 87.90625 200.203125 C 87.679688 199.949219 87.449219 199.695312 87.222656 199.441406 C 86.5 198.644531 85.132812 198.464844 84.316406 199.238281 C 83.515625 200 83.339844 201.289062 84.113281 202.148438 "/>
<path style=" stroke:none;fill-rule:nonzero;fill:rgb(91.369629%,78.42865%,76.469421%);fill-opacity:1;" d="M 187.976562 127.5625 C 189.558594 129.3125 191.132812 131.066406 192.710938 132.820312 C 192.941406 133.074219 193.167969 133.328125 193.394531 133.578125 C 194.113281 134.375 195.484375 134.558594 196.304688 133.78125 C 197.101562 133.023438 197.277344 131.730469 196.507812 130.875 C 194.929688 129.121094 193.347656 127.367188 191.769531 125.613281 C 191.542969 125.363281 191.3125 125.109375 191.085938 124.855469 C 190.367188 124.054688 188.996094 123.878906 188.179688 124.652344 C 187.382812 125.410156 187.203125 126.703125 187.976562 127.5625 "/>
<path style=" stroke:none;fill-rule:nonzero;fill:rgb(91.369629%,78.42865%,76.469421%);fill-opacity:1;" d="M 155.03125 291.320312 C 156.613281 293.074219 158.191406 294.828125 159.769531 296.582031 C 159.996094 296.832031 160.222656 297.085938 160.449219 297.339844 C 161.171875 298.140625 162.542969 298.320312 163.359375 297.542969 C 164.15625 296.78125 164.332031 295.496094 163.5625 294.636719 C 161.984375 292.882812 160.402344 291.128906 158.828125 289.375 C 158.597656 289.121094 158.371094 288.867188 158.144531 288.617188 C 157.421875 287.816406 156.050781 287.636719 155.234375 288.410156 C 154.4375 289.175781 154.261719 290.460938 155.03125 291.320312 "/>
<path style=" stroke:none;fill-rule:nonzero;fill:rgb(91.369629%,78.42865%,76.469421%);fill-opacity:1;" d="M 82.664062 229.753906 C 84.242188 231.511719 85.824219 233.261719 87.398438 235.015625 C 87.628906 235.269531 87.855469 235.523438 88.082031 235.773438 C 88.800781 236.574219 90.175781 236.753906 90.992188 235.980469 C 91.789062 235.21875 91.964844 233.929688 91.195312 233.070312 C 89.613281 231.320312 88.035156 229.5625 86.460938 227.8125 C 86.230469 227.558594 86.003906 227.304688 85.777344 227.050781 C 85.054688 226.25 83.683594 226.070312 82.867188 226.847656 C 82.070312 227.609375 81.894531 228.894531 82.664062 229.753906 "/>
<path style=" stroke:none;fill-rule:nonzero;fill:rgb(91.369629%,78.42865%,76.469421%);fill-opacity:1;" d="M 47.707031 241.339844 C 49.285156 243.097656 50.863281 244.847656 52.441406 246.605469 C 52.667969 246.859375 52.898438 247.109375 53.125 247.363281 C 53.84375 248.160156 55.214844 248.339844 56.03125 247.566406 C 56.832031 246.804688 57.007812 245.515625 56.234375 244.65625 C 54.65625 242.90625 53.078125 241.148438 51.5 239.394531 C 51.273438 239.144531 51.042969 238.890625 50.816406 238.640625 C 50.09375 237.839844 48.726562 237.660156 47.910156 238.4375 C 47.109375 239.195312 46.933594 240.488281 47.707031 241.339844 "/>
<path style=" stroke:none;fill-rule:nonzero;fill:rgb(91.369629%,78.42865%,76.469421%);fill-opacity:1;" d="M 99.054688 290.320312 C 100.632812 292.070312 102.214844 293.824219 103.789062 295.578125 C 104.019531 295.832031 104.246094 296.085938 104.472656 296.339844 C 105.191406 297.136719 106.566406 297.316406 107.382812 296.542969 C 108.179688 295.777344 108.355469 294.492188 107.582031 293.632812 C 106.003906 291.878906 104.425781 290.125 102.847656 288.371094 C 102.621094 288.121094 102.394531 287.867188 102.164062 287.613281 C 101.441406 286.8125 100.074219 286.632812 99.257812 287.410156 C 98.460938 288.171875 98.285156 289.460938 99.054688 290.320312 "/>
<path style=" stroke:none;fill-rule:nonzero;fill:rgb(91.369629%,78.42865%,76.469421%);fill-opacity:1;" d="M 85.238281 348.59375 C 86.816406 350.351562 88.390625 352.105469 89.972656 353.855469 C 90.203125 354.109375 90.429688 354.363281 90.652344 354.613281 C 91.375 355.417969 92.742188 355.59375 93.5625 354.820312 C 94.363281 354.054688 94.539062 352.769531 93.765625 351.910156 C 92.1875 350.15625 90.609375 348.402344 89.027344 346.652344 C 88.800781 346.398438 88.574219 346.144531 88.351562 345.890625 C 87.625 345.089844 86.257812 344.910156 85.441406 345.6875 C 84.640625 346.449219 84.460938 347.734375 85.238281 348.59375 "/>
<path style=" stroke:none;fill-rule:nonzero;fill:rgb(91.369629%,78.42865%,76.469421%);fill-opacity:1;" d="M 142.84375 145.175781 C 144.421875 146.929688 146 148.683594 147.578125 150.4375 C 147.804688 150.691406 148.035156 150.941406 148.261719 151.195312 C 148.984375 151.992188 150.351562 152.171875 151.167969 151.398438 C 151.96875 150.636719 152.144531 149.347656 151.371094 148.488281 C 149.796875 146.738281 148.214844 144.984375 146.636719 143.226562 C 146.410156 142.976562 146.179688 142.726562 145.953125 142.472656 C 145.234375 141.671875 143.863281 141.492188 143.046875 142.269531 C 142.246094 143.027344 142.070312 144.316406 142.84375 145.175781 "/>
<path style=" stroke:none;fill-rule:nonzero;fill:rgb(91.369629%,78.42865%,76.469421%);fill-opacity:1;" d="M 134.175781 352.601562 C 135.753906 354.351562 137.332031 356.105469 138.910156 357.859375 C 139.140625 358.113281 139.367188 358.363281 139.59375 358.617188 C 140.3125 359.417969 141.683594 359.59375 142.5 358.820312 C 143.300781 358.0625 143.476562 356.769531 142.707031 355.910156 C 141.128906 354.160156 139.546875 352.402344 137.96875 350.652344 C 137.742188 350.398438 137.515625 350.148438 137.289062 349.894531 C 136.566406 349.09375 135.195312 348.917969 134.378906 349.691406 C 133.582031 350.449219 133.40625 351.742188 134.175781 352.601562 "/>
<path style=" stroke:none;fill-rule:nonzero;fill:rgb(91.369629%,78.42865%,76.469421%);fill-opacity:1;" d="M 166.765625 140.339844 C 168.34375 142.097656 169.921875 143.851562 171.5 145.605469 C 171.726562 145.855469 171.957031 146.109375 172.179688 146.363281 C 172.902344 147.164062 174.269531 147.34375 175.085938 146.566406 C 175.890625 145.808594 176.066406 144.515625 175.292969 143.65625 C 173.714844 141.90625 172.136719 140.148438 170.554688 138.398438 C 170.328125 138.144531 170.105469 137.890625 169.878906 137.640625 C 169.152344 136.835938 167.785156 136.65625 166.96875 137.4375 C 166.171875 138.195312 165.992188 139.488281 166.765625 140.339844 "/>
<path style=" stroke:none;fill-rule:nonzero;fill:rgb(91.369629%,78.42865%,76.469421%);fill-opacity:1;" d="M 176.652344 265.582031 C 178.230469 267.335938 179.8125 269.089844 181.390625 270.84375 C 181.617188 271.097656 181.84375 271.351562 182.074219 271.605469 C 182.792969 272.402344 184.164062 272.582031 184.980469 271.808594 C 185.78125 271.042969 185.957031 269.757812 185.183594 268.898438 C 183.601562 267.144531 182.027344 265.390625 180.449219 263.632812 C 180.222656 263.386719 179.992188 263.132812 179.765625 262.878906 C 179.042969 262.078125 177.675781 261.898438 176.859375 262.675781 C 176.0625 263.433594 175.882812 264.722656 176.652344 265.582031 "/>
<path style=" stroke:none;fill-rule:nonzero;fill:rgb(91.369629%,78.42865%,76.469421%);fill-opacity:1;" d="M 93.363281 261.9375 C 94.945312 263.6875 96.523438 265.445312 98.097656 267.195312 C 98.324219 267.449219 98.554688 267.703125 98.78125 267.953125 C 99.503906 268.753906 100.871094 268.933594 101.6875 268.15625 C 102.488281 267.398438 102.664062 266.105469 101.894531 265.25 C 100.316406 263.496094 98.734375 261.746094 97.15625 259.988281 C 96.929688 259.738281 96.703125 259.484375 96.472656 259.230469 C 95.753906 258.433594 94.382812 258.253906 93.566406 259.027344 C 92.769531 259.789062 92.589844 261.078125 93.363281 261.9375 "/>
<path style=" stroke:none;fill-rule:nonzero;fill:rgb(91.369629%,78.42865%,76.469421%);fill-opacity:1;" d="M 56.128906 328.660156 C 57.707031 330.414062 59.285156 332.164062 60.863281 333.921875 C 61.089844 334.175781 61.320312 334.421875 61.546875 334.675781 C 62.269531 335.476562 63.636719 335.65625 64.453125 334.878906 C 65.25 334.121094 65.429688 332.832031 64.65625 331.972656 C 63.082031 330.21875 61.5 328.46875 59.921875 326.710938 C 59.695312 326.457031 59.46875 326.210938 59.238281 325.957031 C 58.519531 325.15625 57.148438 324.976562 56.332031 325.753906 C 55.535156 326.511719 55.355469 327.800781 56.128906 328.660156 "/>
<path style=" stroke:none;fill-rule:nonzero;fill:rgb(91.369629%,78.42865%,76.469421%);fill-opacity:1;" d="M 153.382812 213.328125 C 154.960938 215.082031 156.539062 216.835938 158.117188 218.589844 C 158.34375 218.84375 158.570312 219.09375 158.800781 219.347656 C 159.523438 220.148438 160.890625 220.328125 161.707031 219.550781 C 162.507812 218.792969 162.683594 217.503906 161.910156 216.644531 C 160.332031 214.890625 158.753906 213.136719 157.175781 211.382812 C 156.949219 211.128906 156.71875 210.875 156.492188 210.625 C 155.773438 209.828125 154.402344 209.644531 153.585938 210.421875 C 152.789062 211.179688 152.609375 212.472656 153.382812 213.328125 "/>
<path style=" stroke:none;fill-rule:nonzero;fill:rgb(91.369629%,78.42865%,76.469421%);fill-opacity:1;" d="M 187.722656 152.050781 C 189.304688 153.804688 190.882812 155.558594 192.457031 157.308594 C 192.6875 157.566406 192.914062 157.816406 193.140625 158.070312 C 193.863281 158.871094 195.234375 159.050781 196.050781 158.273438 C 196.847656 157.511719 197.023438 156.226562 196.253906 155.367188 C 194.675781 153.609375 193.09375 151.859375 191.519531 150.105469 C 191.289062 149.851562 191.0625 149.601562 190.835938 149.347656 C 190.117188 148.546875 188.742188 148.367188 187.925781 149.144531 C 187.128906 149.90625 186.953125 151.191406 187.722656 152.050781 "/>
<path style=" stroke:none;fill-rule:nonzero;fill:rgb(91.369629%,78.42865%,76.469421%);fill-opacity:1;" d="M 89.175781 145.324219 C 90.753906 147.078125 92.328125 148.835938 93.910156 150.585938 C 94.136719 150.839844 94.363281 151.09375 94.589844 151.34375 C 95.3125 152.148438 96.679688 152.324219 97.496094 151.550781 C 98.296875 150.789062 98.476562 149.5 97.699219 148.640625 C 96.125 146.886719 94.546875 145.132812 92.964844 143.378906 C 92.738281 143.128906 92.507812 142.875 92.285156 142.621094 C 91.5625 141.820312 90.195312 141.640625 89.378906 142.417969 C 88.578125 143.175781 88.398438 144.464844 89.175781 145.324219 "/>
<path style=" stroke:none;fill-rule:nonzero;fill:rgb(91.369629%,78.42865%,76.469421%);fill-opacity:1;" d="M 178.257812 290.742188 C 179.835938 292.492188 181.414062 294.25 182.992188 296 C 183.21875 296.253906 183.449219 296.507812 183.675781 296.761719 C 184.394531 297.5625 185.765625 297.738281 186.582031 296.964844 C 187.378906 296.203125 187.558594 294.914062 186.785156 294.054688 C 185.207031 292.300781 183.625 290.546875 182.050781 288.792969 C 181.824219 288.542969 181.59375 288.289062 181.367188 288.035156 C 180.648438 287.234375 179.277344 287.058594 178.460938 287.832031 C 177.660156 288.589844 177.484375 289.882812 178.257812 290.742188 "/>
<path style=" stroke:none;fill-rule:nonzero;fill:rgb(91.369629%,78.42865%,76.469421%);fill-opacity:1;" d="M 129.421875 226.714844 C 131 228.46875 132.582031 230.222656 134.15625 231.976562 C 134.386719 232.230469 134.613281 232.480469 134.839844 232.734375 C 135.5625 233.535156 136.933594 233.714844 137.75 232.9375 C 138.546875 232.175781 138.722656 230.890625 137.953125 230.03125 C 136.375 228.273438 134.792969 226.523438 133.214844 224.769531 C 132.988281 224.519531 132.761719 224.265625 132.535156 224.011719 C 131.816406 223.210938 130.445312 223.03125 129.625 223.808594 C 128.828125 224.570312 128.652344 225.855469 129.421875 226.714844 "/>
<path style=" stroke:none;fill-rule:nonzero;fill:rgb(91.369629%,78.42865%,76.469421%);fill-opacity:1;" d="M 162.566406 190.761719 C 164.144531 192.511719 165.726562 194.269531 167.304688 196.023438 C 167.53125 196.273438 167.757812 196.527344 167.984375 196.777344 C 168.703125 197.578125 170.078125 197.761719 170.894531 196.980469 C 171.691406 196.222656 171.867188 194.933594 171.097656 194.078125 C 169.515625 192.320312 167.9375 190.570312 166.363281 188.8125 C 166.132812 188.5625 165.90625 188.3125 165.675781 188.058594 C 164.953125 187.257812 163.585938 187.078125 162.769531 187.851562 C 161.972656 188.613281 161.792969 189.902344 162.566406 190.761719 "/>
<path style=" stroke:none;fill-rule:nonzero;fill:rgb(91.369629%,78.42865%,76.469421%);fill-opacity:1;" d="M 116.769531 314.152344 C 118.351562 315.90625 119.929688 317.660156 121.507812 319.414062 C 121.734375 319.667969 121.960938 319.917969 122.191406 320.171875 C 122.910156 320.972656 124.28125 321.152344 125.097656 320.375 C 125.894531 319.617188 126.074219 318.328125 125.300781 317.46875 C 123.722656 315.714844 122.144531 313.960938 120.566406 312.207031 C 120.335938 311.953125 120.109375 311.703125 119.882812 311.449219 C 119.164062 310.652344 117.789062 310.46875 116.972656 311.246094 C 116.175781 312.007812 116 313.296875 116.769531 314.152344 "/>
<path style=" stroke:none;fill-rule:nonzero;fill:rgb(91.369629%,78.42865%,76.469421%);fill-opacity:1;" d="M 83.804688 122.578125 C 85.378906 124.335938 86.957031 126.085938 88.539062 127.839844 C 88.765625 128.09375 88.988281 128.34375 89.21875 128.597656 C 89.941406 129.398438 91.308594 129.578125 92.125 128.800781 C 92.921875 128.039062 93.105469 126.753906 92.328125 125.894531 C 90.753906 124.140625 89.175781 122.386719 87.59375 120.632812 C 87.367188 120.378906 87.136719 120.125 86.914062 119.875 C 86.191406 119.074219 84.824219 118.894531 84.007812 119.671875 C 83.203125 120.433594 83.027344 121.71875 83.804688 122.578125 "/>
<path style=" stroke:none;fill-rule:nonzero;fill:rgb(91.369629%,78.42865%,76.469421%);fill-opacity:1;" d="M 160.957031 346.167969 C 162.53125 347.917969 164.109375 349.675781 165.691406 351.425781 C 165.917969 351.679688 166.148438 351.933594 166.375 352.1875 C 167.09375 352.988281 168.460938 353.167969 169.28125 352.390625 C 170.082031 351.628906 170.257812 350.34375 169.484375 349.484375 C 167.90625 347.726562 166.328125 345.976562 164.746094 344.21875 C 164.519531 343.96875 164.292969 343.714844 164.066406 343.460938 C 163.34375 342.664062 161.976562 342.484375 161.160156 343.257812 C 160.359375 344.015625 160.179688 345.308594 160.957031 346.167969 "/>
<path style=" stroke:none;fill-rule:nonzero;fill:rgb(91.369629%,78.42865%,76.469421%);fill-opacity:1;" d="M 156.339844 258.6875 C 157.914062 260.4375 159.496094 262.195312 161.074219 263.945312 C 161.300781 264.199219 161.527344 264.453125 161.753906 264.699219 C 162.476562 265.503906 163.847656 265.679688 164.664062 264.902344 C 165.460938 264.144531 165.636719 262.855469 164.867188 261.996094 C 163.285156 260.246094 161.707031 258.492188 160.132812 256.734375 C 159.90625 256.484375 159.675781 256.234375 159.449219 255.980469 C 158.726562 255.179688 157.359375 255 156.542969 255.777344 C 155.742188 256.535156 155.566406 257.828125 156.339844 258.6875 "/>
<path style=" stroke:none;fill-rule:nonzero;fill:rgb(91.369629%,78.42865%,76.469421%);fill-opacity:1;" d="M 114.867188 337.882812 C 116.449219 339.640625 118.027344 341.390625 119.605469 343.148438 C 119.828125 343.398438 120.058594 343.648438 120.285156 343.902344 C 121.007812 344.703125 122.375 344.882812 123.191406 344.105469 C 123.992188 343.347656 124.167969 342.058594 123.394531 341.199219 C 121.820312 339.445312 120.238281 337.691406 118.660156 335.9375 C 118.433594 335.683594 118.207031 335.429688 117.980469 335.183594 C 117.257812 334.378906 115.886719 334.199219 115.070312 334.980469 C 114.273438 335.734375 114.09375 337.027344 114.867188 337.882812 "/>
<path style=" stroke:none;fill-rule:nonzero;fill:rgb(91.369629%,78.42865%,76.469421%);fill-opacity:1;" d="M 112.75 138.515625 C 114.324219 140.273438 115.902344 142.023438 117.484375 143.777344 C 117.710938 144.027344 117.9375 144.28125 118.164062 144.535156 C 118.886719 145.335938 120.253906 145.515625 121.070312 144.738281 C 121.871094 143.980469 122.046875 142.691406 121.273438 141.832031 C 119.695312 140.078125 118.117188 138.324219 116.539062 136.570312 C 116.3125 136.316406 116.085938 136.066406 115.859375 135.8125 C 115.136719 135.011719 113.769531 134.832031 112.953125 135.609375 C 112.152344 136.371094 111.972656 137.65625 112.75 138.515625 "/>
<path style=" stroke:none;fill-rule:nonzero;fill:rgb(91.369629%,78.42865%,76.469421%);fill-opacity:1;" d="M 116.882812 179.78125 C 118.460938 181.535156 120.039062 183.289062 121.621094 185.042969 C 121.847656 185.296875 122.074219 185.546875 122.300781 185.800781 C 123.019531 186.601562 124.390625 186.777344 125.207031 186.003906 C 126.007812 185.246094 126.183594 183.953125 125.410156 183.09375 C 123.832031 181.34375 122.253906 179.585938 120.675781 177.835938 C 120.445312 177.582031 120.222656 177.328125 119.996094 177.078125 C 119.273438 176.277344 117.90625 176.097656 117.085938 176.875 C 116.289062 177.632812 116.109375 178.925781 116.882812 179.78125 "/>
<path style=" stroke:none;fill-rule:nonzero;fill:rgb(91.369629%,78.42865%,76.469421%);fill-opacity:1;" d="M 186.707031 333.933594 C 188.289062 335.6875 189.863281 337.441406 191.441406 339.195312 C 191.667969 339.449219 191.894531 339.703125 192.125 339.949219 C 192.847656 340.75 194.214844 340.933594 195.03125 340.15625 C 195.828125 339.394531 196.007812 338.105469 195.234375 337.25 C 193.65625 335.496094 192.078125 333.742188 190.5 331.988281 C 190.273438 331.738281 190.046875 331.484375 189.816406 331.230469 C 189.097656 330.429688 187.726562 330.25 186.910156 331.027344 C 186.113281 331.785156 185.933594 333.074219 186.707031 333.933594 "/>
<path style=" stroke:none;fill-rule:nonzero;fill:rgb(91.369629%,78.42865%,76.469421%);fill-opacity:1;" d="M 130.675781 297.773438 C 132.253906 299.527344 133.835938 301.277344 135.410156 303.035156 C 135.640625 303.289062 135.867188 303.535156 136.09375 303.789062 C 136.8125 304.589844 138.1875 304.769531 139.003906 303.992188 C 139.800781 303.234375 139.976562 301.945312 139.207031 301.085938 C 137.625 299.332031 136.046875 297.582031 134.472656 295.824219 C 134.242188 295.570312 134.015625 295.324219 133.789062 295.070312 C 133.066406 294.269531 131.695312 294.089844 130.878906 294.867188 C 130.082031 295.625 129.90625 296.914062 130.675781 297.773438 "/>
<path style=" stroke:none;fill-rule:nonzero;fill:rgb(91.369629%,78.42865%,76.469421%);fill-opacity:1;" d="M 46.382812 176.894531 C 47.964844 178.648438 49.542969 180.398438 51.121094 182.15625 C 51.347656 182.40625 51.574219 182.65625 51.804688 182.910156 C 52.527344 183.710938 53.894531 183.890625 54.710938 183.113281 C 55.507812 182.355469 55.6875 181.066406 54.914062 180.207031 C 53.335938 178.453125 51.753906 176.703125 50.179688 174.945312 C 49.953125 174.691406 49.722656 174.441406 49.496094 174.191406 C 48.777344 173.390625 47.40625 173.210938 46.589844 173.988281 C 45.789062 174.746094 45.613281 176.035156 46.382812 176.894531 "/>
<path style=" stroke:none;fill-rule:nonzero;fill:rgb(91.369629%,78.42865%,76.469421%);fill-opacity:1;" d="M 62.800781 139.875 C 64.378906 141.628906 65.960938 143.378906 67.539062 145.136719 C 67.765625 145.390625 67.992188 145.636719 68.21875 145.890625 C 68.9375 146.691406 70.3125 146.871094 71.128906 146.09375 C 71.925781 145.335938 72.105469 144.046875 71.332031 143.1875 C 69.75 141.433594 68.171875 139.683594 66.597656 137.925781 C 66.367188 137.671875 66.140625 137.421875 65.914062 137.171875 C 65.191406 136.371094 63.824219 136.191406 63.003906 136.96875 C 62.207031 137.726562 62.03125 139.015625 62.800781 139.875 "/>
<path style=" stroke:none;fill-rule:nonzero;fill:rgb(91.369629%,78.42865%,76.469421%);fill-opacity:1;" d="M 103.574219 112.628906 C 105.152344 114.378906 106.730469 116.136719 108.308594 117.886719 C 108.539062 118.140625 108.765625 118.394531 108.992188 118.644531 C 109.710938 119.445312 111.082031 119.628906 111.898438 118.847656 C 112.699219 118.089844 112.875 116.796875 112.101562 115.945312 C 110.523438 114.1875 108.945312 112.433594 107.367188 110.679688 C 107.140625 110.429688 106.914062 110.175781 106.683594 109.921875 C 105.960938 109.121094 104.59375 108.941406 103.777344 109.71875 C 102.980469 110.476562 102.800781 111.769531 103.574219 112.628906 "/>
<path style=" stroke:none;fill-rule:nonzero;fill:rgb(91.369629%,78.42865%,76.469421%);fill-opacity:1;" d="M 76.722656 177.042969 C 78.296875 178.792969 79.875 180.550781 81.457031 182.304688 C 81.683594 182.554688 81.910156 182.808594 82.140625 183.058594 C 82.859375 183.863281 84.226562 184.042969 85.046875 183.261719 C 85.84375 182.503906 86.023438 181.214844 85.25 180.359375 C 83.667969 178.601562 82.09375 176.847656 80.511719 175.09375 C 80.289062 174.84375 80.058594 174.589844 79.832031 174.339844 C 79.109375 173.535156 77.742188 173.359375 76.925781 174.132812 C 76.125 174.890625 75.945312 176.183594 76.722656 177.042969 "/>
<path style=" stroke:none;fill-rule:nonzero;fill:rgb(91.369629%,78.42865%,76.469421%);fill-opacity:1;" d="M 199.625 282.75 C 201.203125 284.5 202.785156 286.257812 204.363281 288.007812 C 204.589844 288.261719 204.816406 288.515625 205.046875 288.769531 C 205.761719 289.570312 207.136719 289.75 207.953125 288.972656 C 208.75 288.210938 208.929688 286.921875 208.15625 286.0625 C 206.574219 284.308594 205 282.558594 203.421875 280.804688 C 203.191406 280.550781 202.964844 280.296875 202.738281 280.042969 C 202.015625 279.242188 200.644531 279.0625 199.828125 279.839844 C 199.03125 280.601562 198.855469 281.890625 199.625 282.75 "/>
<path style=" stroke:none;fill-rule:nonzero;fill:rgb(91.369629%,78.42865%,76.469421%);fill-opacity:1;" d="M 54.671875 194.667969 C 56.253906 196.421875 57.828125 198.175781 59.40625 199.929688 C 59.632812 200.183594 59.863281 200.4375 60.089844 200.683594 C 60.8125 201.488281 62.179688 201.664062 62.996094 200.890625 C 63.796875 200.132812 63.972656 198.839844 63.199219 197.980469 C 61.625 196.230469 60.042969 194.476562 58.464844 192.71875 C 58.238281 192.46875 58.011719 192.21875 57.78125 191.964844 C 57.0625 191.164062 55.691406 190.984375 54.875 191.761719 C 54.078125 192.519531 53.898438 193.808594 54.671875 194.667969 "/>
<path style=" stroke:none;fill-rule:nonzero;fill:rgb(91.369629%,78.42865%,76.469421%);fill-opacity:1;" d="M 19.628906 248.953125 C 21.207031 250.707031 22.785156 252.460938 24.367188 254.214844 C 24.59375 254.464844 24.820312 254.71875 25.042969 254.972656 C 25.765625 255.773438 27.136719 255.949219 27.953125 255.175781 C 28.753906 254.417969 28.929688 253.125 28.15625 252.265625 C 26.578125 250.515625 25 248.757812 23.417969 247.007812 C 23.191406 246.753906 22.964844 246.5 22.742188 246.25 C 22.019531 245.445312 20.648438 245.269531 19.832031 246.042969 C 19.03125 246.804688 18.855469 248.09375 19.628906 248.953125 "/>
<path style=" stroke:none;fill-rule:nonzero;fill:rgb(91.369629%,78.42865%,76.469421%);fill-opacity:1;" d="M 95.914062 168.378906 C 97.492188 170.136719 99.074219 171.886719 100.652344 173.644531 C 100.878906 173.894531 101.105469 174.144531 101.335938 174.398438 C 102.050781 175.199219 103.425781 175.378906 104.242188 174.601562 C 105.039062 173.84375 105.21875 172.554688 104.445312 171.695312 C 102.863281 169.941406 101.285156 168.1875 99.710938 166.433594 C 99.480469 166.179688 99.253906 165.929688 99.027344 165.675781 C 98.304688 164.875 96.9375 164.695312 96.117188 165.472656 C 95.320312 166.234375 95.144531 167.519531 95.914062 168.378906 "/>
<path style=" stroke:none;fill-rule:nonzero;fill:rgb(91.369629%,78.42865%,76.469421%);fill-opacity:1;" d="M 41.941406 221.257812 C 43.519531 223.011719 45.101562 224.769531 46.679688 226.519531 C 46.90625 226.773438 47.132812 227.023438 47.359375 227.277344 C 48.078125 228.078125 49.453125 228.257812 50.269531 227.480469 C 51.066406 226.722656 51.242188 225.429688 50.472656 224.570312 C 48.890625 222.820312 47.3125 221.066406 45.734375 219.3125 C 45.507812 219.058594 45.28125 218.808594 45.054688 218.554688 C 44.332031 217.753906 42.960938 217.574219 42.144531 218.351562 C 41.347656 219.109375 41.171875 220.398438 41.941406 221.257812 "/>
<g clip-path="url(#clip4)" clip-rule="nonzero">
<g clip-path="url(#clip5)" clip-rule="nonzero">
<g clip-path="url(#clip6)" clip-rule="nonzero">
<g clip-path="url(#clip7)" clip-rule="nonzero">
<g clip-path="url(#clip8)" clip-rule="nonzero">
<path style=" stroke:none;fill-rule:nonzero;fill:rgb(84.709167%,75.689697%,47.059631%);fill-opacity:1;" d="M 306.539062 255.460938 C 317.417969 262.527344 326.878906 262.457031 334.664062 255.253906 C 362.605469 229.382812 361.152344 125.28125 338.589844 83.96875 C 330.890625 69.863281 321.699219 64.0625 311.289062 66.738281 C 283.898438 73.78125 249.539062 58.644531 216.308594 44 C 180.914062 28.398438 147.480469 13.667969 129.914062 30.347656 C 121.878906 37.972656 122.097656 64.664062 130.429688 92.429688 C 134.769531 106.90625 151.726562 154.644531 187.578125 161.070312 C 228.742188 168.445312 243.007812 187.246094 259.527344 209.015625 C 270.679688 223.71875 283.320312 240.375 306.539062 255.460938 Z M 327.816406 66.691406 C 332.738281 69.890625 337.265625 75.191406 341.261719 82.511719 C 352.5 103.09375 359.144531 139.003906 358.609375 176.242188 C 358.054688 214.945312 349.875 245.316406 336.734375 257.484375 C 327.917969 265.640625 316.90625 265.824219 304.882812 258.011719 C 281.21875 242.632812 268.40625 225.75 257.101562 210.855469 C 240.96875 189.589844 227.035156 171.226562 187.042969 164.066406 C 149.484375 157.332031 131.984375 108.199219 127.515625 93.304688 C 118.738281 64.042969 118.867188 36.636719 127.816406 28.140625 C 146.851562 10.070312 181.183594 25.195312 217.535156 41.214844 C 250.289062 55.648438 284.160156 70.574219 310.527344 63.796875 C 316.652344 62.222656 322.472656 63.21875 327.816406 66.691406 "/>
</g>
</g>
</g>
</g>
</g>
<g clip-path="url(#clip9)" clip-rule="nonzero">
<g clip-path="url(#clip10)" clip-rule="nonzero">
<g clip-path="url(#clip11)" clip-rule="nonzero">
<path style=" stroke:none;fill-rule:nonzero;fill:rgb(84.709167%,75.689697%,47.059631%);fill-opacity:1;" d="M 304.820312 232.636719 C 313.609375 238.347656 321.238281 238.300781 327.511719 232.496094 C 350.328125 211.371094 349.105469 126.316406 330.675781 92.554688 C 324.429688 81.121094 317.011719 76.421875 308.621094 78.574219 C 286.097656 84.367188 257.914062 71.949219 230.65625 59.9375 C 201.75 47.203125 174.453125 35.167969 160.199219 48.703125 C 153.6875 54.886719 153.902344 76.625 160.699219 99.277344 C 164.242188 111.089844 178.082031 150.058594 207.289062 155.296875 C 241.101562 161.355469 252.816406 176.789062 266.378906 194.664062 C 275.5 206.6875 285.839844 220.304688 304.820312 232.636719 Z M 322.238281 78.035156 C 326.304688 80.679688 330.042969 85.054688 333.34375 91.09375 C 342.566406 107.988281 348.027344 137.453125 347.585938 167.996094 C 347.128906 199.761719 340.394531 224.710938 329.578125 234.730469 C 324.472656 239.453125 315.75 243.363281 303.164062 235.1875 C 283.738281 222.566406 273.230469 208.71875 263.957031 196.5 C 250.78125 179.132812 239.402344 164.136719 206.75 158.289062 C 175.84375 152.75 161.457031 112.386719 157.789062 100.144531 C 150.566406 76.089844 150.703125 53.527344 158.105469 46.496094 C 173.824219 31.570312 202.027344 44 231.882812 57.15625 C 258.667969 68.957031 286.363281 81.160156 307.863281 75.632812 C 312.960938 74.324219 317.796875 75.148438 322.238281 78.035156 "/>
</g>
</g>
</g>
<g clip-path="url(#clip12)" clip-rule="nonzero">
<g clip-path="url(#clip13)" clip-rule="nonzero">
<g clip-path="url(#clip14)" clip-rule="nonzero">
<path style=" stroke:none;fill-rule:nonzero;fill:rgb(84.709167%,75.689697%,47.059631%);fill-opacity:1;" d="M 302.4375 203.785156 C 308.753906 207.886719 314 207.867188 318.472656 203.726562 C 335 188.421875 334.078125 126.730469 320.695312 102.226562 C 316.25 94.082031 311 90.722656 305.089844 92.242188 C 288.535156 96.496094 267.925781 87.414062 247.996094 78.632812 C 227.058594 69.40625 207.28125 60.691406 197.09375 70.367188 C 192.527344 74.699219 192.738281 90.707031 197.5625 106.808594 C 200.132812 115.363281 210.144531 143.578125 231.199219 147.355469 C 256.007812 151.796875 264.589844 163.109375 274.527344 176.203125 C 281.15625 184.9375 288.667969 194.835938 302.4375 203.785156 Z M 315.148438 91.101562 C 317.902344 92.890625 320.71875 95.914062 323.367188 100.769531 C 337.5 126.65625 338.207031 189.601562 320.542969 205.957031 C 316.714844 209.5 310.179688 212.4375 300.78125 206.332031 C 286.5625 197.097656 278.882812 186.972656 272.105469 178.042969 C 262.550781 165.453125 254.300781 154.578125 230.664062 150.347656 C 207.898438 146.261719 197.34375 116.652344 194.652344 107.679688 C 189.261719 89.71875 189.40625 73.46875 194.996094 68.160156 C 206.652344 57.09375 227.328125 66.203125 249.21875 75.847656 C 268.675781 84.421875 288.796875 93.289062 304.332031 89.292969 C 307.347656 88.519531 311.183594 88.523438 315.148438 91.101562 "/>
</g>
</g>
</g>
<g clip-path="url(#clip15)" clip-rule="nonzero">
<g clip-path="url(#clip16)" clip-rule="nonzero">
<g clip-path="url(#clip17)" clip-rule="nonzero">
<path style=" stroke:none;fill-rule:nonzero;fill:rgb(84.709167%,75.689697%,47.059631%);fill-opacity:1;" d="M 300.992188 177.367188 C 305.035156 179.992188 308.378906 179.996094 311.207031 177.378906 C 321.476562 167.871094 322.3125 127.269531 312.609375 109.5 C 309.730469 104.226562 306.378906 102.042969 302.636719 103.003906 C 291.300781 105.917969 277.316406 99.757812 263.792969 93.800781 C 249.820312 87.640625 236.628906 81.828125 229.992188 88.125 C 227.398438 90.585938 226.859375 100.265625 230.445312 112.214844 C 233.96875 123.96875 241.683594 137.238281 252.746094 139.222656 C 269.675781 142.253906 275.519531 149.957031 282.289062 158.871094 C 286.949219 165.023438 291.773438 171.378906 300.992188 177.367188 Z M 309.5625 101.332031 C 311.484375 102.582031 313.441406 104.679688 315.277344 108.042969 C 324.882812 125.636719 325.316406 168.460938 313.273438 179.609375 C 310.5625 182.117188 305.945312 184.207031 299.335938 179.914062 C 289.671875 173.636719 284.464844 166.773438 279.863281 160.710938 C 273.21875 151.957031 267.972656 145.039062 252.214844 142.214844 C 241.664062 140.324219 232.433594 129.433594 227.53125 113.085938 C 224.515625 103.03125 223.34375 90.246094 227.894531 85.917969 C 236 78.230469 250.09375 84.441406 265.015625 91.015625 C 278.070312 96.765625 291.566406 102.710938 301.878906 100.0625 C 304.023438 99.507812 306.753906 99.507812 309.5625 101.332031 "/>
</g>
</g>
</g>
<path style=" stroke:none;fill-rule:nonzero;fill:rgb(10.198975%,10.198975%,9.799194%);fill-opacity:1;" d="M 327.644531 173.339844 C 328.417969 172.679688 329.003906 172.296875 329.492188 171.925781 C 329.980469 171.574219 330.34375 171.304688 330.675781 171.074219 L 331.722656 170.386719 C 331.933594 170.246094 332.15625 170.082031 332.402344 169.859375 C 332.648438 169.632812 332.898438 169.347656 333.171875 168.90625 C 333.644531 169.136719 333.945312 169.5625 334.125 170.03125 C 334.300781 170.503906 334.328125 171.023438 334.257812 171.519531 C 334.101562 172.515625 333.515625 173.421875 332.648438 174.007812 C 331.828125 174.5625 330.847656 174.78125 329.964844 174.664062 C 329.078125 174.535156 328.257812 174.152344 327.644531 173.339844 "/>
<path style=" stroke:none;fill-rule:nonzero;fill:rgb(10.198975%,10.198975%,9.799194%);fill-opacity:1;" d="M 326.644531 174.363281 C 327.636719 174.167969 328.335938 174.121094 328.941406 174.039062 C 329.539062 173.96875 329.984375 173.914062 330.390625 173.878906 L 331.636719 173.789062 C 331.890625 173.773438 332.164062 173.738281 332.484375 173.664062 C 332.8125 173.589844 333.171875 173.464844 333.625 173.214844 C 333.921875 173.648438 333.980469 174.167969 333.90625 174.664062 C 333.828125 175.164062 333.597656 175.628906 333.292969 176.027344 C 332.671875 176.820312 331.71875 177.320312 330.679688 177.40625 C 329.691406 177.484375 328.730469 177.191406 328.019531 176.65625 C 327.308594 176.105469 326.78125 175.371094 326.644531 174.363281 "/>
<path style=" stroke:none;fill-rule:nonzero;fill:rgb(82.348633%,57.249451%,52.159119%);fill-opacity:1;" d="M 322.359375 132.996094 C 320.792969 128.992188 318.46875 125.464844 315.925781 121.894531 C 310.496094 114.28125 302.566406 105.472656 292.515625 105.125 C 275.433594 104.535156 253.050781 102.761719 238.914062 138.238281 C 235.9375 145.703125 224.84375 142.570312 222.617188 147.308594 C 214.253906 165.089844 217.597656 168.792969 217.597656 168.792969 C 217.597656 168.792969 195.761719 163.316406 190.460938 169.226562 C 185.160156 175.140625 189.429688 192.644531 195.320312 197.375 C 201.210938 202.105469 205.335938 206.242188 205.335938 206.242188 C 205.335938 206.242188 212.992188 238.890625 212.992188 240.898438 C 212.992188 242.90625 215.792969 278.148438 202.832031 283.121094 C 189.871094 288.085938 177.972656 291.960938 177.972656 291.960938 L 185.898438 322.410156 C 185.898438 322.410156 223.207031 344.617188 235.183594 346.394531 C 247.160156 348.167969 274.257812 352.308594 279.558594 350.53125 C 284.859375 348.757812 301.355469 316.207031 301.355469 316.207031 C 301.355469 316.207031 293.105469 300.28125 293.105469 300.28125 C 292.066406 293.4375 291.109375 286.578125 290.078125 279.730469 C 289.574219 276.390625 289.054688 273.050781 288.496094 269.714844 C 288.074219 267.179688 286.667969 263.425781 287.925781 260.988281 C 288.953125 258.996094 297.355469 253.53125 299.585938 254.980469 C 301.941406 256.507812 321.972656 264.003906 322.5625 248.429688 C 323.148438 232.855469 326.683594 224.578125 326.683594 224.578125 L 334.34375 209.679688 C 334.34375 209.679688 339.644531 199.738281 331.394531 190.277344 C 330.28125 185.050781 329.519531 179.566406 329.644531 174.214844 C 329.6875 172.355469 330.171875 170.550781 330.515625 168.734375 C 330.875 166.847656 330.660156 165.265625 330.488281 163.378906 C 330.347656 161.851562 330.179688 160.320312 329.960938 158.800781 C 329.582031 156.125 329.222656 153.054688 327.863281 150.660156 C 325.308594 146.164062 324.695312 140.957031 323.359375 136.035156 C 323.078125 134.988281 322.742188 133.980469 322.359375 132.996094 "/>
<path style=" stroke:none;fill-rule:nonzero;fill:rgb(85.488892%,60.778809%,57.249451%);fill-opacity:1;" d="M 331.394531 189.578125 C 330.28125 184.351562 329.519531 178.867188 329.644531 173.515625 C 329.6875 171.652344 330.171875 169.851562 330.515625 168.03125 C 330.875 166.148438 330.660156 164.570312 330.488281 162.683594 C 330.347656 161.152344 330.179688 159.625 329.960938 158.101562 C 329.582031 155.425781 329.222656 152.351562 327.863281 149.964844 C 325.308594 145.464844 324.695312 140.257812 323.359375 135.335938 C 323.078125 134.289062 322.742188 133.277344 322.359375 132.296875 C 320.792969 128.292969 318.46875 124.765625 315.925781 121.199219 C 310.496094 113.582031 302.566406 104.773438 292.515625 104.425781 C 275.433594 103.835938 253.050781 102.0625 238.914062 137.539062 C 235.9375 145.003906 224.84375 141.871094 222.617188 146.609375 C 214.253906 164.390625 217.597656 168.09375 217.597656 168.09375 C 217.597656 168.09375 195.761719 162.617188 190.460938 168.53125 C 185.160156 174.441406 189.429688 191.945312 195.320312 196.675781 C 201.210938 201.40625 205.335938 205.546875 205.335938 205.546875 C 205.335938 205.546875 208.535156 219.1875 210.796875 229.375 C 211.429688 229.265625 212.082031 229.28125 212.703125 229.4375 C 217.777344 230.734375 222.398438 233.160156 227.078125 235.449219 C 227.164062 233.945312 228.070312 232.460938 229.304688 231.660156 C 230.25 231.050781 231.667969 230.917969 232.730469 231.210938 C 233.894531 231.535156 234.71875 232.292969 235.386719 233.261719 C 235.550781 233.496094 235.714844 233.726562 235.882812 233.957031 C 235.921875 234.007812 235.964844 234.058594 236.007812 234.109375 C 236.375 234.558594 236.761719 234.988281 237.167969 235.398438 C 237.546875 235.78125 237.9375 236.148438 238.34375 236.496094 C 238.378906 236.527344 238.414062 236.554688 238.449219 236.582031 C 238.25 236.410156 238.1875 236.34375 238.808594 236.878906 C 240.605469 238.191406 242.546875 239.296875 244.398438 240.53125 C 244.59375 240.664062 244.78125 240.808594 244.953125 240.957031 C 245.183594 240.988281 245.417969 241.023438 245.648438 241.054688 C 245.417969 241.023438 245.1875 240.992188 244.957031 240.960938 C 249.648438 241.59375 254.339844 242.257812 259 243.105469 C 267.25 244.605469 275.410156 246.554688 283.570312 248.492188 C 285.636719 248.984375 287.738281 249.40625 289.785156 249.976562 C 291.769531 250.53125 293.675781 251.277344 295.554688 252.109375 C 297.269531 252.871094 298.902344 253.777344 300.492188 254.757812 C 305.074219 256.878906 322.019531 262.039062 322.5625 247.730469 C 323.148438 232.15625 326.683594 223.878906 326.683594 223.878906 L 334.34375 208.976562 C 334.34375 208.976562 339.644531 199.039062 331.394531 189.578125 "/>
<path style=" stroke:none;fill-rule:nonzero;fill:rgb(71.369934%,45.098877%,40.388489%);fill-opacity:1;" d="M 232.140625 227.238281 C 232.367188 228.027344 232.6875 228.785156 233.054688 229.515625 C 233.417969 230.246094 233.832031 230.949219 234.296875 231.617188 C 235.222656 232.949219 236.308594 234.160156 237.542969 235.191406 C 237.695312 235.324219 237.851562 235.449219 238.011719 235.570312 C 238.167969 235.695312 238.320312 235.824219 238.484375 235.941406 C 238.8125 236.171875 239.132812 236.410156 239.472656 236.621094 C 240.140625 237.066406 240.847656 237.441406 241.5625 237.800781 C 243.003906 238.492188 244.511719 239.039062 246.0625 239.425781 L 246.644531 239.570312 L 247.234375 239.691406 L 247.820312 239.808594 L 248.425781 239.917969 L 250.84375 240.363281 L 255.679688 241.269531 C 257.292969 241.574219 258.902344 241.890625 260.511719 242.203125 C 262.121094 242.523438 263.730469 242.851562 265.339844 243.179688 C 266.945312 243.515625 268.550781 243.859375 270.15625 244.214844 C 271.757812 244.574219 273.363281 244.945312 274.957031 245.332031 L 277.351562 245.925781 L 278.535156 246.214844 C 278.929688 246.304688 279.320312 246.398438 279.71875 246.484375 C 280.511719 246.660156 281.3125 246.816406 282.113281 246.976562 L 284.527344 247.464844 C 286.140625 247.804688 287.761719 248.15625 289.355469 248.640625 C 289.753906 248.753906 290.148438 248.890625 290.546875 249.019531 C 290.9375 249.164062 291.332031 249.289062 291.722656 249.453125 C 292.117188 249.605469 292.496094 249.78125 292.878906 249.953125 C 293.253906 250.144531 293.632812 250.320312 293.996094 250.53125 C 296.921875 252.152344 299.417969 254.289062 302.238281 255.980469 C 299.238281 254.617188 296.554688 252.628906 293.621094 251.265625 C 293.257812 251.089844 292.886719 250.933594 292.519531 250.773438 C 292.144531 250.632812 291.773438 250.480469 291.390625 250.359375 C 291.019531 250.226562 290.625 250.121094 290.242188 250.007812 C 289.847656 249.902344 289.460938 249.792969 289.066406 249.703125 C 288.28125 249.511719 287.488281 249.339844 286.695312 249.183594 C 285.898438 249.027344 285.09375 248.890625 284.289062 248.753906 L 281.863281 248.363281 C 281.050781 248.230469 280.242188 248.089844 279.425781 247.933594 C 279.019531 247.863281 278.613281 247.777344 278.207031 247.695312 L 276.992188 247.425781 L 274.597656 246.882812 C 273.003906 246.53125 271.40625 246.171875 269.804688 245.835938 C 268.203125 245.492188 266.601562 245.15625 265 244.824219 L 255.371094 242.828125 L 250.558594 241.8125 L 248.152344 241.296875 L 247.550781 241.160156 L 246.9375 241.011719 L 246.328125 240.863281 L 245.722656 240.683594 C 244.109375 240.207031 242.535156 239.589844 241.058594 238.773438 C 240.328125 238.355469 239.609375 237.917969 238.933594 237.414062 C 238.25 236.925781 237.601562 236.382812 236.996094 235.800781 C 236.386719 235.222656 235.832031 234.59375 235.3125 233.9375 C 234.792969 233.277344 234.316406 232.589844 233.90625 231.863281 C 233.492188 231.140625 233.128906 230.390625 232.824219 229.617188 C 232.671875 229.234375 232.542969 228.839844 232.421875 228.441406 C 232.304688 228.046875 232.203125 227.644531 232.140625 227.238281 "/>
<g clip-path="url(#clip18)" clip-rule="nonzero">
<path style=" stroke:none;fill-rule:nonzero;fill:rgb(8.239746%,9.408569%,7.839966%);fill-opacity:1;" d="M 304.953125 110.117188 C 303.144531 109.789062 302.78125 107.953125 301.734375 106.761719 C 296.8125 101.144531 285.347656 99.835938 278.453125 98.570312 C 267.90625 96.632812 257.132812 96.265625 246.4375 96.691406 C 234.113281 97.183594 221.101562 98.230469 209.828125 103.980469 C 197.738281 110.144531 188.953125 121.53125 180.953125 132.183594 C 180.785156 132.40625 180.617188 132.632812 180.449219 132.859375 C 169.695312 147.300781 161.898438 163.863281 157.738281 181.40625 C 152.089844 205.230469 153.285156 230.144531 158.914062 253.847656 C 159.722656 257.261719 159.945312 260.84375 162.195312 263.6875 C 163.753906 265.664062 166.515625 267.476562 167.636719 269.738281 C 167.636719 269.738281 164.691406 263.785156 167.636719 260.738281 C 167.636719 260.738281 173.820312 272.769531 177.648438 275.726562 C 177.648438 275.726562 176.324219 274.25 177.945312 271.441406 C 177.945312 271.441406 186.042969 277.351562 190.019531 277.945312 C 190.019531 277.945312 188.839844 274.101562 190.3125 273.804688 C 190.3125 273.804688 200.476562 282.378906 202.832031 283.121094 C 202.832031 283.121094 213.730469 282.972656 214.910156 245.125 L 206.953125 205.949219 C 206.953125 205.949219 192.964844 197.816406 192.226562 188.800781 C 192.226562 188.800781 187.074219 170.617188 197.675781 169.136719 C 197.675781 169.136719 206.304688 167.363281 219.445312 173.425781 C 219.445312 173.425781 235.230469 131.882812 257.320312 130.699219 C 257.320312 130.699219 254.277344 117.296875 256.191406 116.558594 C 258.105469 115.816406 279.476562 105.53125 304.953125 110.117188 "/>
</g>
<path style=" stroke:none;fill-rule:nonzero;fill:rgb(84.709167%,74.899292%,47.44873%);fill-opacity:1;" d="M 214.886719 202.039062 C 213.441406 202.398438 212.046875 203.039062 210.761719 203.992188 C 201.746094 210.699219 197.253906 221.09375 200.035156 232.261719 C 202.691406 242.9375 213.6875 254.914062 224.632812 246.402344 C 234.207031 238.957031 235.933594 226.132812 233.90625 214.820312 C 232.40625 206.453125 222.851562 200.046875 214.886719 202.039062 "/>
<g clip-path="url(#clip19)" clip-rule="nonzero">
<path style=" stroke:none;fill-rule:nonzero;fill:rgb(98.81897%,88.62915%,83.139038%);fill-opacity:1;" d="M 182.359375 291.988281 C 182.359375 291.988281 203.566406 325.398438 255.996094 330.128906 C 255.996094 330.128906 289.964844 334.960938 295.5625 313.082031 L 291.339844 291.988281 C 291.339844 291.988281 371.902344 307.070312 374.179688 315.050781 L 374.179688 450.511719 C 374.179688 450.511719 87.832031 450.511719 87.816406 450.511719 C 86.183594 450.511719 83.15625 414.144531 82.964844 411.792969 C 81.050781 388.421875 80.179688 363.859375 85.652344 340.886719 C 87.71875 332.195312 90.863281 323.214844 96.78125 316.371094 C 103.605469 308.480469 113.902344 306.371094 123.441406 303.816406 C 130.671875 301.878906 138.09375 300.875 145.519531 300.066406 C 153.242188 299.226562 159.792969 298 167.183594 295.625 C 167.921875 295.390625 180.40625 290.222656 179.417969 289.328125 L 182.359375 291.988281 "/>
</g>
<path style=" stroke:none;fill-rule:nonzero;fill:rgb(98.039246%,86.669922%,79.998779%);fill-opacity:1;" d="M 172.054688 292.285156 C 172.054688 292.285156 222.125 360.289062 287.21875 333.679688 C 287.21875 333.679688 314.019531 326.582031 295.464844 292.285156 L 291.339844 291.101562 C 291.339844 291.101562 299.585938 320.375 283.09375 324.511719 C 283.09375 324.511719 257.761719 339.558594 210.34375 315.480469 C 210.34375 315.480469 187.074219 301.15625 181.773438 289.328125 L 172.054688 292.285156 "/>
<g clip-path="url(#clip20)" clip-rule="nonzero">
<path style=" stroke:none;fill-rule:nonzero;fill:rgb(98.039246%,86.669922%,79.998779%);fill-opacity:1;" d="M 111.671875 307.363281 C 111.671875 307.363281 152.910156 327.554688 158.210938 450.511719 L 161.449219 450.511719 C 161.449219 450.511719 153.203125 318.601562 111.671875 307.363281 "/>
</g>
<path style=" stroke:none;fill-rule:nonzero;fill:rgb(10.198975%,10.198975%,9.799194%);fill-opacity:1;" d="M 304.300781 149.773438 C 304.300781 149.773438 308.128906 146.8125 304.300781 143.5625 C 300.472656 140.308594 282.210938 131.144531 264.242188 146.667969 C 264.242188 146.667969 284.859375 139.382812 290.160156 143.835938 L 304.300781 149.773438 "/>
<path style=" stroke:none;fill-rule:nonzero;fill:rgb(10.198975%,10.198975%,9.799194%);fill-opacity:1;" d="M 321.382812 158.347656 C 321.382812 158.347656 323.488281 151.105469 328.496094 151.992188 C 328.496094 151.992188 331.394531 158.347656 330.21875 160.414062 C 330.21875 160.414062 326.390625 157.164062 321.382812 158.347656 "/>
<path style=" stroke:none;fill-rule:nonzero;fill:rgb(71.369934%,45.098877%,40.388489%);fill-opacity:1;" d="M 315.785156 158.050781 C 315.878906 159.65625 316.023438 161.246094 316.253906 162.820312 C 316.363281 163.605469 316.492188 164.386719 316.644531 165.160156 C 316.71875 165.550781 316.800781 165.933594 316.882812 166.320312 C 316.972656 166.703125 317.058594 167.085938 317.160156 167.464844 L 317.308594 168.03125 L 317.472656 168.59375 C 317.574219 168.972656 317.703125 169.339844 317.824219 169.707031 C 318.085938 170.4375 318.347656 171.167969 318.675781 171.859375 C 319.304688 173.265625 320.097656 174.570312 321.074219 175.703125 C 321.191406 175.851562 321.324219 175.980469 321.453125 176.117188 C 321.582031 176.25 321.707031 176.390625 321.839844 176.515625 L 322.253906 176.886719 C 322.324219 176.949219 322.390625 177.015625 322.464844 177.070312 L 322.683594 177.238281 L 323.125 177.578125 L 323.589844 177.878906 L 323.824219 178.03125 L 324.085938 178.191406 L 324.617188 178.523438 C 325.304688 178.996094 325.988281 179.488281 326.601562 180.078125 C 327.21875 180.660156 327.78125 181.316406 328.238281 182.054688 C 328.695312 182.789062 329.039062 183.609375 329.207031 184.472656 C 329.363281 185.335938 329.34375 186.230469 329.121094 187.0625 C 329.019531 187.480469 328.851562 187.878906 328.664062 188.253906 C 328.472656 188.632812 328.238281 188.988281 327.964844 189.304688 C 327.695312 189.625 327.386719 189.914062 327.046875 190.144531 C 326.699219 190.371094 326.3125 190.554688 325.90625 190.574219 C 326.292969 190.457031 326.613281 190.222656 326.886719 189.949219 C 327.164062 189.675781 327.394531 189.363281 327.589844 189.035156 C 327.980469 188.375 328.230469 187.640625 328.316406 186.902344 C 328.328125 186.808594 328.335938 186.71875 328.34375 186.625 C 328.347656 186.53125 328.359375 186.441406 328.355469 186.347656 C 328.351562 186.164062 328.359375 185.980469 328.335938 185.796875 C 328.3125 185.433594 328.230469 185.078125 328.136719 184.726562 C 327.925781 184.03125 327.582031 183.382812 327.148438 182.789062 C 326.710938 182.199219 326.1875 181.667969 325.617188 181.183594 C 325.046875 180.699219 324.414062 180.273438 323.769531 179.871094 L 323.273438 179.585938 L 323.023438 179.4375 L 322.75 179.269531 L 322.199219 178.9375 C 322.023438 178.8125 321.855469 178.683594 321.679688 178.554688 L 321.421875 178.363281 C 321.335938 178.300781 321.257812 178.226562 321.179688 178.15625 L 320.695312 177.730469 C 320.539062 177.585938 320.398438 177.425781 320.246094 177.277344 C 320.097656 177.121094 319.945312 176.972656 319.8125 176.804688 L 319.40625 176.3125 C 319.269531 176.148438 319.15625 175.972656 319.03125 175.800781 C 318.773438 175.460938 318.558594 175.101562 318.335938 174.742188 C 317.917969 174.015625 317.53125 173.269531 317.222656 172.496094 C 316.585938 170.957031 316.160156 169.355469 315.875 167.742188 C 315.738281 166.9375 315.628906 166.125 315.558594 165.316406 C 315.519531 164.910156 315.496094 164.503906 315.472656 164.097656 C 315.460938 163.691406 315.441406 163.285156 315.4375 162.878906 C 315.433594 161.261719 315.507812 159.640625 315.785156 158.050781 "/>
<path style=" stroke:none;fill-rule:nonzero;fill:rgb(95.689392%,67.059326%,74.508667%);fill-opacity:1;" d="M 286.5625 204.273438 C 286.5625 204.273438 323.34375 205.257812 323.34375 211.46875 L 321.578125 216.789062 L 322.28125 218.636719 L 321.648438 221.527344 L 322.480469 222.851562 L 309.6875 222.851562 C 309.6875 222.851562 292.191406 214.851562 291.929688 214.722656 C 291.667969 214.589844 289.347656 212.753906 289.347656 212.753906 L 289.871094 206.246094 L 286.5625 204.273438 "/>
<path style=" stroke:none;fill-rule:nonzero;fill:rgb(100%,100%,100%);fill-opacity:1;" d="M 289.347656 212.753906 C 289.347656 212.753906 288.199219 204.472656 290.0625 204.863281 C 291.929688 205.257812 294.777344 206.640625 295.5625 215.410156 L 289.347656 212.753906 "/>
<path style=" stroke:none;fill-rule:nonzero;fill:rgb(100%,100%,100%);fill-opacity:1;" d="M 296.003906 215.410156 C 296.003906 215.410156 294.433594 206.046875 296.988281 206.144531 C 299.539062 206.242188 303.074219 206.640625 302.679688 216.789062 L 296.003906 215.410156 "/>
<path style=" stroke:none;fill-rule:nonzero;fill:rgb(100%,100%,100%);fill-opacity:1;" d="M 302.828125 215.410156 L 309.109375 215.804688 C 309.109375 215.804688 309.503906 207.425781 307.835938 206.640625 C 306.164062 205.851562 301.84375 203.386719 302.828125 215.410156 "/>
<path style=" stroke:none;fill-rule:nonzero;fill:rgb(100%,100%,100%);fill-opacity:1;" d="M 316.472656 217.285156 C 316.472656 217.285156 316.570312 206.046875 313.625 206.144531 C 310.679688 206.242188 309.601562 205.851562 309.109375 215.804688 L 316.472656 217.285156 "/>
<path style=" stroke:none;fill-rule:nonzero;fill:rgb(100%,100%,100%);fill-opacity:1;" d="M 322.835938 219.351562 L 317.027344 217.285156 C 317.027344 217.285156 315.359375 207.148438 317.8125 207.484375 C 320.269531 207.820312 323.929688 210.679688 322.835938 219.351562 "/>
<path style=" stroke:none;fill-rule:nonzero;fill:rgb(16.468811%,8.239746%,8.239746%);fill-opacity:1;" d="M 306.789062 192.859375 C 306.726562 192.570312 307.082031 192.375 307.578125 192.058594 C 308.808594 191.277344 310.921875 190.253906 312.398438 190.144531 C 315.785156 189.894531 317.992188 192.636719 319.234375 195.484375 C 319.726562 196.605469 317.777344 196.332031 317.363281 196.054688 C 315.960938 195.113281 314.679688 193.09375 312.988281 192.707031 C 311.136719 192.285156 309.109375 194.84375 307.292969 193.441406 C 306.976562 193.199219 306.824219 193.015625 306.789062 192.859375 "/>
<path style=" stroke:none;fill-rule:nonzero;fill:rgb(74.508667%,10.978699%,17.649841%);fill-opacity:1;" d="M 324.328125 216.296875 C 324.328125 216.296875 336.59375 206.242188 315.734375 200.035156 C 304.492188 196.6875 292.273438 200.351562 281.03125 202.105469 C 281.03125 202.105469 282.503906 205.652344 289.871094 206.246094 C 292.734375 206.472656 295.515625 207.246094 298.351562 207.453125 C 307.421875 208.121094 320.464844 204.664062 324.328125 216.296875 "/>
<path style=" stroke:none;fill-rule:nonzero;fill:rgb(100%,100%,100%);fill-opacity:1;" d="M 303.21875 218.46875 L 309.6875 218.636719 L 309.109375 216.25 L 302.828125 215.855469 L 303.21875 218.46875 "/>
<path style=" stroke:none;fill-rule:nonzero;fill:rgb(100%,100%,100%);fill-opacity:1;" d="M 315.492188 217.429688 L 309.378906 216.296875 L 309.921875 218.808594 L 316.472656 222.039062 L 316.472656 217.652344 L 315.492188 217.429688 "/>
<path style=" stroke:none;fill-rule:nonzero;fill:rgb(100%,100%,100%);fill-opacity:1;" d="M 322.144531 219.671875 L 316.597656 217.75 L 316.597656 221.71875 L 322.480469 222.851562 L 322.144531 219.671875 "/>
<path style=" stroke:none;fill-rule:nonzero;fill:rgb(74.508667%,10.978699%,17.649841%);fill-opacity:1;" d="M 286.921875 212.15625 C 291.816406 213.355469 296.703125 214.585938 301.574219 215.878906 C 304.226562 216.582031 307.15625 217.097656 309.6875 218.191406 C 312.199219 219.273438 314.546875 220.917969 317.214844 221.605469 C 318.882812 222.035156 323.394531 220.828125 323.738281 222.210938 C 324.328125 224.578125 325.800781 230.03125 321.378906 231 C 311.878906 233.078125 300.027344 222.96875 292.699219 217.882812 C 291.484375 217.035156 287.8125 212.375 286.921875 212.15625 "/>
<path style=" stroke:none;fill-rule:nonzero;fill:rgb(71.369934%,45.098877%,40.388489%);fill-opacity:1;" d="M 208.773438 175.183594 C 208.929688 175.304688 209.050781 175.472656 209.109375 175.664062 C 209.171875 175.855469 209.175781 176.066406 209.144531 176.265625 C 209.109375 176.46875 209.035156 176.660156 208.9375 176.839844 C 208.839844 177.019531 208.714844 177.1875 208.5625 177.328125 C 208.414062 177.46875 208.226562 177.59375 208.039062 177.671875 C 207.851562 177.753906 207.65625 177.8125 207.457031 177.859375 C 207.058594 177.949219 206.660156 177.980469 206.269531 178.003906 C 205.878906 178.03125 205.496094 178.042969 205.128906 178.109375 C 204.761719 178.171875 204.398438 178.273438 204.050781 178.402344 C 203.351562 178.667969 202.699219 179.054688 202.125 179.527344 C 201.546875 180.007812 201.050781 180.570312 200.632812 181.191406 C 200.214844 181.8125 199.878906 182.492188 199.621094 183.199219 C 199.363281 183.910156 199.164062 184.640625 199.035156 185.390625 C 198.910156 186.136719 198.855469 186.890625 198.894531 187.636719 C 198.933594 188.378906 199.0625 189.117188 199.328125 189.792969 C 199.359375 189.878906 199.390625 189.964844 199.433594 190.042969 L 199.546875 190.292969 C 199.640625 190.445312 199.71875 190.609375 199.824219 190.753906 C 200.019531 191.054688 200.265625 191.3125 200.523438 191.558594 C 201.058594 192.035156 201.710938 192.382812 202.417969 192.617188 C 203.128906 192.855469 203.878906 193.011719 204.640625 193.160156 C 205.402344 193.308594 206.179688 193.4375 206.949219 193.652344 C 207.71875 193.863281 208.460938 194.167969 209.167969 194.523438 C 210.578125 195.25 211.847656 196.171875 213.089844 197.121094 C 211.746094 196.324219 210.414062 195.5 208.996094 194.898438 C 208.289062 194.59375 207.5625 194.34375 206.816406 194.1875 C 206.070312 194.023438 205.304688 193.917969 204.53125 193.804688 C 204.144531 193.746094 203.753906 193.683594 203.363281 193.609375 C 202.972656 193.527344 202.582031 193.441406 202.195312 193.316406 C 201.417969 193.082031 200.652344 192.707031 200.003906 192.15625 C 199.683594 191.878906 199.390625 191.5625 199.160156 191.210938 C 199.03125 191.039062 198.9375 190.851562 198.828125 190.671875 L 198.691406 190.386719 C 198.644531 190.292969 198.605469 190.195312 198.566406 190.097656 C 198.253906 189.316406 198.105469 188.496094 198.0625 187.675781 C 198.023438 186.859375 198.089844 186.042969 198.230469 185.246094 C 198.375 184.453125 198.585938 183.671875 198.882812 182.917969 C 199.179688 182.160156 199.5625 181.4375 200.03125 180.773438 C 200.5 180.105469 201.074219 179.507812 201.71875 179.015625 C 202.371094 178.527344 203.09375 178.128906 203.871094 177.886719 C 204.261719 177.765625 204.660156 177.679688 205.0625 177.632812 C 205.46875 177.585938 205.867188 177.59375 206.257812 177.59375 C 206.644531 177.597656 207.027344 177.597656 207.394531 177.542969 C 207.761719 177.480469 208.128906 177.378906 208.410156 177.152344 C 208.699219 176.925781 208.917969 176.601562 209.023438 176.238281 C 209.070312 176.058594 209.089844 175.867188 209.050781 175.679688 C 209.011719 175.496094 208.917969 175.320312 208.773438 175.183594 "/>
<path style=" stroke:none;fill-rule:nonzero;fill:rgb(71.369934%,45.098877%,40.388489%);fill-opacity:1;" d="M 204.164062 172.980469 C 202.582031 172.398438 200.851562 172.394531 199.285156 172.859375 C 198.5 173.089844 197.75 173.433594 197.074219 173.882812 C 196.402344 174.332031 195.796875 174.882812 195.3125 175.519531 C 195.179688 175.671875 195.082031 175.847656 194.96875 176.015625 C 194.917969 176.097656 194.859375 176.179688 194.808594 176.265625 L 194.667969 176.53125 C 194.484375 176.890625 194.320312 177.257812 194.1875 177.640625 C 194.058594 178.023438 193.953125 178.414062 193.867188 178.808594 C 193.785156 179.207031 193.726562 179.609375 193.683594 180.015625 C 193.523438 181.640625 193.632812 183.308594 193.941406 184.921875 C 194.238281 186.542969 194.742188 188.121094 195.417969 189.628906 C 196.089844 191.136719 196.933594 192.570312 197.9375 193.886719 C 199.945312 196.519531 202.546875 198.710938 205.558594 200.203125 C 202.402344 199.035156 199.589844 196.929688 197.425781 194.292969 L 196.640625 193.28125 L 195.929688 192.214844 C 195.484375 191.484375 195.054688 190.742188 194.699219 189.960938 C 193.976562 188.40625 193.441406 186.761719 193.117188 185.074219 C 193.054688 184.648438 192.976562 184.226562 192.925781 183.800781 L 192.820312 182.515625 C 192.78125 181.65625 192.792969 180.789062 192.898438 179.925781 C 192.953125 179.5 193.027344 179.070312 193.125 178.644531 C 193.226562 178.21875 193.351562 177.800781 193.5 177.390625 C 193.65625 176.980469 193.839844 176.582031 194.050781 176.195312 L 194.222656 175.914062 C 194.277344 175.820312 194.34375 175.730469 194.40625 175.640625 C 194.535156 175.460938 194.652344 175.273438 194.804688 175.113281 C 195.363281 174.4375 196.035156 173.859375 196.785156 173.417969 C 197.535156 172.976562 198.34375 172.65625 199.183594 172.464844 C 200.019531 172.277344 200.882812 172.210938 201.730469 172.296875 C 202.15625 172.335938 202.574219 172.421875 202.980469 172.53125 C 203.183594 172.597656 203.386719 172.652344 203.582031 172.730469 L 204.164062 172.980469 "/>
<path style=" stroke:none;fill-rule:nonzero;fill:rgb(71.369934%,45.098877%,40.388489%);fill-opacity:1;" d="M 215.667969 182.636719 C 214.886719 183.632812 214.394531 184.785156 214.261719 185.964844 C 214.121094 187.140625 214.363281 188.332031 214.894531 189.371094 C 215.027344 189.628906 215.183594 189.878906 215.351562 190.113281 C 215.519531 190.351562 215.710938 190.5625 215.925781 190.796875 C 216.132812 191.035156 216.363281 191.289062 216.542969 191.605469 C 216.722656 191.925781 216.824219 192.265625 216.890625 192.59375 C 216.921875 192.761719 216.941406 192.925781 216.960938 193.085938 C 216.976562 193.246094 216.992188 193.40625 217 193.570312 C 217.011719 193.898438 217.003906 194.238281 216.925781 194.574219 C 216.839844 194.910156 216.65625 195.242188 216.371094 195.445312 C 216.234375 195.542969 216.09375 195.613281 215.964844 195.699219 C 215.835938 195.777344 215.714844 195.871094 215.632812 196.007812 C 215.667969 195.851562 215.773438 195.714844 215.886719 195.597656 C 216 195.484375 216.121094 195.382812 216.21875 195.269531 C 216.410156 195.054688 216.5 194.789062 216.519531 194.503906 C 216.542969 194.21875 216.507812 193.925781 216.453125 193.632812 C 216.394531 193.335938 216.332031 193.027344 216.25 192.75 C 216.164062 192.46875 216.058594 192.210938 215.910156 191.992188 C 215.765625 191.773438 215.566406 191.5625 215.347656 191.34375 C 215.128906 191.128906 214.894531 190.875 214.691406 190.609375 C 214.488281 190.339844 214.308594 190.054688 214.152344 189.757812 C 213.535156 188.566406 213.324219 187.15625 213.617188 185.855469 C 213.898438 184.558594 214.636719 183.378906 215.667969 182.636719 "/>
<path style=" stroke:none;fill-rule:nonzero;fill:rgb(71.369934%,45.098877%,40.388489%);fill-opacity:1;" d="M 210.019531 179.257812 C 210.414062 179.714844 210.707031 180.269531 210.917969 180.847656 C 211.117188 181.433594 211.238281 182.054688 211.269531 182.679688 C 211.324219 183.933594 211.035156 185.1875 210.546875 186.324219 C 210.296875 186.890625 210.015625 187.4375 209.664062 187.960938 C 209.3125 188.476562 208.890625 188.972656 208.359375 189.347656 C 207.832031 189.726562 207.203125 189.953125 206.578125 190.011719 C 205.949219 190.066406 205.316406 189.96875 204.773438 189.699219 C 205.960938 189.890625 207.140625 189.554688 207.953125 188.828125 C 208.367188 188.460938 208.703125 188.015625 208.996094 187.527344 C 209.144531 187.285156 209.28125 187.035156 209.410156 186.773438 C 209.542969 186.515625 209.667969 186.253906 209.78125 185.992188 C 210.234375 184.933594 210.542969 183.820312 210.613281 182.675781 C 210.679688 181.535156 210.503906 180.363281 210.019531 179.257812 "/>
</g>
</svg>
