<?xml version="1.0" encoding="UTF-8"?>
<svg xmlns="http://www.w3.org/2000/svg" xmlns:xlink="http://www.w3.org/1999/xlink" width="75pt" height="112.499997pt" viewBox="0 0 75 112.499997" version="1.2">
<defs>
<clipPath id="clip1">
  <path d="M 3.433594 8.414062 L 71.382812 8.414062 L 71.382812 104.28125 L 3.433594 104.28125 Z M 3.433594 8.414062 "/>
</clipPath>
</defs>
<g id="surface1">
<g clip-path="url(#clip1)" clip-rule="nonzero">
<path style=" stroke:none;fill-rule:nonzero;fill:rgb(95.689392%,90.979004%,86.268616%);fill-opacity:1;" d="M 68.828125 46.25 C 67.640625 49.894531 67.496094 53.8125 68.425781 57.53125 C 69.175781 60.503906 69.90625 63.214844 70.460938 65.230469 C 71.160156 67.757812 71.488281 70.382812 71.378906 73.003906 C 68.539062 138.332031 -1.542969 86.199219 3.726562 53.039062 C 5.785156 40.113281 18.515625 25.671875 30.125 14.550781 C 39.820312 5.28125 55.441406 6.703125 63.273438 17.601562 C 64.25 18.960938 65.113281 20.253906 65.882812 21.476562 C 70.507812 28.863281 71.539062 37.957031 68.828125 46.25 "/>
</g>
<path style=" stroke:none;fill-rule:nonzero;fill:rgb(49.798584%,32.159424%,19.60907%);fill-opacity:1;" d="M 41.238281 36.207031 C 41.238281 36.207031 49.207031 20.011719 63.359375 33.273438 C 63.359375 33.273438 67.394531 47.261719 65.175781 54.007812 C 62.957031 60.753906 56.726562 85.886719 56.539062 90.152344 C 56.351562 94.417969 43.242188 112.042969 40.085938 97.941406 C 36.921875 83.835938 43.875 71.933594 43.84375 71.261719 C 43.808594 70.59375 50.675781 56.179688 42.105469 45.007812 C 42.105469 45.007812 38.203125 38.925781 41.238281 36.207031 "/>
<path style=" stroke:none;fill-rule:nonzero;fill:rgb(72.938538%,57.649231%,41.569519%);fill-opacity:1;" d="M 43.519531 45.109375 C 43.519531 45.109375 41.679688 39.855469 42.746094 35.539062 C 42.746094 35.539062 40.316406 39.457031 41.691406 43.558594 C 41.691406 43.558594 42.371094 45.445312 43.519531 45.109375 "/>
<path style=" stroke:none;fill-rule:nonzero;fill:rgb(75.689697%,61.569214%,46.269226%);fill-opacity:1;" d="M 40.960938 93.5 C 40.960938 93.5 45.386719 97.957031 53.265625 94.996094 L 51.679688 98.285156 C 51.679688 98.285156 46.28125 100.582031 41.597656 96.914062 L 40.960938 93.5 "/>
<path style=" stroke:none;fill-rule:nonzero;fill:rgb(75.689697%,61.569214%,46.269226%);fill-opacity:1;" d="M 64.574219 52.617188 C 64.574219 52.617188 61.339844 60.476562 60.949219 61.601562 C 60.558594 62.726562 57.785156 73.101562 57.59375 77.617188 C 57.402344 82.132812 55.929688 89.265625 55.929688 89.265625 C 55.929688 89.265625 57.699219 87.535156 58.632812 83.40625 C 58.632812 83.40625 58.578125 78.761719 59.535156 72.75 C 60.496094 66.738281 62.199219 61.371094 64.25 57.507812 L 64.574219 52.617188 "/>
<path style=" stroke:none;fill-rule:nonzero;fill:rgb(72.938538%,57.649231%,41.569519%);fill-opacity:1;" d="M 63.734375 58.503906 C 63.734375 58.503906 59.527344 64.84375 58.628906 75.121094 C 58.628906 75.121094 57.519531 82.636719 59.261719 83.039062 C 59.261719 83.039062 63.457031 69.292969 63.734375 58.503906 "/>
<path style=" stroke:none;fill-rule:nonzero;fill:rgb(72.938538%,57.649231%,41.569519%);fill-opacity:1;" d="M 43.484375 70.167969 C 43.484375 70.167969 38.433594 71.476562 39.859375 81.957031 C 39.859375 81.957031 43.449219 72.59375 43.484375 70.167969 "/>
<path style=" stroke:none;fill-rule:nonzero;fill:rgb(72.938538%,57.649231%,41.569519%);fill-opacity:1;" d="M 41.597656 96.914062 C 41.597656 96.914062 48.714844 99.113281 52.144531 97.910156 C 52.144531 97.910156 49.636719 104.316406 45.488281 103.585938 C 41.34375 102.855469 41.597656 96.914062 41.597656 96.914062 "/>
<path style=" stroke:none;fill-rule:nonzero;fill:rgb(86.268616%,69.018555%,48.629761%);fill-opacity:1;" d="M 43.25 46.40625 C 43.25 46.40625 37.726562 43.058594 43.335938 34.773438 C 48.945312 26.488281 59.382812 29.320312 62.46875 34.386719 C 65.554688 39.453125 64.851562 53.332031 64.15625 55.332031 C 63.464844 57.328125 61.421875 71.859375 61.398438 73.53125 C 61.371094 75.203125 57.714844 86.363281 54.300781 92.335938 C 50.886719 98.308594 49.480469 103.644531 45.488281 103.585938 C 41.5 103.527344 37.886719 77.703125 40.945312 73.230469 C 44.003906 68.753906 43.808594 70.59375 43.808594 70.59375 L 44.003906 68.753906 C 44.003906 68.753906 41.339844 69.050781 39.449219 73.039062 C 37.5625 77.027344 36.261719 86.546875 36.242188 87.71875 C 36.226562 88.890625 36.277344 96.589844 40.046875 100.492188 C 40.046875 100.492188 41.800781 105.703125 45.296875 105.421875 C 48.792969 105.140625 52.632812 104.027344 57.265625 94.386719 C 61.898438 84.753906 62.917969 71.710938 63.675781 65.699219 C 64.425781 59.6875 69.121094 45.699219 69.136719 44.53125 C 69.15625 43.355469 71.203125 39.871094 67.828125 31.957031 C 64.449219 24.042969 59.660156 10.414062 55.996094 10.695312 C 52.332031 10.976562 30.277344 40.773438 43.136719 48.328125 L 43.25 46.40625 "/>
<path style=" stroke:none;fill-rule:nonzero;fill:rgb(12.548828%,11.759949%,12.548828%);fill-opacity:1;" d="M 51.644531 29.625 C 51.644531 29.625 50.992188 28.695312 50.5 28.269531 C 50.007812 27.84375 50.050781 25 52.28125 26.039062 C 54.507812 27.074219 53.757812 27.398438 55.832031 27.511719 C 57.910156 27.625 56.390625 29.363281 55.386719 29.765625 C 55.386719 29.765625 53.066406 29.0625 51.644531 29.625 "/>
<path style=" stroke:none;fill-rule:nonzero;fill:rgb(75.689697%,61.569214%,46.269226%);fill-opacity:1;" d="M 43.136719 48.328125 C 43.136719 48.328125 48.445312 55.097656 44.003906 68.753906 C 39.5625 82.414062 39.820312 81.828125 39.820312 81.828125 L 40.011719 85.765625 C 40.011719 85.765625 41.664062 80.769531 42.785156 78.191406 C 43.902344 75.617188 48.832031 62.800781 47.753906 56.761719 C 46.679688 50.71875 43.6875 44.984375 43.273438 44.808594 C 42.859375 44.636719 40.78125 43.175781 42.636719 35.839844 C 42.636719 35.839844 38.113281 39.628906 42.421875 46.304688 L 43.136719 48.328125 "/>
<path style=" stroke:none;fill-rule:nonzero;fill:rgb(12.548828%,11.759949%,12.548828%);fill-opacity:1;" d="M 42.964844 31.753906 C 42.964844 31.753906 40.707031 32.808594 40.773438 33.898438 C 40.839844 34.988281 41.597656 34.328125 42.101562 34.085938 C 42.601562 33.839844 44.101562 33.613281 44.117188 32.609375 C 44.132812 31.605469 42.964844 31.753906 42.964844 31.753906 "/>
<path style=" stroke:none;fill-rule:nonzero;fill:rgb(12.548828%,11.759949%,12.548828%);fill-opacity:1;" d="M 44.136719 31.1875 C 44.136719 31.1875 44.519531 27.929688 47.65625 29.316406 C 47.65625 29.316406 49.722656 30.183594 45.792969 31.796875 C 45.792969 31.796875 44.207031 32.191406 44.136719 31.1875 "/>
<path style=" stroke:none;fill-rule:nonzero;fill:rgb(12.548828%,11.759949%,12.548828%);fill-opacity:1;" d="M 44.960938 26.179688 C 44.960938 26.179688 42.777344 27.484375 43.179688 28.410156 C 43.582031 29.335938 44.246094 29.347656 44.917969 29.019531 C 45.585938 28.699219 44.847656 28.269531 45.265625 28.023438 C 45.683594 27.777344 46.214844 25.613281 44.960938 26.179688 "/>
<path style=" stroke:none;fill-rule:nonzero;fill:rgb(12.548828%,11.759949%,12.548828%);fill-opacity:1;" d="M 47.71875 19.523438 C 47.71875 19.523438 48.972656 19.125 48.371094 20.203125 C 47.773438 21.28125 47.449219 20.859375 47.433594 21.777344 C 47.421875 22.699219 45.976562 24.9375 44.90625 24.082031 C 44.90625 24.082031 46.699219 20.761719 47.71875 19.523438 "/>
<path style=" stroke:none;fill-rule:nonzero;fill:rgb(12.548828%,11.759949%,12.548828%);fill-opacity:1;" d="M 52.210938 13.730469 C 52.210938 13.730469 55.566406 11.605469 56.476562 11.953125 C 57.386719 12.300781 59.179688 14.839844 60.179688 14.769531 C 60.179688 14.769531 57.832031 10.394531 55.996094 10.695312 C 54.164062 11 52.210938 13.730469 52.210938 13.730469 "/>
<path style=" stroke:none;fill-rule:nonzero;fill:rgb(12.548828%,11.759949%,12.548828%);fill-opacity:1;" d="M 55.933594 14.875 C 55.933594 14.875 49.984375 18.046875 53.140625 18.515625 C 56.289062 18.980469 60.40625 16.195312 59.421875 15.179688 C 58.441406 14.160156 55.933594 14.875 55.933594 14.875 "/>
<path style=" stroke:none;fill-rule:nonzero;fill:rgb(12.548828%,11.759949%,12.548828%);fill-opacity:1;" d="M 51.402344 23.34375 C 51.402344 23.34375 52.832031 22.445312 52.921875 21.941406 C 53.011719 21.441406 54.363281 20.039062 55.507812 21.3125 C 56.65625 22.582031 57.226562 23.175781 54.460938 24.808594 C 51.691406 26.441406 48.144531 24.382812 51.402344 23.34375 "/>
<path style=" stroke:none;fill-rule:nonzero;fill:rgb(12.548828%,11.759949%,12.548828%);fill-opacity:1;" d="M 57.445312 19.664062 C 57.445312 19.664062 55.359375 20.304688 56.835938 21.582031 C 58.3125 22.859375 60.824219 21.808594 59.761719 20.453125 C 58.699219 19.097656 57.445312 19.664062 57.445312 19.664062 "/>
<path style=" stroke:none;fill-rule:nonzero;fill:rgb(12.548828%,11.759949%,12.548828%);fill-opacity:1;" d="M 63.726562 22.351562 C 63.726562 22.351562 64.347656 25.207031 65.175781 25.640625 C 65.175781 25.640625 64.542969 23.371094 63.726562 22.351562 "/>
<path style=" stroke:none;fill-rule:nonzero;fill:rgb(12.548828%,11.759949%,12.548828%);fill-opacity:1;" d="M 61.328125 21.398438 C 61.328125 21.398438 59.5 21.203125 60.304688 23.054688 C 61.109375 24.910156 63.433594 25.109375 63.53125 24.359375 C 63.625 23.605469 62.074219 21.574219 61.328125 21.398438 "/>
<path style=" stroke:none;fill-rule:nonzero;fill:rgb(12.548828%,11.759949%,12.548828%);fill-opacity:1;" d="M 59.617188 24.550781 C 59.617188 24.550781 58.445312 25.121094 58.34375 26.371094 C 58.246094 27.625 58.21875 29.214844 61.390625 28.679688 C 61.390625 28.679688 62.648438 27.941406 61.421875 26.503906 C 61.421875 26.503906 63.03125 24.265625 59.617188 24.550781 "/>
<path style=" stroke:none;fill-rule:nonzero;fill:rgb(12.548828%,11.759949%,12.548828%);fill-opacity:1;" d="M 61.863281 30.273438 C 61.863281 30.273438 61.808594 28.265625 63.878906 28.882812 C 65.949219 29.5 65.355469 30.324219 64.6875 30.652344 C 64.015625 30.976562 63.574219 32.726562 63.160156 32.554688 C 62.746094 32.378906 61.84375 31.527344 61.863281 30.273438 "/>
<path style=" stroke:none;fill-rule:nonzero;fill:rgb(12.548828%,11.759949%,12.548828%);fill-opacity:1;" d="M 62.789062 35.226562 C 62.789062 35.226562 63.335938 31.972656 64.726562 33.664062 C 66.113281 35.359375 66.785156 34.699219 67.1875 35.878906 C 67.585938 37.054688 66.652344 38.296875 65.246094 37.773438 C 63.839844 37.25 62.789062 35.226562 62.789062 35.226562 "/>
<path style=" stroke:none;fill-rule:nonzero;fill:rgb(12.548828%,11.759949%,12.548828%);fill-opacity:1;" d="M 63.828125 38.003906 C 63.828125 38.003906 66.644531 38.882812 67.125 40.058594 C 67.605469 41.238281 66.769531 41.5625 66.113281 40.882812 C 65.460938 40.203125 64.210938 40.269531 64.210938 40.269531 L 63.828125 38.003906 "/>
<path style=" stroke:none;fill-rule:nonzero;fill:rgb(12.548828%,11.759949%,12.548828%);fill-opacity:1;" d="M 67.246094 43.160156 C 67.246094 43.160156 67.78125 40.738281 69.171875 42.351562 C 69.171875 42.351562 69.21875 44.945312 68.621094 45.773438 C 68.621094 45.773438 67.292969 45.671875 67.246094 43.160156 "/>
<path style=" stroke:none;fill-rule:nonzero;fill:rgb(12.548828%,11.759949%,12.548828%);fill-opacity:1;" d="M 64.726562 44.964844 C 64.726562 44.964844 66.722656 44.910156 67.027344 46.757812 C 67.332031 48.601562 66.183594 47.582031 66.183594 47.582031 L 64.78125 46.804688 L 64.726562 44.964844 "/>
<path style=" stroke:none;fill-rule:nonzero;fill:rgb(12.548828%,11.759949%,12.548828%);fill-opacity:1;" d="M 67.210938 51.195312 C 67.210938 51.195312 65.785156 52.09375 66.679688 53.359375 L 67.210938 51.195312 "/>
<path style=" stroke:none;fill-rule:nonzero;fill:rgb(12.548828%,11.759949%,12.548828%);fill-opacity:1;" d="M 64.503906 54.503906 C 64.503906 54.503906 65.558594 56.105469 65.042969 57.4375 C 64.523438 58.769531 63.617188 58.085938 63.617188 58.085938 L 64.503906 54.503906 "/>
<path style=" stroke:none;fill-rule:nonzero;fill:rgb(12.548828%,11.759949%,12.548828%);fill-opacity:1;" d="M 62.445312 64.515625 C 62.445312 64.515625 64.171875 65.796875 61.886719 68.691406 L 62.445312 64.515625 "/>
<path style=" stroke:none;fill-rule:nonzero;fill:rgb(12.548828%,11.759949%,12.548828%);fill-opacity:1;" d="M 62.359375 75.980469 C 62.359375 75.980469 58.773438 76.597656 61.730469 79.066406 L 62.359375 75.980469 "/>
<path style=" stroke:none;fill-rule:nonzero;fill:rgb(12.548828%,11.759949%,12.548828%);fill-opacity:1;" d="M 58.511719 83.121094 C 58.511719 83.121094 59.214844 80.453125 60.699219 81.480469 C 60.699219 81.480469 60.976562 85.332031 60.15625 84.402344 C 59.339844 83.46875 58.882812 83.410156 58.882812 83.410156 "/>
<path style=" stroke:none;fill-rule:nonzero;fill:rgb(12.548828%,11.759949%,12.548828%);fill-opacity:1;" d="M 58.480469 85.132812 C 58.480469 85.132812 57.5625 85.367188 57.714844 86.457031 C 57.863281 87.550781 57.679688 88.800781 58.105469 88.136719 C 58.53125 87.476562 60.148438 84.988281 58.480469 85.132812 "/>
<path style=" stroke:none;fill-rule:nonzero;fill:rgb(12.548828%,11.759949%,12.548828%);fill-opacity:1;" d="M 59.511719 88.664062 C 59.511719 88.664062 57.066406 91.054688 58.46875 91.660156 C 58.46875 91.660156 59.503906 89.082031 59.511719 88.664062 "/>
<path style=" stroke:none;fill-rule:nonzero;fill:rgb(12.548828%,11.759949%,12.548828%);fill-opacity:1;" d="M 55.300781 92.285156 C 55.300781 92.285156 53.96875 92.429688 54.867188 93.449219 C 55.765625 94.464844 56.265625 94.558594 56.539062 92.972656 C 56.8125 91.386719 55.300781 92.285156 55.300781 92.285156 "/>
<path style=" stroke:none;fill-rule:nonzero;fill:rgb(12.548828%,11.759949%,12.548828%);fill-opacity:1;" d="M 52.921875 95.765625 C 52.921875 95.765625 54.164062 96.203125 54.066406 97.207031 C 53.964844 98.207031 53.273438 100.121094 52.367188 99.441406 C 51.464844 98.753906 51.484375 97.5 52.921875 95.765625 "/>
<path style=" stroke:none;fill-rule:nonzero;fill:rgb(12.548828%,11.759949%,12.548828%);fill-opacity:1;" d="M 46.570312 103.703125 C 46.570312 103.703125 46.546875 105.292969 48.558594 103.984375 C 50.574219 102.675781 49.078125 102.570312 49.078125 102.570312 C 49.078125 102.570312 47.066406 103.878906 46.570312 103.703125 "/>
<path style=" stroke:none;fill-rule:nonzero;fill:rgb(12.548828%,11.759949%,12.548828%);fill-opacity:1;" d="M 40.15625 98.835938 C 40.15625 98.835938 42.722656 99.378906 42.617188 101.046875 C 42.507812 102.71875 42.484375 104.394531 43.386719 105.074219 C 43.386719 105.074219 39.523438 102.257812 40.15625 98.835938 "/>
<path style=" stroke:none;fill-rule:nonzero;fill:rgb(12.548828%,11.759949%,12.548828%);fill-opacity:1;" d="M 38.042969 89.601562 C 38.042969 89.601562 37.039062 89.921875 37.015625 91.761719 C 36.988281 93.601562 37.648438 93.863281 38.078125 93.03125 C 38.503906 92.203125 39.367188 90.039062 38.042969 89.601562 "/>
<path style=" stroke:none;fill-rule:nonzero;fill:rgb(12.548828%,11.759949%,12.548828%);fill-opacity:1;" d="M 39.820312 81.828125 C 39.820312 81.828125 38.996094 81.414062 38.398438 82.242188 L 38.355469 85.421875 C 38.355469 85.421875 38.949219 84.425781 39.949219 84.523438 L 39.820312 81.828125 "/>
<path style=" stroke:none;fill-rule:nonzero;fill:rgb(12.548828%,11.759949%,12.548828%);fill-opacity:1;" d="M 36.894531 82.890625 C 36.894531 82.890625 38.203125 84.332031 36.429688 86.3125 C 36.429688 86.3125 36.625 84.308594 36.894531 82.890625 "/>
<path style=" stroke:none;fill-rule:nonzero;fill:rgb(12.548828%,11.759949%,12.548828%);fill-opacity:1;" d="M 39.449219 73.039062 C 39.449219 73.039062 40.550781 71.5625 41.285156 72.746094 C 41.285156 72.746094 40.597656 74.074219 40.425781 74.574219 C 40.425781 74.574219 39.269531 74.054688 38.847656 74.464844 L 39.449219 73.039062 "/>
<path style=" stroke:none;fill-rule:nonzero;fill:rgb(75.289917%,84.309387%,93.728638%);fill-opacity:1;" d="M 50.921875 67.617188 L 45.671875 85.359375 C 45.671875 85.359375 47.464844 87.8125 51.128906 87.449219 L 56.382812 69.539062 C 56.382812 69.539062 54.582031 67.503906 50.921875 67.617188 "/>
<path style=" stroke:none;fill-rule:nonzero;fill:rgb(49.798584%,32.159424%,19.60907%);fill-opacity:1;" d="M 32.847656 36.082031 C 32.847656 36.082031 25.523438 19.660156 11.300781 32.5 C 11.300781 32.5 6.949219 46.367188 8.921875 53.175781 C 10.894531 59.980469 16.261719 85.289062 16.320312 89.554688 C 16.382812 93.824219 28.6875 111.828125 32.1875 97.824219 C 35.6875 83.820312 29.234375 71.714844 29.285156 71.046875 C 29.335938 70.378906 23.039062 55.769531 31.746094 44.851562 C 31.746094 44.851562 35.734375 38.886719 32.847656 36.082031 "/>
<path style=" stroke:none;fill-rule:nonzero;fill:rgb(72.938538%,57.649231%,41.569519%);fill-opacity:1;" d="M 30.359375 44.914062 C 30.359375 44.914062 32.304688 39.714844 31.394531 35.371094 C 31.394531 35.371094 33.652344 39.359375 32.191406 43.414062 C 32.191406 43.414062 31.472656 45.28125 30.359375 44.914062 "/>
<path style=" stroke:none;fill-rule:nonzero;fill:rgb(75.689697%,61.569214%,46.269226%);fill-opacity:1;" d="M 31.460938 93.355469 C 31.460938 93.355469 27.003906 97.683594 19.382812 94.496094 L 20.839844 97.828125 C 20.839844 97.828125 26.050781 100.28125 30.738281 96.753906 L 31.460938 93.355469 "/>
<path style=" stroke:none;fill-rule:nonzero;fill:rgb(75.689697%,61.569214%,46.269226%);fill-opacity:1;" d="M 9.554688 51.804688 C 9.554688 51.804688 12.488281 59.753906 12.835938 60.886719 C 13.183594 62.023438 15.59375 72.476562 15.652344 76.996094 C 15.707031 81.515625 16.945312 88.683594 16.945312 88.683594 C 16.945312 88.683594 15.261719 86.90625 14.46875 82.75 C 14.46875 82.75 14.660156 78.109375 13.894531 72.074219 C 13.125 66.039062 11.621094 60.617188 9.722656 56.699219 L 9.554688 51.804688 "/>
<path style=" stroke:none;fill-rule:nonzero;fill:rgb(72.938538%,57.649231%,41.569519%);fill-opacity:1;" d="M 10.199219 57.710938 C 10.199219 57.710938 14.128906 64.167969 14.710938 74.472656 C 14.710938 74.472656 15.578125 82.015625 13.863281 82.367188 C 13.863281 82.367188 10.160156 68.503906 10.199219 57.710938 "/>
<path style=" stroke:none;fill-rule:nonzero;fill:rgb(72.938538%,57.649231%,41.569519%);fill-opacity:1;" d="M 29.667969 69.964844 C 29.667969 69.964844 34.566406 71.417969 32.867188 81.851562 C 32.867188 81.851562 29.632812 72.390625 29.667969 69.964844 "/>
<path style=" stroke:none;fill-rule:nonzero;fill:rgb(72.938538%,57.649231%,41.569519%);fill-opacity:1;" d="M 30.738281 96.753906 C 30.738281 96.753906 23.714844 98.746094 20.398438 97.441406 C 20.398438 97.441406 22.660156 103.917969 26.738281 103.308594 C 30.816406 102.699219 30.738281 96.753906 30.738281 96.753906 "/>
<path style=" stroke:none;fill-rule:nonzero;fill:rgb(86.268616%,69.018555%,48.629761%);fill-opacity:1;" d="M 30.585938 46.21875 C 30.585938 46.21875 36.082031 43.03125 30.835938 34.585938 C 25.589844 26.140625 15.300781 28.667969 12.136719 33.640625 C 8.972656 38.613281 9.257812 52.507812 9.878906 54.527344 C 10.5 56.542969 12.078125 71.125 12.050781 72.800781 C 12.027344 74.472656 15.28125 85.734375 18.445312 91.804688 C 21.609375 97.875 22.832031 103.25 26.738281 103.308594 C 30.644531 103.363281 34.925781 77.65625 32.0625 73.097656 C 29.199219 68.535156 29.335938 70.378906 29.335938 70.378906 L 29.199219 68.535156 C 29.199219 68.535156 31.796875 68.910156 33.53125 72.949219 C 35.257812 76.992188 36.261719 86.546875 36.242188 87.71875 C 36.226562 88.890625 35.949219 96.582031 32.152344 100.375 C 32.152344 100.375 30.285156 105.535156 26.871094 105.152344 C 23.460938 104.765625 19.738281 103.539062 15.488281 93.769531 C 11.234375 84 10.613281 70.9375 10.050781 64.90625 C 9.488281 58.875 5.300781 44.753906 5.320312 43.582031 C 5.335938 42.410156 3.4375 38.867188 6.96875 31.054688 C 10.496094 23.242188 15.578125 9.761719 19.152344 10.148438 C 22.726562 10.539062 43.433594 40.96875 30.636719 48.140625 L 30.585938 46.21875 "/>
<path style=" stroke:none;fill-rule:nonzero;fill:rgb(12.548828%,11.759949%,12.548828%);fill-opacity:1;" d="M 22.859375 29.199219 C 22.859375 29.199219 23.523438 28.289062 24.015625 27.878906 C 24.511719 27.464844 24.554688 24.625 22.34375 25.59375 C 20.128906 26.566406 20.859375 26.910156 18.824219 26.964844 C 16.789062 27.019531 18.226562 28.796875 19.199219 29.230469 C 19.199219 29.230469 21.484375 28.59375 22.859375 29.199219 "/>
<path style=" stroke:none;fill-rule:nonzero;fill:rgb(75.689697%,61.569214%,46.269226%);fill-opacity:1;" d="M 30.636719 48.140625 C 30.636719 48.140625 25.253906 54.757812 29.199219 68.535156 C 33.148438 82.316406 32.914062 81.726562 32.914062 81.726562 L 32.609375 85.65625 C 32.609375 85.65625 31.140625 80.613281 30.117188 78.007812 C 29.097656 75.398438 24.652344 62.441406 25.878906 56.4375 C 27.105469 50.429688 30.199219 44.785156 30.605469 44.625 C 31.015625 44.460938 33.09375 43.0625 31.492188 35.675781 C 31.492188 35.675781 35.808594 39.59375 31.398438 46.140625 L 30.636719 48.140625 "/>
<path style=" stroke:none;fill-rule:nonzero;fill:rgb(12.548828%,11.759949%,12.548828%);fill-opacity:1;" d="M 31.285156 31.582031 C 31.285156 31.582031 33.46875 32.703125 33.371094 33.789062 C 33.273438 34.875 32.550781 34.195312 32.066406 33.9375 C 31.582031 33.679688 30.121094 33.40625 30.136719 32.402344 C 30.152344 31.398438 31.285156 31.582031 31.285156 31.582031 "/>
<path style=" stroke:none;fill-rule:nonzero;fill:rgb(12.548828%,11.759949%,12.548828%);fill-opacity:1;" d="M 30.15625 30.980469 C 30.15625 30.980469 29.878906 27.710938 26.769531 29.003906 C 26.769531 29.003906 24.722656 29.8125 28.519531 31.539062 C 28.519531 31.539062 30.0625 31.984375 30.15625 30.980469 "/>
<path style=" stroke:none;fill-rule:nonzero;fill:rgb(12.548828%,11.759949%,12.548828%);fill-opacity:1;" d="M 29.496094 25.949219 C 29.496094 25.949219 31.59375 27.320312 31.171875 28.234375 C 30.753906 29.144531 30.101562 29.136719 29.453125 28.792969 C 28.8125 28.449219 29.546875 28.042969 29.148438 27.785156 C 28.742188 27.527344 28.285156 25.34375 29.496094 25.949219 "/>
<path style=" stroke:none;fill-rule:nonzero;fill:rgb(12.548828%,11.759949%,12.548828%);fill-opacity:1;" d="M 26.992188 19.214844 C 26.992188 19.214844 25.777344 18.78125 26.332031 19.875 C 26.886719 20.972656 27.21875 20.558594 27.203125 21.476562 C 27.191406 22.398438 28.539062 24.675781 29.609375 23.855469 C 29.609375 23.855469 27.949219 20.484375 26.992188 19.214844 "/>
<path style=" stroke:none;fill-rule:nonzero;fill:rgb(12.548828%,11.759949%,12.548828%);fill-opacity:1;" d="M 22.765625 13.292969 C 22.765625 13.292969 19.546875 11.074219 18.644531 11.394531 C 17.746094 11.714844 15.921875 14.199219 14.945312 14.101562 C 14.945312 14.101562 17.367188 9.792969 19.152344 10.148438 C 20.9375 10.507812 22.765625 13.292969 22.765625 13.292969 "/>
<path style=" stroke:none;fill-rule:nonzero;fill:rgb(12.548828%,11.759949%,12.548828%);fill-opacity:1;" d="M 19.089844 14.328125 C 19.089844 14.328125 24.820312 17.675781 21.71875 18.050781 C 18.625 18.421875 14.679688 15.519531 15.667969 14.53125 C 16.664062 13.539062 19.089844 14.328125 19.089844 14.328125 "/>
<path style=" stroke:none;fill-rule:nonzero;fill:rgb(12.548828%,11.759949%,12.548828%);fill-opacity:1;" d="M 23.277344 22.925781 C 23.277344 22.925781 21.90625 21.984375 21.835938 21.480469 C 21.761719 20.980469 20.480469 19.535156 19.320312 20.773438 C 18.164062 22.011719 17.585938 22.589844 20.246094 24.304688 C 22.90625 26.015625 26.433594 24.058594 23.277344 22.925781 "/>
<path style=" stroke:none;fill-rule:nonzero;fill:rgb(12.548828%,11.759949%,12.548828%);fill-opacity:1;" d="M 17.476562 19.074219 C 17.476562 19.074219 19.5 19.773438 18.015625 21.007812 C 16.535156 22.238281 14.109375 21.117188 15.1875 19.792969 C 16.261719 18.46875 17.476562 19.074219 17.476562 19.074219 "/>
<path style=" stroke:none;fill-rule:nonzero;fill:rgb(12.548828%,11.759949%,12.548828%);fill-opacity:1;" d="M 11.253906 21.578125 C 11.253906 21.578125 10.5625 24.414062 9.746094 24.816406 C 9.746094 24.816406 10.425781 22.566406 11.253906 21.578125 "/>
<path style=" stroke:none;fill-rule:nonzero;fill:rgb(12.548828%,11.759949%,12.548828%);fill-opacity:1;" d="M 13.628906 20.691406 C 13.628906 20.691406 15.421875 20.550781 14.578125 22.378906 C 13.738281 24.207031 11.460938 24.339844 11.390625 23.585938 C 11.316406 22.832031 12.894531 20.847656 13.628906 20.691406 "/>
<path style=" stroke:none;fill-rule:nonzero;fill:rgb(12.548828%,11.759949%,12.548828%);fill-opacity:1;" d="M 15.207031 23.894531 C 15.207031 23.894531 16.339844 24.496094 16.402344 25.753906 C 16.464844 27.007812 16.441406 28.597656 13.359375 27.964844 C 13.359375 27.964844 12.148438 27.195312 13.390625 25.792969 C 13.390625 25.792969 11.878906 23.511719 15.207031 23.894531 "/>
<path style=" stroke:none;fill-rule:nonzero;fill:rgb(12.548828%,11.759949%,12.548828%);fill-opacity:1;" d="M 12.847656 29.546875 C 12.847656 29.546875 12.957031 27.542969 10.914062 28.097656 C 8.875 28.652344 9.429688 29.496094 10.078125 29.84375 C 10.722656 30.183594 11.101562 31.949219 11.511719 31.789062 C 11.921875 31.625 12.828125 30.804688 12.847656 29.546875 "/>
<path style=" stroke:none;fill-rule:nonzero;fill:rgb(12.548828%,11.759949%,12.548828%);fill-opacity:1;" d="M 11.796875 34.46875 C 11.796875 34.46875 11.359375 31.199219 9.949219 32.851562 C 8.542969 34.507812 7.902344 33.828125 7.480469 34.992188 C 7.054688 36.15625 7.929688 37.425781 9.320312 36.941406 C 10.710938 36.460938 11.796875 34.46875 11.796875 34.46875 "/>
<path style=" stroke:none;fill-rule:nonzero;fill:rgb(12.548828%,11.759949%,12.548828%);fill-opacity:1;" d="M 10.699219 37.214844 C 10.699219 37.214844 7.921875 38.011719 7.417969 39.175781 C 6.914062 40.339844 7.71875 40.6875 8.382812 40.027344 C 9.042969 39.367188 10.261719 39.46875 10.261719 39.46875 L 10.699219 37.214844 "/>
<path style=" stroke:none;fill-rule:nonzero;fill:rgb(12.548828%,11.759949%,12.548828%);fill-opacity:1;" d="M 7.210938 42.269531 C 7.210938 42.269531 6.757812 39.835938 5.351562 41.402344 C 5.351562 41.402344 5.230469 43.996094 5.789062 44.839844 C 5.789062 44.839844 7.09375 44.777344 7.210938 42.269531 "/>
<path style=" stroke:none;fill-rule:nonzero;fill:rgb(12.548828%,11.759949%,12.548828%);fill-opacity:1;" d="M 9.625 44.148438 C 9.625 44.148438 7.671875 44.035156 7.320312 45.871094 C 6.96875 47.707031 8.121094 46.71875 8.121094 46.71875 L 9.515625 45.988281 L 9.625 44.148438 "/>
<path style=" stroke:none;fill-rule:nonzero;fill:rgb(12.548828%,11.759949%,12.548828%);fill-opacity:1;" d="M 7.011719 50.300781 C 7.011719 50.300781 8.378906 51.242188 7.46875 52.484375 L 7.011719 50.300781 "/>
<path style=" stroke:none;fill-rule:nonzero;fill:rgb(12.548828%,11.759949%,12.548828%);fill-opacity:1;" d="M 9.566406 53.6875 C 9.566406 53.6875 8.484375 55.261719 8.953125 56.605469 C 9.421875 57.953125 10.324219 57.296875 10.324219 57.296875 L 9.566406 53.6875 "/>
<path style=" stroke:none;fill-rule:nonzero;fill:rgb(12.548828%,11.759949%,12.548828%);fill-opacity:1;" d="M 11.289062 63.757812 C 11.289062 63.757812 9.5625 64.988281 11.714844 67.949219 L 11.289062 63.757812 "/>
<path style=" stroke:none;fill-rule:nonzero;fill:rgb(12.548828%,11.759949%,12.548828%);fill-opacity:1;" d="M 11.039062 75.222656 C 11.039062 75.222656 14.53125 75.941406 11.5625 78.324219 L 11.039062 75.222656 "/>
<path style=" stroke:none;fill-rule:nonzero;fill:rgb(12.548828%,11.759949%,12.548828%);fill-opacity:1;" d="M 14.59375 82.472656 C 14.59375 82.472656 13.984375 79.785156 12.503906 80.769531 C 12.503906 80.769531 12.125 84.609375 12.949219 83.703125 C 13.777344 82.792969 14.222656 82.746094 14.222656 82.746094 "/>
<path style=" stroke:none;fill-rule:nonzero;fill:rgb(12.548828%,11.759949%,12.548828%);fill-opacity:1;" d="M 14.566406 84.480469 C 14.566406 84.480469 15.457031 84.742188 15.277344 85.828125 C 15.097656 86.914062 15.246094 88.171875 14.847656 87.496094 C 14.449219 86.820312 12.941406 84.289062 14.566406 84.480469 "/>
<path style=" stroke:none;fill-rule:nonzero;fill:rgb(12.548828%,11.759949%,12.548828%);fill-opacity:1;" d="M 13.457031 87.980469 C 13.457031 87.980469 15.78125 90.441406 14.390625 91.007812 C 14.390625 91.007812 13.453125 88.398438 13.457031 87.980469 "/>
<path style=" stroke:none;fill-rule:nonzero;fill:rgb(12.548828%,11.759949%,12.548828%);fill-opacity:1;" d="M 17.46875 91.722656 C 17.46875 91.722656 18.769531 91.910156 17.859375 92.902344 C 16.949219 93.890625 16.460938 93.964844 16.238281 92.375 C 16.019531 90.78125 17.46875 91.722656 17.46875 91.722656 "/>
<path style=" stroke:none;fill-rule:nonzero;fill:rgb(12.548828%,11.759949%,12.548828%);fill-opacity:1;" d="M 19.695312 95.273438 C 19.695312 95.273438 18.46875 95.671875 18.535156 96.679688 C 18.601562 97.683594 19.226562 99.617188 20.128906 98.960938 C 21.035156 98.304688 21.054688 97.050781 19.695312 95.273438 "/>
<path style=" stroke:none;fill-rule:nonzero;fill:rgb(12.548828%,11.759949%,12.548828%);fill-opacity:1;" d="M 25.679688 103.394531 C 25.679688 103.394531 25.65625 104.984375 23.722656 103.617188 C 21.792969 102.25 23.257812 102.1875 23.257812 102.1875 C 23.257812 102.1875 25.191406 103.554688 25.679688 103.394531 "/>
<path style=" stroke:none;fill-rule:nonzero;fill:rgb(12.548828%,11.759949%,12.548828%);fill-opacity:1;" d="M 32.09375 98.71875 C 32.09375 98.71875 29.566406 99.179688 29.621094 100.855469 C 29.679688 102.53125 29.65625 104.203125 28.75 104.859375 C 28.75 104.859375 32.613281 102.15625 32.09375 98.71875 "/>
<path style=" stroke:none;fill-rule:nonzero;fill:rgb(12.548828%,11.759949%,12.548828%);fill-opacity:1;" d="M 34.425781 89.546875 C 34.425781 89.546875 35.394531 89.898438 35.371094 91.738281 C 35.34375 93.578125 34.6875 93.820312 34.292969 92.976562 C 33.898438 92.132812 33.117188 89.949219 34.425781 89.546875 "/>
<path style=" stroke:none;fill-rule:nonzero;fill:rgb(12.548828%,11.759949%,12.548828%);fill-opacity:1;" d="M 32.914062 81.726562 C 32.914062 81.726562 33.730469 81.335938 34.289062 82.183594 L 34.242188 85.359375 C 34.242188 85.359375 33.6875 84.347656 32.710938 84.417969 L 32.914062 81.726562 "/>
<path style=" stroke:none;fill-rule:nonzero;fill:rgb(12.548828%,11.759949%,12.548828%);fill-opacity:1;" d="M 35.742188 82.871094 C 35.742188 82.871094 34.417969 84.277344 36.097656 86.308594 C 36.097656 86.308594 35.964844 84.300781 35.742188 82.871094 "/>
<path style=" stroke:none;fill-rule:nonzero;fill:rgb(12.548828%,11.759949%,12.548828%);fill-opacity:1;" d="M 33.53125 72.949219 C 33.53125 72.949219 32.496094 71.445312 31.746094 72.605469 C 31.746094 72.605469 32.375 73.953125 32.53125 74.457031 C 32.53125 74.457031 33.675781 73.972656 34.078125 74.394531 L 33.53125 72.949219 "/>
<path style=" stroke:none;fill-rule:nonzero;fill:rgb(75.289917%,84.309387%,93.728638%);fill-opacity:1;" d="M 22.46875 67.195312 L 27.085938 85.085938 C 27.085938 85.085938 25.261719 87.484375 21.6875 87.011719 L 17.070312 68.957031 C 17.070312 68.957031 18.890625 66.972656 22.46875 67.195312 "/>
</g>
</svg>
