<?xml version="1.0" encoding="UTF-8"?>
<svg xmlns="http://www.w3.org/2000/svg" xmlns:xlink="http://www.w3.org/1999/xlink" width="75pt" height="112.499997pt" viewBox="0 0 75 112.499997" version="1.2">
<defs>
<clipPath id="clip1">
  <path d="M 0.164062 7.46875 L 74.085938 7.46875 L 74.085938 75.414062 L 0.164062 75.414062 Z M 0.164062 7.46875 "/>
</clipPath>
<clipPath id="clip2">
  <path d="M 25 20.105469 L 56 20.105469 L 56 38 L 25 38 Z M 25 20.105469 "/>
</clipPath>
<clipPath id="clip3">
  <path d="M 11 68.941406 L 65.191406 68.941406 L 65.191406 112.003906 L 11 112.003906 Z M 11 68.941406 "/>
</clipPath>
<clipPath id="clip4">
  <path d="M 36.816406 82.457031 L 59.273438 82.457031 L 59.273438 112.003906 L 36.816406 112.003906 Z M 36.816406 82.457031 "/>
</clipPath>
</defs>
<g id="surface1">
<g clip-path="url(#clip1)" clip-rule="nonzero">
<path style=" stroke:none;fill-rule:nonzero;fill:rgb(96.469116%,76.858521%,43.919373%);fill-opacity:1;" d="M 72.527344 33.128906 C 70.992188 28.492188 72.46875 31.058594 68.851562 24.300781 C 66.640625 20.1875 64.023438 16.296875 60.164062 13.707031 C 57.605469 11.992188 54.964844 10.339844 52.058594 9.507812 C 47.941406 8.363281 43.75 7.695312 39.484375 7.503906 C 37.59375 7.566406 35.722656 7.765625 33.863281 8.105469 C 31.339844 8.707031 28.921875 9.585938 26.601562 10.742188 C 19.101562 13.21875 11.042969 20.148438 6.914062 26.113281 C 5.089844 28.957031 3.445312 31.894531 1.96875 34.929688 C 0.195312 39.453125 0.34375 43.902344 1.027344 48.640625 C 1.542969 51.996094 2.566406 55.195312 4.097656 58.238281 C 5.21875 60.515625 6.730469 62.5 8.632812 64.195312 C 10.585938 66.195312 12.742188 67.953125 15.105469 69.464844 C 16.367188 70.371094 17.679688 71.203125 19.035156 71.964844 C 19.738281 72.34375 21.335938 73.183594 22.203125 73.578125 C 23.964844 74.421875 25.816406 74.929688 27.761719 75.101562 C 29.804688 75.3125 31.851562 75.414062 33.902344 75.40625 C 34.632812 75.40625 36.527344 75.308594 38.03125 75.125 C 43.105469 74.5 54 71.316406 58.757812 68.589844 C 65.253906 64.910156 69.375 59.890625 71.261719 55.3125 C 71.261719 55.234375 72.4375 52.433594 72.359375 52.609375 C 73.507812 48.691406 74.089844 44.691406 74.101562 40.609375 C 73.777344 38.074219 73.253906 35.582031 72.527344 33.128906 Z M 72.527344 33.128906 "/>
</g>
<path style=" stroke:none;fill-rule:nonzero;fill:rgb(82.348633%,57.249451%,52.159119%);fill-opacity:1;" d="M 20.097656 96.183594 C 20.097656 96.183594 17.875 89.34375 19.371094 86.917969 C 19.371094 86.917969 21.753906 84.085938 21.632812 78.175781 C 21.632812 78.175781 20.179688 75.589844 19.167969 78.339844 L 19.289062 79.957031 L 17.269531 83.316406 C 17.269531 83.316406 8.699219 85.5 8.78125 85.785156 C 8.863281 86.066406 11.8125 89.425781 12.175781 89.628906 C 12.539062 89.832031 12.824219 92.703125 13.1875 93.148438 C 13.550781 93.59375 15.207031 108.683594 17.105469 109.65625 L 21.996094 99.945312 L 20.097656 96.183594 "/>
<g clip-path="url(#clip2)" clip-rule="nonzero">
<path style=" stroke:none;fill-rule:nonzero;fill:rgb(88.62915%,33.329773%,11.759949%);fill-opacity:1;" d="M 38.726562 20.136719 C 42.175781 20.289062 45.601562 21.804688 48.628906 23.269531 C 51.882812 24.847656 54.195312 26.851562 54.976562 30.433594 C 54.976562 30.433594 56.109375 35.613281 54.976562 36.988281 C 53.847656 38.363281 25.339844 29.875 25.3125 29.867188 C 24.972656 29.765625 27.226562 25.730469 27.382812 25.511719 C 29.601562 22.449219 33.011719 20.664062 36.734375 20.207031 C 37.398438 20.128906 38.0625 20.105469 38.726562 20.136719 "/>
</g>
<path style=" stroke:none;fill-rule:nonzero;fill:rgb(81.17981%,35.289001%,41.178894%);fill-opacity:1;" d="M 13.832031 28.492188 C 13.832031 28.492188 36.628906 26.144531 59.019531 37.394531 C 59.019531 37.394531 74.78125 45.242188 72.195312 50.582031 C 72.195312 50.582031 73.628906 55.582031 49.753906 56.847656 C 39.933594 57.367188 29.902344 55.402344 20.894531 51.480469 C 15.019531 48.921875 8.65625 45.734375 5.058594 40.179688 C 0.222656 32.714844 7.375 29.328125 13.832031 28.492188 "/>
<path style=" stroke:none;fill-rule:nonzero;fill:rgb(82.348633%,57.249451%,52.159119%);fill-opacity:1;" d="M 52.417969 70.652344 C 52.417969 70.652344 48.375 54.84375 49.9375 51.609375 C 50.660156 50.117188 49.492188 47.902344 48.855469 46.585938 C 47.804688 44.414062 46.503906 42.359375 45.148438 40.367188 C 44.503906 39.417969 43.972656 38.34375 43.160156 37.523438 C 42.390625 36.742188 41.429688 36.171875 40.457031 35.6875 C 36.800781 33.867188 32.738281 33.101562 28.671875 33.3125 C 27.660156 33.367188 26.140625 33.378906 25.6875 34.507812 C 25.152344 35.855469 22.941406 42.058594 24.179688 46.160156 C 24.179688 46.160156 24.613281 47.128906 24.34375 49.289062 C 24.074219 51.445312 24.503906 55.167969 26.066406 57.378906 C 26.066406 57.378906 27.46875 60.507812 27.628906 60.78125 C 27.789062 61.050781 28.976562 63.367188 28.921875 63.585938 C 28.867188 63.800781 30.054688 66.066406 35.011719 64.71875 C 35.011719 64.71875 37.007812 70.304688 35.738281 71.960938 C 34.472656 73.617188 27.304688 85.273438 27.304688 85.273438 L 29.945312 87.160156 L 41.800781 81.65625 L 48.539062 77.503906 L 52.417969 70.652344 "/>
<g clip-path="url(#clip3)" clip-rule="nonzero">
<path style=" stroke:none;fill-rule:nonzero;fill:rgb(98.039246%,86.669922%,79.998779%);fill-opacity:1;" d="M 65.164062 128.429688 C 65.164062 128.429688 60.394531 75.101562 52.875 69.84375 C 45.359375 64.582031 28.949219 84.570312 28.949219 84.570312 C 28.949219 84.570312 35.738281 72.785156 35.738281 71.960938 C 35.738281 71.136719 18.683594 89.667969 16.339844 106.660156 L 11.003906 128.429688 L 65.164062 128.429688 "/>
</g>
<path style=" stroke:none;fill-rule:nonzero;fill:rgb(82.348633%,57.249451%,52.159119%);fill-opacity:1;" d="M 18.820312 82.21875 L 16.636719 80 L 13.671875 79.222656 C 13.671875 79.222656 12.339844 79.796875 12.175781 79.917969 C 12.015625 80.039062 10.558594 82.21875 10.558594 82.21875 L 10.558594 83.882812 L 12.175781 85.015625 L 14.480469 85.015625 L 18.480469 83.398438 L 18.820312 82.21875 "/>
<g clip-path="url(#clip4)" clip-rule="nonzero">
<path style=" stroke:none;fill-rule:nonzero;fill:rgb(98.81897%,88.62915%,83.139038%);fill-opacity:1;" d="M 57.160156 87.644531 C 62.554688 93.605469 55.785156 128.429688 55.785156 128.429688 L 36.871094 128.429688 C 36.871094 128.429688 37.839844 126.40625 37.03125 113.621094 C 36.222656 100.835938 38.730469 89.585938 38.730469 89.585938 C 38.730469 89.585938 45.734375 75.023438 57.160156 87.644531 "/>
</g>
<path style=" stroke:none;fill-rule:nonzero;fill:rgb(85.488892%,60.778809%,57.249451%);fill-opacity:1;" d="M 12.214844 77.382812 C 12.214844 77.382812 14.910156 73.792969 16.015625 74.28125 C 16.9375 74.683594 17.789062 75.339844 18.597656 75.929688 C 19.308594 76.445312 20.5 76.972656 20.828125 77.851562 C 21.261719 79.003906 19.871094 79.699219 18.953125 79.1875 C 17.496094 78.378906 16.175781 77.273438 16.042969 77.300781 C 15.90625 77.328125 15.828125 77.679688 15.828125 77.679688 C 15.828125 77.679688 15.558594 78.054688 15.367188 78.054688 C 15.179688 78.054688 12.753906 78.082031 12.648438 78.082031 C 12.539062 78.082031 11.675781 77.652344 11.675781 77.652344 L 12.214844 77.382812 "/>
<path style=" stroke:none;fill-rule:nonzero;fill:rgb(85.488892%,60.778809%,57.249451%);fill-opacity:1;" d="M 9.410156 82.890625 C 9.441406 82.9375 9.472656 82.980469 9.496094 83.03125 C 9.664062 83.390625 9.335938 83.582031 9.105469 83.785156 C 8.878906 83.984375 8.734375 84.261719 8.664062 84.554688 C 8.542969 85.035156 8.539062 85.664062 8.945312 86.023438 C 9.445312 86.464844 10.113281 86.671875 10.707031 86.3125 C 10.839844 86.234375 10.964844 86.148438 11.105469 86.09375 C 11.347656 85.996094 11.59375 86.074219 11.84375 86.070312 C 12.125 86.0625 12.40625 86.023438 12.691406 86.027344 C 13.351562 86.039062 14.011719 86.050781 14.667969 86.058594 C 15.378906 86.070312 16.089844 86.101562 16.800781 86.105469 C 17.203125 86.109375 17.6875 86.234375 17.9375 85.867188 C 18.398438 85.179688 17.496094 84.78125 16.957031 84.625 C 15.019531 84.058594 14.398438 84.113281 14.398438 84.113281 L 12.808594 83.734375 L 10.921875 83.492188 L 14.019531 83.355469 L 19.328125 85.351562 C 19.328125 85.351562 21.027344 85.972656 21.269531 85.191406 C 21.511719 84.410156 20.785156 84.03125 20.785156 84.03125 C 20.785156 84.03125 16.5 81.550781 16.5 81.550781 C 15.816406 81.210938 15.089844 80.714844 14.355469 80.515625 C 13.882812 80.390625 13.347656 80.46875 12.863281 80.46875 C 12.863281 80.46875 12 80.46875 12 80.46875 C 12.285156 80.472656 12.648438 80.25 12.929688 80.179688 C 13.238281 80.105469 13.558594 80.066406 13.867188 80.140625 C 14.582031 80.304688 15.25 80.621094 15.933594 80.875 C 16.566406 81.109375 17.203125 81.34375 17.8125 81.632812 C 18.507812 81.960938 19.109375 82.4375 19.765625 82.824219 C 20.097656 83.015625 20.433594 83.199219 20.765625 83.386719 C 20.964844 83.496094 21.652344 84.042969 21.863281 84.003906 C 21.863281 84.003906 23.371094 83.734375 22.210938 82.277344 C 21.40625 81.261719 20.285156 80.585938 19.195312 79.917969 C 18.308594 79.371094 17.449219 78.804688 16.683594 78.09375 C 16.1875 77.628906 15.324219 77.710938 14.667969 77.664062 C 13.765625 77.605469 12.839844 77.558594 11.933594 77.609375 C 11.207031 77.648438 10.789062 77.875 10.1875 78.304688 C 10.066406 78.390625 9.941406 78.484375 9.875 78.621094 C 9.734375 78.902344 9.761719 79.304688 9.714844 79.613281 C 9.652344 80.03125 9.570312 80.453125 9.4375 80.855469 C 9.34375 81.144531 9.226562 81.425781 9.164062 81.71875 C 9.113281 81.957031 9.09375 82.261719 9.160156 82.496094 C 9.203125 82.648438 9.316406 82.765625 9.410156 82.890625 "/>
<path style=" stroke:none;fill-rule:nonzero;fill:rgb(97.24884%,89.7995%,81.959534%);fill-opacity:1;" d="M 28.019531 33.351562 C 28.019531 33.351562 26.117188 33.28125 25.636719 34.636719 C 25.15625 35.992188 24.886719 36.859375 24.886719 36.859375 C 24.886719 36.859375 27.628906 33.375 28.019531 33.351562 "/>
<path style=" stroke:none;fill-rule:nonzero;fill:rgb(97.24884%,89.7995%,81.959534%);fill-opacity:1;" d="M 34.300781 33.664062 C 35.339844 34.417969 36.355469 35.210938 37.351562 36.027344 C 38.914062 37.304688 40.566406 38.523438 41.824219 40.128906 C 42.535156 41.042969 43.042969 42.105469 43.363281 43.214844 C 43.617188 44.101562 44.074219 50.273438 45.925781 49.449219 C 47.378906 48.804688 48.855469 46.585938 48.855469 46.585938 C 48.855469 46.585938 44.347656 38.03125 42.402344 36.859375 C 42.402344 36.859375 38.882812 34.304688 34.300781 33.664062 "/>
<path style=" stroke:none;fill-rule:nonzero;fill:rgb(78.42865%,19.219971%,23.919678%);fill-opacity:1;" d="M 30.214844 56.988281 C 30.214844 56.988281 30.867188 55.921875 31.871094 56.433594 C 32.878906 56.945312 33.867188 57.207031 34.113281 57.3125 C 34.363281 57.417969 36.316406 56.980469 36.445312 56.800781 C 36.574219 56.621094 34.992188 58.589844 34.894531 58.835938 C 34.796875 59.085938 34.148438 60.730469 32.695312 60.617188 C 31.246094 60.507812 29.261719 61.453125 29.3125 59.28125 C 29.3125 59.28125 27.050781 56.546875 30.214844 56.988281 "/>
<path style=" stroke:none;fill-rule:nonzero;fill:rgb(74.508667%,10.978699%,17.649841%);fill-opacity:1;" d="M 29.3125 59.28125 L 30.230469 59.042969 C 30.378906 59.003906 30.523438 58.953125 30.660156 58.894531 C 30.792969 58.84375 30.921875 58.765625 30.972656 58.699219 L 31.03125 58.621094 L 31.15625 58.628906 C 31.636719 58.667969 32.144531 58.652344 32.621094 58.582031 C 33.105469 58.515625 33.570312 58.355469 33.957031 58 C 33.746094 58.496094 33.21875 58.8125 32.703125 58.957031 C 32.175781 59.105469 31.640625 59.113281 31.101562 59.042969 L 31.285156 58.976562 C 31.113281 59.140625 30.941406 59.195312 30.777344 59.242188 C 30.609375 59.28125 30.445312 59.304688 30.28125 59.320312 C 29.957031 59.351562 29.628906 59.332031 29.3125 59.28125 "/>
<path style=" stroke:none;fill-rule:nonzero;fill:rgb(12.939453%,11.369324%,11.369324%);fill-opacity:1;" d="M 33.707031 54.265625 C 33.707031 54.359375 33.628906 54.433594 33.535156 54.433594 C 33.445312 54.433594 33.367188 54.359375 33.367188 54.265625 C 33.367188 54.171875 33.445312 54.097656 33.535156 54.097656 C 33.628906 54.097656 33.707031 54.171875 33.707031 54.265625 "/>
<path style=" stroke:none;fill-rule:nonzero;fill:rgb(12.939453%,11.369324%,11.369324%);fill-opacity:1;" d="M 31.742188 45.640625 C 31.714844 45.613281 31.699219 45.574219 31.683594 45.539062 C 31.371094 44.789062 31.605469 44.613281 32.304688 44.410156 C 33.570312 44.046875 34.832031 43.667969 36.09375 43.304688 C 36.09375 43.304688 38.601562 42.324219 40.785156 45.121094 C 40.355469 44.570312 38.96875 44.257812 38.339844 44.136719 C 37.199219 43.925781 36.09375 44.449219 35.050781 44.832031 C 34.042969 45.203125 32.976562 45.453125 31.933594 45.671875 C 31.882812 45.683594 31.828125 45.691406 31.78125 45.671875 C 31.765625 45.664062 31.75 45.652344 31.742188 45.640625 "/>
<path style=" stroke:none;fill-rule:nonzero;fill:rgb(12.939453%,11.369324%,11.369324%);fill-opacity:1;" d="M 27.722656 46.339844 C 27.410156 45.417969 27.164062 45.105469 26.15625 45.042969 C 25.851562 45.027344 23.519531 44.921875 23.863281 45.671875 C 23.964844 45.894531 25.570312 45.746094 25.835938 45.765625 C 26.464844 45.8125 27.234375 45.886719 27.722656 46.339844 "/>
<path style=" stroke:none;fill-rule:nonzero;fill:rgb(85.488892%,60.778809%,57.249451%);fill-opacity:1;" d="M 35.011719 64.71875 C 36.609375 64.019531 38.1875 63.289062 39.738281 62.503906 C 41.277344 61.710938 42.808594 60.875 44.179688 59.835938 C 44.855469 59.324219 45.535156 58.769531 45.980469 58.074219 C 46.441406 57.363281 46.796875 56.558594 47.15625 55.777344 C 47.847656 54.191406 48.40625 52.539062 48.855469 50.851562 C 48.582031 52.578125 48.105469 54.269531 47.46875 55.90625 C 47.148438 56.726562 46.789062 57.523438 46.320312 58.285156 C 45.832031 59.070312 45.132812 59.644531 44.441406 60.1875 C 43.011719 61.222656 41.46875 62.070312 39.882812 62.804688 C 38.296875 63.535156 36.675781 64.1875 35.011719 64.71875 "/>
<path style=" stroke:none;fill-rule:nonzero;fill:rgb(84.309387%,49.409485%,26.269531%);fill-opacity:1;" d="M 32.472656 49.355469 C 33.191406 51.320312 35.410156 52.308594 37.433594 51.566406 C 39.453125 50.824219 40.511719 48.636719 39.792969 46.671875 C 39.078125 44.710938 36.855469 43.722656 34.835938 44.464844 C 32.8125 45.203125 31.753906 47.394531 32.472656 49.355469 "/>
<path style=" stroke:none;fill-rule:nonzero;fill:rgb(84.309387%,49.409485%,26.269531%);fill-opacity:1;" d="M 39.078125 46.292969 L 47.542969 44.132812 L 48.183594 45.273438 C 48.183594 45.273438 39.257812 46.777344 38.316406 47.492188 C 37.378906 48.203125 39.078125 46.292969 39.078125 46.292969 "/>
<path style=" stroke:none;fill-rule:nonzero;fill:rgb(84.309387%,49.409485%,26.269531%);fill-opacity:1;" d="M 32.835938 47.335938 L 31.070312 47.167969 L 28.804688 47.996094 L 28.9375 48.355469 L 30.820312 47.664062 L 32.359375 47.855469 L 32.835938 47.335938 "/>
<path style=" stroke:none;fill-rule:nonzero;fill:rgb(84.309387%,49.409485%,26.269531%);fill-opacity:1;" d="M 29.214844 47.410156 C 28.839844 46.6875 28.304688 46.003906 27.425781 45.6875 C 26.292969 45.277344 24.785156 45.199219 23.804688 46.261719 C 22.34375 47.847656 22.050781 50.308594 22.824219 51.863281 C 23.304688 52.835938 24.566406 53.035156 25.753906 53.234375 C 26.421875 53.34375 27.214844 53.652344 27.871094 53.105469 C 28.28125 52.765625 28.511719 52.285156 28.671875 51.863281 C 28.8125 51.492188 29.0625 51.273438 29.300781 50.925781 C 29.539062 50.585938 29.84375 50.171875 29.894531 49.800781 C 29.980469 49.160156 29.71875 48.519531 29.480469 47.960938 C 29.398438 47.78125 29.3125 47.59375 29.214844 47.410156 "/>
<path style=" stroke:none;fill-rule:nonzero;fill:rgb(71.369934%,45.098877%,40.388489%);fill-opacity:1;" d="M 30.417969 48.761719 C 29.933594 49.890625 29.371094 50.980469 28.816406 52.070312 L 28.820312 52.0625 C 28.628906 52.578125 28.523438 53.203125 28.785156 53.683594 C 28.917969 53.917969 29.152344 54.09375 29.429688 54.171875 C 29.699219 54.265625 29.996094 54.285156 30.289062 54.292969 C 29.996094 54.320312 29.699219 54.335938 29.402344 54.273438 C 29.105469 54.214844 28.820312 54.035156 28.644531 53.769531 C 28.464844 53.503906 28.421875 53.175781 28.4375 52.875 C 28.453125 52.566406 28.511719 52.273438 28.621094 51.980469 L 28.621094 51.976562 L 28.625 51.972656 C 29.199219 50.890625 29.769531 49.804688 30.417969 48.761719 "/>
<path style=" stroke:none;fill-rule:nonzero;fill:rgb(16.468811%,8.239746%,8.239746%);fill-opacity:1;" d="M 30.289062 53.945312 C 30.277344 53.917969 30.308594 53.890625 30.355469 53.851562 C 30.460938 53.753906 30.652344 53.621094 30.792969 53.582031 C 31.121094 53.5 31.382812 53.730469 31.554688 53.988281 C 31.621094 54.089844 31.425781 54.09375 31.378906 54.074219 C 31.226562 54.007812 31.066406 53.832031 30.894531 53.824219 C 30.707031 53.8125 30.550781 54.097656 30.347656 53.992188 C 30.3125 53.972656 30.296875 53.957031 30.289062 53.945312 "/>
<path style=" stroke:none;fill-rule:nonzero;fill:rgb(78.42865%,19.219971%,23.919678%);fill-opacity:1;" d="M 18.820312 78.460938 C 18.820312 78.460938 19.773438 77.328125 19.773438 77.328125 C 20.085938 77.574219 20.398438 77.820312 20.710938 78.066406 C 20.960938 78.265625 21.308594 78.46875 21.445312 78.78125 C 21.597656 79.136719 21.339844 79.644531 20.996094 79.789062 C 20.554688 79.972656 20.09375 79.539062 19.800781 79.269531 C 19.707031 79.1875 18.855469 78.417969 18.820312 78.460938 "/>
<path style=" stroke:none;fill-rule:nonzero;fill:rgb(78.42865%,19.219971%,23.919678%);fill-opacity:1;" d="M 20.859375 83.015625 C 20.863281 83.015625 21.652344 82.152344 21.652344 82.152344 C 21.996094 82.457031 22.332031 82.765625 22.683594 83.054688 C 22.945312 83.269531 22.921875 83.691406 22.714844 83.933594 C 22.496094 84.179688 22.210938 84.074219 21.960938 83.929688 C 21.863281 83.875 20.855469 83.023438 20.859375 83.015625 "/>
<path style=" stroke:none;fill-rule:nonzero;fill:rgb(78.42865%,19.219971%,23.919678%);fill-opacity:1;" d="M 19.695312 84.914062 L 20.15625 84.074219 C 20.183594 84.03125 21.828125 84.871094 21.945312 85.046875 C 22.179688 85.386719 21.949219 85.921875 21.492188 85.785156 C 20.757812 85.566406 19.695312 84.914062 19.695312 84.914062 "/>
<path style=" stroke:none;fill-rule:nonzero;fill:rgb(78.42865%,19.219971%,23.919678%);fill-opacity:1;" d="M 16.742188 85.601562 C 16.742188 85.601562 16.820312 84.964844 16.824219 84.9375 C 16.824219 84.949219 17.769531 85.121094 17.839844 85.132812 C 18.117188 85.183594 18.757812 85.183594 18.734375 85.621094 C 18.730469 85.722656 18.648438 85.8125 18.550781 85.855469 C 18.386719 85.929688 18.15625 85.929688 17.976562 85.925781 C 17.886719 85.925781 16.746094 85.796875 16.742188 85.804688 C 16.742188 85.804688 16.742188 85.601562 16.742188 85.601562 "/>
</g>
</svg>
