<?xml version="1.0" encoding="UTF-8"?>
<svg xmlns="http://www.w3.org/2000/svg" xmlns:xlink="http://www.w3.org/1999/xlink" width="75pt" height="112.499997pt" viewBox="0 0 75 112.499997" version="1.2">
<defs>
<clipPath id="clip1">
  <path d="M 1 15 L 74 15 L 74 80.550781 L 1 80.550781 Z M 1 15 "/>
</clipPath>
<clipPath id="clip2">
  <path d="M 5.304688 62.28125 L 60.433594 62.28125 L 60.433594 112.003906 L 5.304688 112.003906 Z M 5.304688 62.28125 "/>
</clipPath>
<clipPath id="clip3">
  <path d="M 19 31 L 62.449219 31 L 62.449219 71 L 19 71 Z M 19 31 "/>
</clipPath>
<clipPath id="clip4">
  <path d="M 23 73 L 60 73 L 60 112.003906 L 23 112.003906 Z M 23 73 "/>
</clipPath>
</defs>
<g id="surface1">
<g clip-path="url(#clip1)" clip-rule="nonzero">
<path style=" stroke:none;fill-rule:nonzero;fill:rgb(96.078491%,47.44873%,50.588989%);fill-opacity:1;" d="M 25.375 80.53125 C 22.570312 80.457031 19.804688 80.089844 17.082031 79.433594 C 8.441406 77.207031 3.492188 70.234375 2.078125 61.777344 C 0.429688 51.875 2.078125 46.957031 5.808594 41.496094 C 10.925781 34.023438 16.792969 31.523438 22.023438 28.683594 C 24.328125 27.445312 45.585938 9.632812 60.347656 16.652344 C 67.425781 20 69.1875 28.183594 70.382812 35.890625 C 73.308594 54.769531 74.550781 60.078125 73.710938 64.828125 C 72.710938 70.464844 67.992188 73.558594 62.550781 75.722656 C 54.148438 79.046875 45.105469 79.929688 36.289062 80.4375 C 34.144531 80.546875 26.550781 80.578125 25.375 80.53125 Z M 25.375 80.53125 "/>
</g>
<g clip-path="url(#clip2)" clip-rule="nonzero">
<path style=" stroke:none;fill-rule:nonzero;fill:rgb(91.758728%,64.709473%,61.178589%);fill-opacity:1;" d="M 4.660156 112.347656 C 4.660156 112.347656 13.378906 112.347656 15.503906 112.347656 C 18.910156 105.890625 20.480469 97.246094 20.480469 97.246094 C 22.484375 99.289062 25.949219 112.347656 25.949219 112.347656 L 60.394531 112.347656 L 57.578125 100.601562 L 56.667969 103.636719 C 56.710938 98.644531 54.765625 90.1875 54.503906 89.667969 C 54.175781 89.023438 54.125 87.25 54.609375 85.527344 C 55.097656 83.808594 54.71875 82.195312 53.90625 80.90625 C 53.09375 79.617188 50.386719 78.863281 49.84375 78.597656 C 49.300781 78.328125 47.078125 78.058594 46.433594 77.898438 C 45.789062 77.734375 44.535156 74.1875 44.695312 73.328125 C 44.859375 72.46875 45.503906 69.40625 45.503906 69.40625 C 45.503906 69.40625 42.3125 63.332031 41.164062 62.707031 C 40.011719 62.078125 35.160156 62.042969 33.425781 65.804688 C 31.695312 69.566406 28.28125 72.84375 26.4375 73.597656 C 24.597656 74.347656 23.351562 73.488281 19.179688 74.1875 C 15.007812 74.886719 13.328125 80.046875 10.238281 90.203125 C 7.152344 100.363281 4.660156 112.347656 4.660156 112.347656 "/>
</g>
<g clip-path="url(#clip3)" clip-rule="nonzero">
<path style=" stroke:none;fill-rule:nonzero;fill:rgb(19.60907%,21.569824%,21.179199%);fill-opacity:1;" d="M 57.546875 66.539062 C 57.546875 66.539062 57.90625 66.976562 59.308594 68.050781 C 59.320312 68.0625 59.335938 68.070312 59.347656 68.078125 C 59.296875 68.175781 59.242188 68.269531 59.1875 68.355469 C 58.15625 67.675781 57.546875 66.539062 57.546875 66.539062 Z M 59.808594 66.992188 C 58.773438 65.917969 58.078125 64.355469 57.984375 64.074219 C 57.824219 63.597656 57.984375 63.238281 59.109375 61.292969 C 59.214844 61.109375 59.308594 60.921875 59.394531 60.734375 C 60.335938 63.578125 60.238281 65.601562 59.808594 66.992188 Z M 19.996094 62.757812 C 19.84375 61.375 20.441406 59.742188 20.441406 59.742188 C 19.679688 63.796875 22.667969 66.339844 22.667969 66.339844 C 22.292969 65.945312 21.882812 64.789062 21.882812 64.789062 C 22.324219 65.585938 23.6875 66.539062 23.6875 66.539062 C 23.125 65.878906 22.484375 64.234375 22.484375 64.234375 C 22.484375 64.234375 22.84375 65.109375 23.527344 65.664062 C 24.207031 66.222656 24.285156 67.535156 24.285156 67.535156 C 24.285156 67.535156 24.703125 66.632812 24.703125 65.503906 C 24.703125 65.503906 25.03125 66.683594 24.898438 67.582031 C 25.613281 67.640625 26.941406 67.753906 28.816406 67.929688 C 31.742188 68.210938 37.832031 68.886719 37.832031 68.886719 C 36.628906 67.851562 36 65.589844 36 65.589844 C 36.390625 66.328125 37.835938 67.0625 37.835938 67.0625 C 37.835938 67.0625 37.835938 67.0625 36.910156 65.636719 C 35.984375 64.210938 36 63.523438 36 63.523438 C 36.804688 64.625 39.089844 66.234375 39.089844 66.234375 C 39.527344 66.136719 40.082031 66.023438 40.53125 66.046875 C 43.246094 66.175781 45.949219 66.558594 48.589844 67.183594 L 48.851562 67.292969 C 50.773438 69.042969 58.144531 70.753906 58.144531 70.753906 C 57.222656 70.277344 57.144531 69.441406 57.304688 68.648438 C 57.464844 67.851562 57.304688 67.214844 57.304688 67.214844 C 57.796875 67.917969 58.523438 68.300781 59.089844 68.507812 C 58.558594 69.28125 58.027344 69.601562 58.027344 69.601562 C 58.714844 69.46875 59.261719 69.144531 59.6875 68.679688 C 59.851562 68.714844 59.949219 68.726562 59.949219 68.726562 C 59.871094 68.699219 59.796875 68.671875 59.722656 68.640625 C 59.792969 68.558594 59.863281 68.472656 59.925781 68.382812 C 61.160156 68.800781 62.394531 67.929688 62.394531 67.929688 C 61.675781 68.171875 61.003906 67.953125 60.40625 67.523438 C 62.078125 63.605469 59.914062 55.671875 59.875 55.53125 C 59.820312 54.574219 60.085938 53.117188 60.148438 51.632812 C 60.230469 49.765625 59.546875 47.777344 59.546875 47.777344 C 60.550781 48.96875 60.589844 52.070312 60.589844 52.070312 C 60.789062 50.359375 60.230469 47.539062 59.347656 45.550781 C 58.464844 43.5625 55.421875 36.488281 50.53125 33.785156 C 45.644531 31.082031 42.878906 33.308594 42.878906 33.308594 C 38.671875 29.292969 35.507812 32.511719 33.0625 33.308594 C 30.617188 34.101562 27.691406 40.144531 25.488281 42.847656 C 23.285156 45.550781 22.683594 50.957031 22.964844 52.230469 C 23.246094 53.5 22.667969 55.132812 22.667969 55.132812 C 23.707031 54.152344 23.324219 52.945312 23.484375 51.355469 C 23.644531 49.765625 24.328125 48.253906 24.328125 48.253906 C 24.488281 49.40625 24.246094 54.496094 22.125 55.765625 C 20 57.039062 19.929688 59.382812 19.929688 59.382812 C 20.183594 58.351562 21.402344 56.960938 21.402344 56.960938 C 19.707031 59.136719 19.886719 61.882812 19.996094 62.757812 Z M 20.027344 62.964844 C 20.015625 62.898438 20.003906 62.828125 19.996094 62.757812 C 20.007812 62.847656 20.019531 62.917969 20.027344 62.964844 Z M 20.039062 63.042969 C 20.035156 63.015625 20.03125 62.988281 20.027344 62.964844 C 20.035156 63.011719 20.039062 63.042969 20.039062 63.042969 "/>
</g>
<path style=" stroke:none;fill-rule:nonzero;fill:rgb(94.119263%,73.329163%,69.018555%);fill-opacity:1;" d="M 43.824219 52.128906 C 43.890625 52.007812 43.957031 51.875 44.019531 51.734375 C 43.992188 51.863281 43.976562 52 43.980469 52.132812 C 43.980469 52.140625 43.980469 52.148438 43.980469 52.15625 C 43.929688 52.144531 43.875 52.136719 43.824219 52.128906 Z M 40.570312 65.542969 C 40.386719 63.933594 37.511719 60.808594 37.605469 58.140625 C 37.699219 55.476562 40.292969 53.085938 40.292969 53.085938 C 38.488281 55.535156 38.558594 58.566406 38.660156 59.703125 C 38.519531 57.714844 39.632812 55.574219 41.265625 53.316406 C 41.476562 53.023438 41.542969 52.929688 41.714844 52.652344 C 41.714844 52.652344 42.625 52.835938 42.5625 52.945312 C 41.777344 54.371094 41.742188 58.0625 41.742188 58.0625 C 41.882812 56.40625 42.328125 54.734375 43.378906 52.878906 L 45.75 53.230469 C 45.75 53.230469 45.523438 52.402344 45.125 52.335938 C 45.039062 52.320312 44.839844 52.289062 44.582031 52.25 C 44.398438 52.042969 44.222656 51.84375 44.070312 51.617188 C 44.351562 50.9375 44.558594 50.070312 44.714844 49.140625 C 44.96875 49.132812 45.183594 49.113281 45.324219 49.082031 C 45.949219 48.9375 46.433594 48.3125 46.433594 48.3125 L 44.847656 48.234375 C 45.105469 46.246094 45.167969 44.128906 45.207031 42.894531 C 45.28125 40.664062 46.949219 39.082031 46.949219 39.082031 C 46.949219 39.082031 51.863281 40.371094 52.835938 45.242188 C 53.0625 46.371094 53.257812 47.5 53.445312 48.585938 C 52.652344 48.753906 51.019531 49.144531 51.019531 49.144531 C 51.214844 49.472656 51.992188 49.894531 52.566406 49.785156 C 52.875 49.726562 53.277344 49.648438 53.613281 49.589844 C 53.777344 50.5625 53.933594 51.480469 54.089844 52.308594 C 53.996094 52.320312 53.894531 52.335938 53.789062 52.347656 C 53.859375 52.183594 53.902344 52 54 51.859375 C 53.875 52.039062 53.742188 52.207031 53.605469 52.375 C 53.464844 52.394531 53.324219 52.414062 53.183594 52.433594 C 53.316406 52.253906 53.332031 52.035156 53.457031 51.851562 C 53.332031 52.035156 53.195312 52.210938 53.050781 52.382812 C 53.027344 52.40625 53 52.433594 52.972656 52.460938 C 52.578125 52.515625 52.226562 52.566406 52.058594 52.597656 C 51.59375 52.6875 51.253906 53.242188 51.253906 53.394531 C 51.253906 53.394531 52.683594 53.265625 53.648438 53.179688 C 53.964844 53.152344 54.25 53.363281 54.320312 53.671875 C 54.597656 54.921875 54.902344 55.648438 55.265625 56.007812 C 55.265625 56.007812 54.238281 61.476562 53.320312 62.757812 C 52.402344 64.039062 49.488281 67.734375 49.21875 68.269531 C 48.949219 68.804688 47.546875 69.824219 44.628906 69.289062 C 43.472656 69.074219 41.992188 68.371094 40.542969 67.4375 C 40.617188 67.003906 40.664062 66.363281 40.570312 65.542969 Z M 42.945312 51.953125 C 43.226562 50.914062 43.289062 49.707031 43.304688 49.121094 C 43.28125 49.121094 43.257812 49.117188 43.238281 49.117188 C 43.121094 49.628906 42.832031 50.648438 42.171875 51.871094 C 42.203125 51.878906 42.238281 51.882812 42.277344 51.890625 C 42.386719 51.699219 42.492188 51.511719 42.605469 51.324219 C 42.546875 51.417969 42.738281 51.683594 42.785156 51.757812 C 42.820312 51.808594 42.890625 51.882812 42.945312 51.953125 "/>
<g clip-path="url(#clip4)" clip-rule="nonzero">
<path style=" stroke:none;fill-rule:nonzero;fill:rgb(65.098572%,54.899597%,71.759033%);fill-opacity:1;" d="M 47.625 78.113281 C 51.589844 81.789062 52.792969 85.160156 53.703125 86.867188 C 54.613281 88.574219 57.050781 94.601562 58.101562 97.164062 C 59.15625 99.722656 59.25 101.003906 58.582031 103.378906 C 57.910156 105.75 56.667969 112.347656 56.667969 112.347656 L 25.390625 112.347656 L 23.382812 104.945312 C 24.625 104.660156 28.261719 101.335938 29.40625 98.113281 C 30.554688 94.886719 35.722656 88.953125 35.769531 88.101562 C 35.816406 87.246094 31.367188 79.75 29.789062 76.855469 C 28.210938 73.960938 26.703125 73.476562 26.703125 73.476562 L 27.347656 73.105469 C 30.214844 74.238281 35.863281 86.15625 36.4375 87.367188 C 37.011719 88.582031 38.445312 90.1875 41.460938 92.226562 C 44.472656 94.269531 50.308594 100.007812 50.308594 100.007812 C 50.5 99.25 54.039062 92.988281 54.46875 91.894531 C 54.898438 90.804688 53.988281 89.097656 52.410156 85.726562 C 50.832031 82.359375 46.921875 77.996094 46.921875 77.996094 L 47.625 78.113281 "/>
</g>
<path style=" stroke:none;fill-rule:nonzero;fill:rgb(96.078491%,47.44873%,50.588989%);fill-opacity:1;" d="M 49.957031 62.8125 C 49.957031 62.8125 49.453125 61.347656 49.015625 61.148438 C 48.578125 60.949219 48.277344 61.3125 48.277344 61.3125 C 48.277344 61.3125 47.605469 60.746094 47.167969 60.949219 C 46.734375 61.148438 43.945312 62.578125 43.8125 62.8125 C 43.675781 63.046875 44.550781 64.578125 46.882812 64.613281 C 49.21875 64.644531 49.621094 64.011719 49.957031 62.8125 "/>
</g>
</svg>
