<?xml version="1.0" encoding="UTF-8"?>
<svg xmlns="http://www.w3.org/2000/svg" xmlns:xlink="http://www.w3.org/1999/xlink" width="75pt" height="112.499997pt" viewBox="0 0 75 112.499997" version="1.2">
<defs>
<clipPath id="clip1">
  <path d="M 36 16.140625 L 63 16.140625 L 63 92 L 36 92 Z M 36 16.140625 "/>
</clipPath>
<clipPath id="clip2">
  <path d="M 49 16.140625 L 56 16.140625 L 56 21 L 49 21 Z M 49 16.140625 "/>
</clipPath>
<clipPath id="clip3">
  <path d="M 12 16.140625 L 37 16.140625 L 37 91 L 12 91 Z M 12 16.140625 "/>
</clipPath>
<clipPath id="clip4">
  <path d="M 19 16.140625 L 27 16.140625 L 27 20 L 19 20 Z M 19 16.140625 "/>
</clipPath>
</defs>
<g id="surface1">
<path style=" stroke:none;fill-rule:nonzero;fill:rgb(49.798584%,32.159424%,19.60907%);fill-opacity:1;" d="M 40.464844 36.859375 C 40.464844 36.859375 46.691406 24.1875 57.742188 34.5625 C 57.742188 34.5625 60.894531 45.507812 59.160156 50.785156 C 57.425781 56.0625 52.5625 75.726562 52.417969 79.0625 C 52.269531 82.398438 42.03125 96.1875 39.566406 85.15625 C 37.097656 74.121094 42.523438 64.808594 42.5 64.285156 C 42.476562 63.761719 47.835938 52.484375 41.144531 43.742188 C 41.144531 43.742188 38.097656 38.984375 40.464844 36.859375 "/>
<path style=" stroke:none;fill-rule:nonzero;fill:rgb(72.938538%,57.649231%,41.569519%);fill-opacity:1;" d="M 42.246094 43.824219 C 42.246094 43.824219 40.8125 39.710938 41.644531 36.335938 C 41.644531 36.335938 39.746094 39.402344 40.820312 42.609375 C 40.820312 42.609375 41.351562 44.085938 42.246094 43.824219 "/>
<path style=" stroke:none;fill-rule:nonzero;fill:rgb(75.689697%,61.569214%,46.269226%);fill-opacity:1;" d="M 40.25 81.679688 C 40.25 81.679688 43.707031 85.167969 49.859375 82.851562 L 48.621094 85.425781 C 48.621094 85.425781 44.40625 87.222656 40.746094 84.355469 L 40.25 81.679688 "/>
<path style=" stroke:none;fill-rule:nonzero;fill:rgb(75.689697%,61.569214%,46.269226%);fill-opacity:1;" d="M 58.691406 49.699219 C 58.691406 49.699219 56.164062 55.847656 55.859375 56.726562 C 55.554688 57.605469 53.390625 65.722656 53.242188 69.253906 C 53.09375 72.789062 51.9375 78.367188 51.9375 78.367188 C 51.9375 78.367188 53.320312 77.015625 54.050781 73.785156 C 54.050781 73.785156 54.007812 70.152344 54.757812 65.449219 C 55.507812 60.746094 56.835938 56.546875 58.4375 53.523438 L 58.691406 49.699219 "/>
<path style=" stroke:none;fill-rule:nonzero;fill:rgb(72.938538%,57.649231%,41.569519%);fill-opacity:1;" d="M 58.039062 54.304688 C 58.039062 54.304688 54.75 59.261719 54.050781 67.304688 C 54.050781 67.304688 53.183594 73.183594 54.542969 73.496094 C 54.542969 73.496094 57.816406 62.746094 58.039062 54.304688 "/>
<path style=" stroke:none;fill-rule:nonzero;fill:rgb(72.938538%,57.649231%,41.569519%);fill-opacity:1;" d="M 42.222656 63.429688 C 42.222656 63.429688 38.277344 64.453125 39.390625 72.648438 C 39.390625 72.648438 42.195312 65.324219 42.222656 63.429688 "/>
<path style=" stroke:none;fill-rule:nonzero;fill:rgb(72.938538%,57.649231%,41.569519%);fill-opacity:1;" d="M 40.746094 84.355469 C 40.746094 84.355469 46.304688 86.074219 48.984375 85.132812 C 48.984375 85.132812 47.027344 90.144531 43.785156 89.574219 C 40.546875 89 40.746094 84.355469 40.746094 84.355469 "/>
<g clip-path="url(#clip1)" clip-rule="nonzero">
<path style=" stroke:none;fill-rule:nonzero;fill:rgb(86.268616%,69.018555%,48.629761%);fill-opacity:1;" d="M 42.039062 44.835938 C 42.039062 44.835938 37.722656 42.21875 42.105469 35.738281 C 46.488281 29.253906 54.636719 31.472656 57.046875 35.433594 C 59.457031 39.398438 58.910156 50.257812 58.367188 51.820312 C 57.824219 53.382812 56.230469 64.75 56.210938 66.058594 C 56.191406 67.367188 53.335938 76.097656 50.667969 80.769531 C 48.003906 85.445312 46.902344 89.617188 43.785156 89.574219 C 40.671875 89.523438 37.847656 69.320312 40.238281 65.824219 C 42.625 62.324219 42.476562 63.761719 42.476562 63.761719 L 42.625 62.324219 C 42.625 62.324219 40.542969 62.554688 39.070312 65.675781 C 37.597656 68.792969 36.578125 76.242188 36.566406 77.15625 C 36.550781 78.074219 36.59375 84.097656 39.535156 87.152344 C 39.535156 87.152344 40.90625 91.230469 43.636719 91.011719 C 46.367188 90.789062 49.367188 89.917969 52.984375 82.375 C 56.601562 74.835938 57.398438 64.636719 57.988281 59.933594 C 58.574219 55.230469 62.242188 44.285156 62.257812 43.371094 C 62.269531 42.453125 63.867188 39.726562 61.230469 33.535156 C 58.59375 27.339844 54.851562 16.679688 51.992188 16.902344 C 49.132812 17.121094 31.90625 40.429688 41.949219 46.339844 L 42.039062 44.835938 "/>
</g>
<path style=" stroke:none;fill-rule:nonzero;fill:rgb(12.548828%,11.759949%,12.548828%);fill-opacity:1;" d="M 48.59375 31.710938 C 48.59375 31.710938 48.085938 30.984375 47.699219 30.648438 C 47.316406 30.316406 47.347656 28.09375 49.089844 28.902344 C 50.832031 29.714844 50.242188 29.96875 51.867188 30.058594 C 53.488281 30.144531 52.300781 31.503906 51.515625 31.820312 C 51.515625 31.820312 49.703125 31.269531 48.59375 31.710938 "/>
<path style=" stroke:none;fill-rule:nonzero;fill:rgb(75.689697%,61.569214%,46.269226%);fill-opacity:1;" d="M 41.949219 46.339844 C 41.949219 46.339844 46.09375 51.640625 42.625 62.324219 C 39.160156 73.007812 39.359375 72.550781 39.359375 72.550781 L 39.507812 75.632812 C 39.507812 75.632812 40.800781 71.722656 41.675781 69.707031 C 42.546875 67.691406 46.394531 57.664062 45.554688 52.9375 C 44.714844 48.210938 42.378906 43.726562 42.054688 43.589844 C 41.734375 43.453125 40.109375 42.3125 41.558594 36.570312 C 41.558594 36.570312 38.023438 39.535156 41.390625 44.757812 L 41.949219 46.339844 "/>
<path style=" stroke:none;fill-rule:nonzero;fill:rgb(12.548828%,11.759949%,12.548828%);fill-opacity:1;" d="M 41.816406 33.375 C 41.816406 33.375 40.050781 34.203125 40.101562 35.054688 C 40.15625 35.90625 40.746094 35.390625 41.140625 35.199219 C 41.53125 35.007812 42.703125 34.828125 42.714844 34.042969 C 42.726562 33.257812 41.816406 33.375 41.816406 33.375 "/>
<path style=" stroke:none;fill-rule:nonzero;fill:rgb(12.548828%,11.759949%,12.548828%);fill-opacity:1;" d="M 42.730469 32.929688 C 42.730469 32.929688 43.027344 30.382812 45.480469 31.46875 C 45.480469 31.46875 47.09375 32.144531 44.023438 33.410156 C 44.023438 33.410156 42.785156 33.71875 42.730469 32.929688 "/>
<path style=" stroke:none;fill-rule:nonzero;fill:rgb(12.548828%,11.759949%,12.548828%);fill-opacity:1;" d="M 43.371094 29.011719 C 43.371094 29.011719 41.667969 30.035156 41.984375 30.757812 C 42.296875 31.484375 42.816406 31.492188 43.339844 31.238281 C 43.863281 30.984375 43.285156 30.648438 43.613281 30.457031 C 43.9375 30.265625 44.355469 28.570312 43.371094 29.011719 "/>
<path style=" stroke:none;fill-rule:nonzero;fill:rgb(12.548828%,11.759949%,12.548828%);fill-opacity:1;" d="M 45.527344 23.804688 C 45.527344 23.804688 46.507812 23.496094 46.039062 24.339844 C 45.570312 25.179688 45.316406 24.851562 45.304688 25.570312 C 45.296875 26.289062 44.167969 28.042969 43.332031 27.375 C 43.332031 27.375 44.734375 24.777344 45.527344 23.804688 "/>
<g clip-path="url(#clip2)" clip-rule="nonzero">
<path style=" stroke:none;fill-rule:nonzero;fill:rgb(12.548828%,11.759949%,12.548828%);fill-opacity:1;" d="M 49.035156 19.277344 C 49.035156 19.277344 51.65625 17.613281 52.367188 17.886719 C 53.078125 18.15625 54.476562 20.140625 55.257812 20.089844 C 55.257812 20.089844 53.425781 16.664062 51.992188 16.902344 C 50.5625 17.140625 49.035156 19.277344 49.035156 19.277344 "/>
</g>
<path style=" stroke:none;fill-rule:nonzero;fill:rgb(12.548828%,11.759949%,12.548828%);fill-opacity:1;" d="M 51.945312 20.167969 C 51.945312 20.167969 47.296875 22.652344 49.761719 23.015625 C 52.222656 23.382812 55.4375 21.203125 54.667969 20.40625 C 53.902344 19.609375 51.945312 20.167969 51.945312 20.167969 "/>
<path style=" stroke:none;fill-rule:nonzero;fill:rgb(12.548828%,11.759949%,12.548828%);fill-opacity:1;" d="M 48.40625 26.792969 C 48.40625 26.792969 49.519531 26.089844 49.589844 25.699219 C 49.664062 25.308594 50.71875 24.210938 51.609375 25.203125 C 52.507812 26.199219 52.953125 26.664062 50.792969 27.941406 C 48.628906 29.21875 45.863281 27.605469 48.40625 26.792969 "/>
<path style=" stroke:none;fill-rule:nonzero;fill:rgb(12.548828%,11.759949%,12.548828%);fill-opacity:1;" d="M 53.125 23.917969 C 53.125 23.917969 51.492188 24.417969 52.648438 25.417969 C 53.800781 26.417969 55.761719 25.59375 54.933594 24.535156 C 54.105469 23.476562 53.125 23.917969 53.125 23.917969 "/>
<path style=" stroke:none;fill-rule:nonzero;fill:rgb(12.548828%,11.759949%,12.548828%);fill-opacity:1;" d="M 58.03125 26.019531 C 58.03125 26.019531 58.515625 28.253906 59.160156 28.589844 C 59.160156 28.589844 58.667969 26.816406 58.03125 26.019531 "/>
<path style=" stroke:none;fill-rule:nonzero;fill:rgb(12.548828%,11.759949%,12.548828%);fill-opacity:1;" d="M 56.15625 25.273438 C 56.15625 25.273438 54.730469 25.121094 55.359375 26.570312 C 55.984375 28.019531 57.800781 28.175781 57.875 27.589844 C 57.949219 27 56.738281 25.410156 56.15625 25.273438 "/>
<path style=" stroke:none;fill-rule:nonzero;fill:rgb(12.548828%,11.759949%,12.548828%);fill-opacity:1;" d="M 54.820312 27.742188 C 54.820312 27.742188 53.90625 28.183594 53.824219 29.164062 C 53.75 30.144531 53.730469 31.390625 56.203125 30.96875 C 56.203125 30.96875 57.1875 30.394531 56.230469 29.269531 C 56.230469 29.269531 57.488281 27.519531 54.820312 27.742188 "/>
<path style=" stroke:none;fill-rule:nonzero;fill:rgb(12.548828%,11.759949%,12.548828%);fill-opacity:1;" d="M 56.574219 32.21875 C 56.574219 32.21875 56.53125 30.644531 58.148438 31.128906 C 59.765625 31.609375 59.300781 32.257812 58.777344 32.511719 C 58.253906 32.765625 57.910156 34.136719 57.589844 34 C 57.265625 33.863281 56.5625 33.199219 56.574219 32.21875 "/>
<path style=" stroke:none;fill-rule:nonzero;fill:rgb(12.548828%,11.759949%,12.548828%);fill-opacity:1;" d="M 57.296875 36.089844 C 57.296875 36.089844 57.722656 33.542969 58.808594 34.871094 C 59.894531 36.195312 60.417969 35.679688 60.730469 36.601562 C 61.042969 37.523438 60.316406 38.492188 59.21875 38.085938 C 58.117188 37.675781 57.296875 36.089844 57.296875 36.089844 "/>
<path style=" stroke:none;fill-rule:nonzero;fill:rgb(12.548828%,11.759949%,12.548828%);fill-opacity:1;" d="M 58.109375 38.265625 C 58.109375 38.265625 60.308594 38.953125 60.683594 39.875 C 61.058594 40.796875 60.40625 41.046875 59.894531 40.515625 C 59.382812 39.984375 58.410156 40.035156 58.410156 40.035156 L 58.109375 38.265625 "/>
<path style=" stroke:none;fill-rule:nonzero;fill:rgb(12.548828%,11.759949%,12.548828%);fill-opacity:1;" d="M 60.78125 42.296875 C 60.78125 42.296875 61.195312 40.40625 62.28125 41.664062 C 62.28125 41.664062 62.316406 43.695312 61.855469 44.34375 C 61.855469 44.34375 60.816406 44.261719 60.78125 42.296875 "/>
<path style=" stroke:none;fill-rule:nonzero;fill:rgb(12.548828%,11.759949%,12.548828%);fill-opacity:1;" d="M 58.808594 43.710938 C 58.808594 43.710938 60.367188 43.667969 60.609375 45.113281 C 60.847656 46.554688 59.949219 45.757812 59.949219 45.757812 L 58.855469 45.152344 L 58.808594 43.710938 "/>
<path style=" stroke:none;fill-rule:nonzero;fill:rgb(12.548828%,11.759949%,12.548828%);fill-opacity:1;" d="M 60.75 48.582031 C 60.75 48.582031 59.636719 49.289062 60.335938 50.277344 L 60.75 48.582031 "/>
<path style=" stroke:none;fill-rule:nonzero;fill:rgb(12.548828%,11.759949%,12.548828%);fill-opacity:1;" d="M 58.636719 51.171875 C 58.636719 51.171875 59.460938 52.425781 59.058594 53.46875 C 58.652344 54.511719 57.945312 53.976562 57.945312 53.976562 L 58.636719 51.171875 "/>
<path style=" stroke:none;fill-rule:nonzero;fill:rgb(12.548828%,11.759949%,12.548828%);fill-opacity:1;" d="M 57.027344 59.007812 C 57.027344 59.007812 58.375 60.007812 56.589844 62.273438 L 57.027344 59.007812 "/>
<path style=" stroke:none;fill-rule:nonzero;fill:rgb(12.548828%,11.759949%,12.548828%);fill-opacity:1;" d="M 56.960938 67.976562 C 56.960938 67.976562 54.160156 68.457031 56.472656 70.390625 L 56.960938 67.976562 "/>
<path style=" stroke:none;fill-rule:nonzero;fill:rgb(12.548828%,11.759949%,12.548828%);fill-opacity:1;" d="M 53.957031 73.5625 C 53.957031 73.5625 54.507812 71.476562 55.664062 72.277344 C 55.664062 72.277344 55.878906 75.292969 55.242188 74.5625 C 54.601562 73.832031 54.246094 73.785156 54.246094 73.785156 "/>
<path style=" stroke:none;fill-rule:nonzero;fill:rgb(12.548828%,11.759949%,12.548828%);fill-opacity:1;" d="M 53.933594 75.136719 C 53.933594 75.136719 53.214844 75.320312 53.335938 76.171875 C 53.453125 77.027344 53.308594 78.003906 53.640625 77.488281 C 53.972656 76.96875 55.234375 75.023438 53.933594 75.136719 "/>
<path style=" stroke:none;fill-rule:nonzero;fill:rgb(12.548828%,11.759949%,12.548828%);fill-opacity:1;" d="M 54.738281 77.898438 C 54.738281 77.898438 52.828125 79.765625 53.925781 80.242188 C 53.925781 80.242188 54.734375 78.222656 54.738281 77.898438 "/>
<path style=" stroke:none;fill-rule:nonzero;fill:rgb(12.548828%,11.759949%,12.548828%);fill-opacity:1;" d="M 51.449219 80.730469 C 51.449219 80.730469 50.40625 80.84375 51.109375 81.640625 C 51.8125 82.4375 52.203125 82.507812 52.414062 81.269531 C 52.628906 80.027344 51.449219 80.730469 51.449219 80.730469 "/>
<path style=" stroke:none;fill-rule:nonzero;fill:rgb(12.548828%,11.759949%,12.548828%);fill-opacity:1;" d="M 49.589844 83.453125 C 49.589844 83.453125 50.5625 83.796875 50.484375 84.582031 C 50.40625 85.363281 49.867188 86.863281 49.160156 86.328125 C 48.453125 85.792969 48.46875 84.8125 49.589844 83.453125 "/>
<path style=" stroke:none;fill-rule:nonzero;fill:rgb(12.548828%,11.759949%,12.548828%);fill-opacity:1;" d="M 44.628906 89.664062 C 44.628906 89.664062 44.613281 90.90625 46.183594 89.882812 C 47.757812 88.859375 46.589844 88.777344 46.589844 88.777344 C 46.589844 88.777344 45.019531 89.800781 44.628906 89.664062 "/>
<path style=" stroke:none;fill-rule:nonzero;fill:rgb(12.548828%,11.759949%,12.548828%);fill-opacity:1;" d="M 39.621094 85.855469 C 39.621094 85.855469 41.625 86.28125 41.542969 87.585938 C 41.457031 88.894531 41.441406 90.203125 42.144531 90.738281 C 42.144531 90.738281 39.125 88.535156 39.621094 85.855469 "/>
<path style=" stroke:none;fill-rule:nonzero;fill:rgb(12.548828%,11.759949%,12.548828%);fill-opacity:1;" d="M 37.972656 78.632812 C 37.972656 78.632812 37.1875 78.882812 37.167969 80.320312 C 37.144531 81.761719 37.664062 81.964844 37.996094 81.316406 C 38.332031 80.664062 39.003906 78.976562 37.972656 78.632812 "/>
<path style=" stroke:none;fill-rule:nonzero;fill:rgb(12.548828%,11.759949%,12.548828%);fill-opacity:1;" d="M 39.359375 72.550781 C 39.359375 72.550781 38.714844 72.226562 38.25 72.875 L 38.214844 75.359375 C 38.214844 75.359375 38.679688 74.582031 39.457031 74.660156 L 39.359375 72.550781 "/>
<path style=" stroke:none;fill-rule:nonzero;fill:rgb(12.548828%,11.759949%,12.548828%);fill-opacity:1;" d="M 37.074219 73.382812 C 37.074219 73.382812 38.097656 74.507812 36.710938 76.058594 C 36.710938 76.058594 36.863281 74.492188 37.074219 73.382812 "/>
<path style=" stroke:none;fill-rule:nonzero;fill:rgb(12.548828%,11.759949%,12.548828%);fill-opacity:1;" d="M 39.070312 65.675781 C 39.070312 65.675781 39.929688 64.519531 40.5 65.445312 C 40.5 65.445312 39.96875 66.484375 39.832031 66.875 C 39.832031 66.875 38.929688 66.46875 38.597656 66.789062 L 39.070312 65.675781 "/>
<path style=" stroke:none;fill-rule:nonzero;fill:rgb(75.289917%,84.309387%,93.728638%);fill-opacity:1;" d="M 48.03125 61.433594 L 43.929688 75.3125 C 43.929688 75.3125 45.328125 77.234375 48.191406 76.949219 L 52.292969 62.933594 C 52.292969 62.933594 50.886719 61.34375 48.03125 61.433594 "/>
<path style=" stroke:none;fill-rule:nonzero;fill:rgb(49.798584%,32.159424%,19.60907%);fill-opacity:1;" d="M 33.914062 36.761719 C 33.914062 36.761719 28.191406 23.914062 17.085938 33.960938 C 17.085938 33.960938 13.6875 44.808594 15.226562 50.132812 C 16.769531 55.457031 20.960938 75.257812 21.007812 78.59375 C 21.054688 81.933594 30.664062 96.019531 33.398438 85.0625 C 36.132812 74.105469 31.089844 64.636719 31.132812 64.117188 C 31.171875 63.59375 26.253906 52.164062 33.050781 43.621094 C 33.050781 43.621094 36.167969 38.957031 33.914062 36.761719 "/>
<path style=" stroke:none;fill-rule:nonzero;fill:rgb(72.938538%,57.649231%,41.569519%);fill-opacity:1;" d="M 31.972656 43.667969 C 31.972656 43.667969 33.492188 39.605469 32.777344 36.207031 C 32.777344 36.207031 34.542969 39.324219 33.402344 42.5 C 33.402344 42.5 32.839844 43.957031 31.972656 43.667969 "/>
<path style=" stroke:none;fill-rule:nonzero;fill:rgb(75.689697%,61.569214%,46.269226%);fill-opacity:1;" d="M 32.832031 81.570312 C 32.832031 81.570312 29.351562 84.953125 23.398438 82.460938 L 24.535156 85.066406 C 24.535156 85.066406 28.605469 86.988281 32.269531 84.226562 L 32.832031 81.570312 "/>
<path style=" stroke:none;fill-rule:nonzero;fill:rgb(75.689697%,61.569214%,46.269226%);fill-opacity:1;" d="M 15.722656 49.058594 C 15.722656 49.058594 18.011719 55.28125 18.285156 56.167969 C 18.558594 57.054688 20.4375 65.234375 20.484375 68.769531 C 20.527344 72.304688 21.492188 77.914062 21.492188 77.914062 C 21.492188 77.914062 20.179688 76.523438 19.558594 73.269531 C 19.558594 73.269531 19.710938 69.640625 19.109375 64.917969 C 18.511719 60.195312 17.335938 55.957031 15.855469 52.890625 L 15.722656 49.058594 "/>
<path style=" stroke:none;fill-rule:nonzero;fill:rgb(72.938538%,57.649231%,41.569519%);fill-opacity:1;" d="M 16.226562 53.683594 C 16.226562 53.683594 19.296875 58.734375 19.75 66.796875 C 19.75 66.796875 20.425781 72.695312 19.085938 72.972656 C 19.085938 72.972656 16.195312 62.128906 16.226562 53.683594 "/>
<path style=" stroke:none;fill-rule:nonzero;fill:rgb(72.938538%,57.649231%,41.569519%);fill-opacity:1;" d="M 31.429688 63.269531 C 31.429688 63.269531 35.257812 64.40625 33.929688 72.570312 C 33.929688 72.570312 31.402344 65.167969 31.429688 63.269531 "/>
<path style=" stroke:none;fill-rule:nonzero;fill:rgb(72.938538%,57.649231%,41.569519%);fill-opacity:1;" d="M 32.269531 84.226562 C 32.269531 84.226562 26.78125 85.785156 24.191406 84.765625 C 24.191406 84.765625 25.957031 89.832031 29.140625 89.355469 C 32.328125 88.878906 32.269531 84.226562 32.269531 84.226562 "/>
<g clip-path="url(#clip3)" clip-rule="nonzero">
<path style=" stroke:none;fill-rule:nonzero;fill:rgb(86.268616%,69.018555%,48.629761%);fill-opacity:1;" d="M 32.144531 44.691406 C 32.144531 44.691406 36.441406 42.199219 32.34375 35.589844 C 28.246094 28.984375 20.210938 30.960938 17.738281 34.851562 C 15.265625 38.742188 15.488281 49.613281 15.976562 51.191406 C 16.460938 52.769531 17.691406 64.175781 17.671875 65.488281 C 17.652344 66.796875 20.195312 75.605469 22.664062 80.355469 C 25.136719 85.105469 26.09375 89.308594 29.140625 89.355469 C 32.191406 89.398438 35.535156 69.289062 33.300781 65.71875 C 31.066406 62.152344 31.171875 63.59375 31.171875 63.59375 L 31.066406 62.152344 C 31.066406 62.152344 33.09375 62.441406 34.445312 65.605469 C 35.796875 68.769531 36.578125 76.242188 36.566406 77.15625 C 36.550781 78.074219 36.335938 84.09375 33.371094 87.0625 C 33.371094 87.0625 31.914062 91.097656 29.246094 90.796875 C 26.582031 90.496094 23.675781 89.535156 20.355469 81.890625 C 17.035156 74.25 16.550781 64.03125 16.109375 59.3125 C 15.671875 54.589844 12.402344 43.546875 12.414062 42.628906 C 12.425781 41.710938 10.945312 38.941406 13.699219 32.828125 C 16.457031 26.71875 20.425781 16.167969 23.21875 16.472656 C 26.007812 16.777344 42.183594 40.582031 32.1875 46.195312 L 32.144531 44.691406 "/>
</g>
<path style=" stroke:none;fill-rule:nonzero;fill:rgb(12.548828%,11.759949%,12.548828%);fill-opacity:1;" d="M 26.113281 31.375 C 26.113281 31.375 26.632812 30.664062 27.015625 30.34375 C 27.402344 30.019531 27.4375 27.796875 25.710938 28.554688 C 23.980469 29.316406 24.550781 29.585938 22.960938 29.628906 C 21.371094 29.671875 22.496094 31.0625 23.253906 31.398438 C 23.253906 31.398438 25.039062 30.902344 26.113281 31.375 "/>
<path style=" stroke:none;fill-rule:nonzero;fill:rgb(75.689697%,61.569214%,46.269226%);fill-opacity:1;" d="M 32.1875 46.195312 C 32.1875 46.195312 27.980469 51.371094 31.066406 62.152344 C 34.148438 72.933594 33.964844 72.472656 33.964844 72.472656 L 33.726562 75.546875 C 33.726562 75.546875 32.578125 71.601562 31.78125 69.558594 C 30.988281 67.519531 27.511719 57.382812 28.472656 52.683594 C 29.429688 47.984375 31.84375 43.570312 32.164062 43.445312 C 32.484375 43.316406 34.105469 42.222656 32.855469 36.441406 C 32.855469 36.441406 36.226562 39.507812 32.78125 44.628906 L 32.1875 46.195312 "/>
<path style=" stroke:none;fill-rule:nonzero;fill:rgb(12.548828%,11.759949%,12.548828%);fill-opacity:1;" d="M 32.695312 33.238281 C 32.695312 33.238281 34.398438 34.117188 34.324219 34.96875 C 34.246094 35.816406 33.679688 35.285156 33.300781 35.082031 C 32.925781 34.878906 31.78125 34.667969 31.796875 33.882812 C 31.808594 33.097656 32.695312 33.238281 32.695312 33.238281 "/>
<path style=" stroke:none;fill-rule:nonzero;fill:rgb(12.548828%,11.759949%,12.548828%);fill-opacity:1;" d="M 31.8125 32.769531 C 31.8125 32.769531 31.59375 30.214844 29.167969 31.226562 C 29.167969 31.226562 27.566406 31.855469 30.535156 33.207031 C 30.535156 33.207031 31.738281 33.554688 31.8125 32.769531 "/>
<path style=" stroke:none;fill-rule:nonzero;fill:rgb(12.548828%,11.759949%,12.548828%);fill-opacity:1;" d="M 31.296875 28.835938 C 31.296875 28.835938 32.933594 29.90625 32.605469 30.621094 C 32.277344 31.335938 31.769531 31.328125 31.265625 31.058594 C 30.761719 30.789062 31.335938 30.46875 31.023438 30.269531 C 30.707031 30.070312 30.351562 28.359375 31.296875 28.835938 "/>
<path style=" stroke:none;fill-rule:nonzero;fill:rgb(12.548828%,11.759949%,12.548828%);fill-opacity:1;" d="M 29.339844 23.566406 C 29.339844 23.566406 28.394531 23.226562 28.824219 24.082031 C 29.257812 24.941406 29.515625 24.617188 29.503906 25.335938 C 29.496094 26.054688 30.550781 27.839844 31.386719 27.195312 C 31.386719 27.195312 30.089844 24.558594 29.339844 23.566406 "/>
<g clip-path="url(#clip4)" clip-rule="nonzero">
<path style=" stroke:none;fill-rule:nonzero;fill:rgb(12.548828%,11.759949%,12.548828%);fill-opacity:1;" d="M 26.039062 18.933594 C 26.039062 18.933594 23.523438 17.195312 22.820312 17.445312 C 22.117188 17.695312 20.695312 19.640625 19.933594 19.5625 C 19.933594 19.5625 21.824219 16.195312 23.21875 16.472656 C 24.613281 16.753906 26.039062 18.933594 26.039062 18.933594 "/>
</g>
<path style=" stroke:none;fill-rule:nonzero;fill:rgb(12.548828%,11.759949%,12.548828%);fill-opacity:1;" d="M 23.167969 19.742188 C 23.167969 19.742188 27.644531 22.363281 25.222656 22.652344 C 22.804688 22.945312 19.726562 20.671875 20.496094 19.898438 C 21.273438 19.125 23.167969 19.742188 23.167969 19.742188 "/>
<path style=" stroke:none;fill-rule:nonzero;fill:rgb(12.548828%,11.759949%,12.548828%);fill-opacity:1;" d="M 26.4375 26.46875 C 26.4375 26.46875 25.371094 25.730469 25.3125 25.339844 C 25.253906 24.945312 24.253906 23.816406 23.351562 24.785156 C 22.445312 25.753906 21.996094 26.207031 24.070312 27.546875 C 26.152344 28.886719 28.90625 27.355469 26.4375 26.46875 "/>
<path style=" stroke:none;fill-rule:nonzero;fill:rgb(12.548828%,11.759949%,12.548828%);fill-opacity:1;" d="M 21.90625 23.453125 C 21.90625 23.453125 23.488281 24 22.332031 24.964844 C 21.171875 25.929688 19.28125 25.050781 20.121094 24.015625 C 20.960938 22.984375 21.90625 23.453125 21.90625 23.453125 "/>
<path style=" stroke:none;fill-rule:nonzero;fill:rgb(12.548828%,11.759949%,12.548828%);fill-opacity:1;" d="M 17.050781 25.414062 C 17.050781 25.414062 16.511719 27.632812 15.871094 27.949219 C 15.871094 27.949219 16.402344 26.1875 17.050781 25.414062 "/>
<path style=" stroke:none;fill-rule:nonzero;fill:rgb(12.548828%,11.759949%,12.548828%);fill-opacity:1;" d="M 18.902344 24.71875 C 18.902344 24.71875 20.304688 24.609375 19.644531 26.039062 C 18.992188 27.46875 17.210938 27.574219 17.15625 26.984375 C 17.097656 26.394531 18.328125 24.839844 18.902344 24.71875 "/>
<path style=" stroke:none;fill-rule:nonzero;fill:rgb(12.548828%,11.759949%,12.548828%);fill-opacity:1;" d="M 20.136719 27.226562 C 20.136719 27.226562 21.019531 27.695312 21.070312 28.679688 C 21.117188 29.660156 21.101562 30.90625 18.691406 30.410156 C 18.691406 30.410156 17.746094 29.808594 18.71875 28.710938 C 18.71875 28.710938 17.535156 26.925781 20.136719 27.226562 "/>
<path style=" stroke:none;fill-rule:nonzero;fill:rgb(12.548828%,11.759949%,12.548828%);fill-opacity:1;" d="M 18.292969 31.648438 C 18.292969 31.648438 18.378906 30.078125 16.785156 30.515625 C 15.191406 30.949219 15.625 31.609375 16.128906 31.878906 C 16.632812 32.148438 16.929688 33.527344 17.25 33.402344 C 17.570312 33.277344 18.277344 32.632812 18.292969 31.648438 "/>
<path style=" stroke:none;fill-rule:nonzero;fill:rgb(12.548828%,11.759949%,12.548828%);fill-opacity:1;" d="M 17.476562 35.5 C 17.476562 35.5 17.128906 32.941406 16.03125 34.234375 C 14.933594 35.527344 14.433594 34.996094 14.101562 35.90625 C 13.769531 36.820312 14.453125 37.8125 15.539062 37.433594 C 16.625 37.058594 17.476562 35.5 17.476562 35.5 "/>
<path style=" stroke:none;fill-rule:nonzero;fill:rgb(12.548828%,11.759949%,12.548828%);fill-opacity:1;" d="M 16.617188 37.648438 C 16.617188 37.648438 14.449219 38.269531 14.054688 39.179688 C 13.660156 40.089844 14.289062 40.363281 14.804688 39.847656 C 15.320312 39.332031 16.273438 39.410156 16.273438 39.410156 L 16.617188 37.648438 "/>
<path style=" stroke:none;fill-rule:nonzero;fill:rgb(12.548828%,11.759949%,12.548828%);fill-opacity:1;" d="M 13.890625 41.601562 C 13.890625 41.601562 13.535156 39.695312 12.4375 40.925781 C 12.4375 40.925781 12.347656 42.953125 12.78125 43.613281 C 12.78125 43.613281 13.800781 43.5625 13.890625 41.601562 "/>
<path style=" stroke:none;fill-rule:nonzero;fill:rgb(12.548828%,11.759949%,12.548828%);fill-opacity:1;" d="M 15.777344 43.074219 C 15.777344 43.074219 14.253906 42.984375 13.976562 44.417969 C 13.703125 45.855469 14.601562 45.082031 14.601562 45.082031 L 15.691406 44.511719 L 15.777344 43.074219 "/>
<path style=" stroke:none;fill-rule:nonzero;fill:rgb(12.548828%,11.759949%,12.548828%);fill-opacity:1;" d="M 13.734375 47.886719 C 13.734375 47.886719 14.804688 48.621094 14.09375 49.59375 L 13.734375 47.886719 "/>
<path style=" stroke:none;fill-rule:nonzero;fill:rgb(12.548828%,11.759949%,12.548828%);fill-opacity:1;" d="M 15.730469 50.535156 C 15.730469 50.535156 14.886719 51.765625 15.25 52.820312 C 15.617188 53.871094 16.324219 53.359375 16.324219 53.359375 L 15.730469 50.535156 "/>
<path style=" stroke:none;fill-rule:nonzero;fill:rgb(12.548828%,11.759949%,12.548828%);fill-opacity:1;" d="M 17.078125 58.414062 C 17.078125 58.414062 15.726562 59.375 17.410156 61.691406 L 17.078125 58.414062 "/>
<path style=" stroke:none;fill-rule:nonzero;fill:rgb(12.548828%,11.759949%,12.548828%);fill-opacity:1;" d="M 16.882812 67.382812 C 16.882812 67.382812 19.605469 67.945312 17.292969 69.808594 L 16.882812 67.382812 "/>
<path style=" stroke:none;fill-rule:nonzero;fill:rgb(12.548828%,11.759949%,12.548828%);fill-opacity:1;" d="M 19.660156 73.054688 C 19.660156 73.054688 19.183594 70.953125 18.027344 71.71875 C 18.027344 71.71875 17.726562 74.726562 18.375 74.015625 C 19.019531 73.304688 19.367188 73.269531 19.367188 73.269531 "/>
<path style=" stroke:none;fill-rule:nonzero;fill:rgb(12.548828%,11.759949%,12.548828%);fill-opacity:1;" d="M 19.636719 74.625 C 19.636719 74.625 20.332031 74.832031 20.191406 75.679688 C 20.050781 76.53125 20.167969 77.515625 19.855469 76.984375 C 19.546875 76.457031 18.367188 74.476562 19.636719 74.625 "/>
<path style=" stroke:none;fill-rule:nonzero;fill:rgb(12.548828%,11.759949%,12.548828%);fill-opacity:1;" d="M 18.769531 77.363281 C 18.769531 77.363281 20.585938 79.289062 19.496094 79.730469 C 19.496094 79.730469 18.765625 77.691406 18.769531 77.363281 "/>
<path style=" stroke:none;fill-rule:nonzero;fill:rgb(12.548828%,11.759949%,12.548828%);fill-opacity:1;" d="M 21.902344 80.292969 C 21.902344 80.292969 22.917969 80.4375 22.207031 81.210938 C 21.5 81.988281 21.117188 82.046875 20.941406 80.800781 C 20.773438 79.554688 21.902344 80.292969 21.902344 80.292969 "/>
<path style=" stroke:none;fill-rule:nonzero;fill:rgb(12.548828%,11.759949%,12.548828%);fill-opacity:1;" d="M 23.640625 83.066406 C 23.640625 83.066406 22.683594 83.382812 22.738281 84.167969 C 22.789062 84.953125 23.273438 86.46875 23.980469 85.953125 C 24.6875 85.441406 24.703125 84.460938 23.640625 83.066406 "/>
<path style=" stroke:none;fill-rule:nonzero;fill:rgb(12.548828%,11.759949%,12.548828%);fill-opacity:1;" d="M 28.316406 89.421875 C 28.316406 89.421875 28.296875 90.664062 26.789062 89.597656 C 25.277344 88.527344 26.421875 88.476562 26.421875 88.476562 C 26.421875 88.476562 27.933594 89.546875 28.316406 89.421875 "/>
<path style=" stroke:none;fill-rule:nonzero;fill:rgb(12.548828%,11.759949%,12.548828%);fill-opacity:1;" d="M 33.324219 85.761719 C 33.324219 85.761719 31.351562 86.125 31.394531 87.4375 C 31.441406 88.746094 31.421875 90.054688 30.714844 90.570312 C 30.714844 90.570312 33.730469 88.453125 33.324219 85.761719 "/>
<path style=" stroke:none;fill-rule:nonzero;fill:rgb(12.548828%,11.759949%,12.548828%);fill-opacity:1;" d="M 35.144531 78.589844 C 35.144531 78.589844 35.902344 78.863281 35.882812 80.304688 C 35.863281 81.742188 35.351562 81.929688 35.042969 81.273438 C 34.734375 80.613281 34.125 78.902344 35.144531 78.589844 "/>
<path style=" stroke:none;fill-rule:nonzero;fill:rgb(12.548828%,11.759949%,12.548828%);fill-opacity:1;" d="M 33.964844 72.472656 C 33.964844 72.472656 34.601562 72.167969 35.039062 72.828125 L 35.003906 75.3125 C 35.003906 75.3125 34.570312 74.523438 33.808594 74.578125 L 33.964844 72.472656 "/>
<path style=" stroke:none;fill-rule:nonzero;fill:rgb(12.548828%,11.759949%,12.548828%);fill-opacity:1;" d="M 36.175781 73.367188 C 36.175781 73.367188 35.140625 74.464844 36.453125 76.054688 C 36.453125 76.054688 36.347656 74.484375 36.175781 73.367188 "/>
<path style=" stroke:none;fill-rule:nonzero;fill:rgb(12.548828%,11.759949%,12.548828%);fill-opacity:1;" d="M 34.445312 65.605469 C 34.445312 65.605469 33.636719 64.425781 33.050781 65.335938 C 33.050781 65.335938 33.542969 66.386719 33.667969 66.78125 C 33.667969 66.78125 34.5625 66.402344 34.875 66.734375 L 34.445312 65.605469 "/>
<path style=" stroke:none;fill-rule:nonzero;fill:rgb(75.289917%,84.309387%,93.728638%);fill-opacity:1;" d="M 25.808594 61.101562 L 29.414062 75.097656 C 29.414062 75.097656 27.988281 76.976562 25.199219 76.605469 L 21.59375 62.480469 C 21.59375 62.480469 23.011719 60.929688 25.808594 61.101562 "/>
</g>
</svg>
