<?xml version="1.0" encoding="UTF-8"?>
<svg xmlns="http://www.w3.org/2000/svg" xmlns:xlink="http://www.w3.org/1999/xlink" width="75pt" height="112.499997pt" viewBox="0 0 75 112.499997" version="1.2">
<defs>
<clipPath id="clip1">
  <path d="M 2.621094 55.808594 L 65.09375 55.808594 L 65.09375 112.003906 L 2.621094 112.003906 Z M 2.621094 55.808594 "/>
</clipPath>
<clipPath id="clip2">
  <path d="M 19 20 L 67.359375 20 L 67.359375 66 L 19 66 Z M 19 20 "/>
</clipPath>
<clipPath id="clip3">
  <path d="M 23 68 L 64 68 L 64 112.003906 L 23 112.003906 Z M 23 68 "/>
</clipPath>
</defs>
<g id="surface1">
<g clip-path="url(#clip1)" clip-rule="nonzero">
<path style=" stroke:none;fill-rule:nonzero;fill:rgb(91.758728%,64.709473%,61.178589%);fill-opacity:1;" d="M 2.238281 112.746094 C 2.238281 112.746094 12.066406 112.746094 14.457031 112.746094 C 18.300781 105.402344 20.066406 95.570312 20.066406 95.570312 C 22.324219 97.894531 26.234375 112.746094 26.234375 112.746094 L 65.050781 112.746094 L 61.875 99.386719 L 60.851562 102.839844 C 60.898438 97.164062 58.703125 87.542969 58.410156 86.953125 C 58.042969 86.21875 57.984375 84.203125 58.53125 82.246094 C 59.082031 80.289062 58.652344 78.457031 57.738281 76.988281 C 56.824219 75.523438 53.769531 74.667969 53.160156 74.363281 C 52.546875 74.054688 50.046875 73.75 49.316406 73.566406 C 48.589844 73.382812 47.175781 69.351562 47.359375 68.371094 C 47.542969 67.394531 48.269531 63.910156 48.269531 63.910156 C 48.269531 63.910156 44.671875 57.003906 43.375 56.289062 C 42.078125 55.578125 36.613281 55.535156 34.660156 59.8125 C 32.707031 64.09375 28.859375 67.820312 26.78125 68.675781 C 24.707031 69.53125 23.300781 68.554688 18.601562 69.351562 C 13.898438 70.144531 12.007812 76.011719 8.527344 87.566406 C 5.046875 99.117188 2.238281 112.746094 2.238281 112.746094 "/>
</g>
<g clip-path="url(#clip2)" clip-rule="nonzero">
<path style=" stroke:none;fill-rule:nonzero;fill:rgb(19.60907%,21.569824%,21.179199%);fill-opacity:1;" d="M 61.839844 60.652344 C 61.839844 60.652344 62.246094 61.148438 63.824219 62.371094 C 63.839844 62.378906 63.855469 62.390625 63.871094 62.402344 C 63.8125 62.511719 63.75 62.617188 63.691406 62.714844 C 62.527344 61.941406 61.839844 60.652344 61.839844 60.652344 Z M 64.386719 61.164062 C 63.222656 59.941406 62.441406 58.167969 62.335938 57.847656 C 62.15625 57.304688 62.335938 56.898438 63.597656 54.683594 C 63.71875 54.476562 63.824219 54.261719 63.921875 54.046875 C 64.984375 57.28125 64.871094 59.585938 64.386719 61.164062 Z M 19.523438 56.351562 C 19.351562 54.777344 20.023438 52.921875 20.023438 52.921875 C 19.167969 57.53125 22.535156 60.425781 22.535156 60.425781 C 22.113281 59.972656 21.648438 58.664062 21.648438 58.664062 C 22.144531 59.566406 23.679688 60.652344 23.679688 60.652344 C 23.050781 59.898438 22.328125 58.03125 22.328125 58.03125 C 22.328125 58.03125 22.734375 59.023438 23.5 59.65625 C 24.269531 60.289062 24.359375 61.78125 24.359375 61.78125 C 24.359375 61.78125 24.828125 60.757812 24.828125 59.472656 C 24.828125 59.472656 25.195312 60.816406 25.046875 61.835938 C 25.851562 61.902344 27.351562 62.03125 29.460938 62.234375 C 32.757812 62.550781 39.621094 63.320312 39.621094 63.320312 C 38.265625 62.144531 37.558594 59.570312 37.558594 59.570312 C 37.996094 60.410156 39.628906 61.246094 39.628906 61.246094 C 39.628906 61.246094 39.628906 61.246094 38.582031 59.625 C 37.539062 58.003906 37.558594 57.21875 37.558594 57.21875 C 38.46875 58.472656 41.039062 60.304688 41.039062 60.304688 C 41.535156 60.195312 42.160156 60.066406 42.664062 60.089844 C 45.722656 60.238281 48.769531 60.671875 51.746094 61.382812 L 52.039062 61.511719 C 54.207031 63.5 62.515625 65.441406 62.515625 65.441406 C 61.476562 64.902344 61.386719 63.953125 61.566406 63.046875 C 61.75 62.144531 61.566406 61.417969 61.566406 61.417969 C 62.125 62.21875 62.941406 62.65625 63.578125 62.886719 C 62.980469 63.769531 62.378906 64.132812 62.378906 64.132812 C 63.160156 63.984375 63.773438 63.613281 64.253906 63.085938 C 64.4375 63.125 64.546875 63.136719 64.546875 63.136719 C 64.460938 63.109375 64.375 63.078125 64.289062 63.039062 C 64.371094 62.949219 64.449219 62.847656 64.523438 62.746094 C 65.914062 63.222656 67.300781 62.234375 67.300781 62.234375 C 66.492188 62.507812 65.734375 62.261719 65.066406 61.769531 C 66.949219 57.3125 64.507812 48.292969 64.464844 48.132812 C 64.402344 47.042969 64.703125 45.386719 64.773438 43.699219 C 64.863281 41.574219 64.097656 39.3125 64.097656 39.3125 C 65.226562 40.671875 65.269531 44.195312 65.269531 44.195312 C 65.496094 42.253906 64.863281 39.042969 63.871094 36.78125 C 62.878906 34.523438 59.445312 26.476562 53.9375 23.402344 C 48.425781 20.328125 45.3125 22.859375 45.3125 22.859375 C 40.570312 18.292969 37.003906 21.953125 34.246094 22.859375 C 31.492188 23.761719 28.195312 30.632812 25.714844 33.707031 C 23.230469 36.78125 22.550781 42.929688 22.867188 44.378906 C 23.183594 45.824219 22.535156 47.675781 22.535156 47.675781 C 23.707031 46.5625 23.273438 45.191406 23.457031 43.382812 C 23.636719 41.574219 24.402344 39.855469 24.402344 39.855469 C 24.585938 41.167969 24.3125 46.953125 21.921875 48.398438 C 19.527344 49.847656 19.449219 52.515625 19.449219 52.515625 C 19.734375 51.339844 21.105469 49.757812 21.105469 49.757812 C 19.199219 52.230469 19.398438 55.355469 19.523438 56.351562 Z M 19.558594 56.585938 C 19.542969 56.507812 19.53125 56.429688 19.523438 56.351562 C 19.535156 56.453125 19.546875 56.53125 19.558594 56.585938 Z M 19.574219 56.671875 C 19.566406 56.644531 19.5625 56.613281 19.558594 56.585938 C 19.566406 56.640625 19.574219 56.671875 19.574219 56.671875 "/>
</g>
<path style=" stroke:none;fill-rule:nonzero;fill:rgb(94.119263%,73.329163%,69.018555%);fill-opacity:1;" d="M 46.375 44.261719 C 46.453125 44.125 46.527344 43.972656 46.597656 43.8125 C 46.5625 43.960938 46.546875 44.113281 46.550781 44.265625 C 46.550781 44.273438 46.550781 44.285156 46.550781 44.292969 C 46.492188 44.28125 46.433594 44.273438 46.375 44.261719 Z M 42.710938 59.519531 C 42.5 57.6875 39.261719 54.132812 39.367188 51.101562 C 39.472656 48.066406 42.394531 45.347656 42.394531 45.347656 C 40.359375 48.136719 40.441406 51.582031 40.558594 52.875 C 40.398438 50.617188 41.652344 48.179688 43.492188 45.609375 C 43.730469 45.28125 43.804688 45.175781 43.996094 44.859375 C 43.996094 44.859375 45.023438 45.066406 44.957031 45.191406 C 44.066406 46.8125 44.027344 51.011719 44.027344 51.011719 C 44.1875 49.125 44.6875 47.222656 45.875 45.113281 L 48.546875 45.515625 C 48.546875 45.515625 48.292969 44.570312 47.84375 44.496094 C 47.746094 44.480469 47.519531 44.445312 47.230469 44.398438 C 47.023438 44.167969 46.824219 43.9375 46.652344 43.679688 C 46.96875 42.90625 47.203125 41.921875 47.378906 40.863281 C 47.664062 40.855469 47.910156 40.832031 48.066406 40.796875 C 48.769531 40.636719 49.316406 39.921875 49.316406 39.921875 L 47.53125 39.832031 C 47.820312 37.574219 47.890625 35.164062 47.9375 33.757812 C 48.015625 31.222656 49.894531 29.425781 49.894531 29.425781 C 49.894531 29.425781 55.4375 30.890625 56.53125 36.433594 C 56.785156 37.714844 57.007812 39 57.21875 40.234375 C 56.324219 40.425781 54.484375 40.867188 54.484375 40.867188 C 54.707031 41.242188 55.582031 41.722656 56.230469 41.597656 C 56.574219 41.53125 57.03125 41.441406 57.410156 41.375 C 57.59375 42.480469 57.769531 43.527344 57.945312 44.464844 C 57.839844 44.480469 57.726562 44.496094 57.605469 44.511719 C 57.683594 44.324219 57.734375 44.117188 57.84375 43.957031 C 57.703125 44.160156 57.554688 44.351562 57.398438 44.542969 C 57.242188 44.5625 57.082031 44.585938 56.925781 44.609375 C 57.070312 44.40625 57.089844 44.15625 57.234375 43.949219 C 57.089844 44.15625 56.9375 44.355469 56.773438 44.550781 C 56.75 44.578125 56.71875 44.609375 56.6875 44.640625 C 56.242188 44.703125 55.84375 44.761719 55.65625 44.796875 C 55.132812 44.898438 54.75 45.527344 54.75 45.699219 C 54.75 45.699219 56.359375 45.554688 57.445312 45.460938 C 57.800781 45.429688 58.128906 45.667969 58.203125 46.015625 C 58.515625 47.4375 58.863281 48.265625 59.269531 48.671875 C 59.269531 48.671875 58.109375 54.894531 57.078125 56.351562 C 56.046875 57.808594 52.761719 62.011719 52.457031 62.617188 C 52.152344 63.226562 50.570312 64.386719 47.285156 63.777344 C 45.980469 63.535156 44.308594 62.734375 42.679688 61.671875 C 42.761719 61.179688 42.816406 60.453125 42.710938 59.519531 Z M 45.386719 44.0625 C 45.703125 42.882812 45.773438 41.507812 45.789062 40.839844 C 45.761719 40.839844 45.738281 40.839844 45.714844 40.835938 C 45.585938 41.417969 45.257812 42.578125 44.511719 43.972656 C 44.550781 43.976562 44.589844 43.984375 44.632812 43.988281 C 44.753906 43.773438 44.875 43.558594 45 43.347656 C 44.9375 43.453125 45.148438 43.757812 45.207031 43.839844 C 45.246094 43.898438 45.324219 43.980469 45.386719 44.0625 "/>
<g clip-path="url(#clip3)" clip-rule="nonzero">
<path style=" stroke:none;fill-rule:nonzero;fill:rgb(65.098572%,54.899597%,71.759033%);fill-opacity:1;" d="M 50.660156 73.8125 C 55.128906 77.996094 56.484375 81.824219 57.507812 83.769531 C 58.535156 85.710938 61.28125 92.5625 62.46875 95.476562 C 63.652344 98.390625 63.761719 99.847656 63.007812 102.546875 C 62.253906 105.242188 60.851562 112.746094 60.851562 112.746094 L 25.601562 112.746094 L 23.339844 104.324219 C 24.738281 104.003906 28.835938 100.226562 30.128906 96.554688 C 31.421875 92.886719 37.242188 86.140625 37.296875 85.171875 C 37.351562 84.199219 32.339844 75.675781 30.5625 72.382812 C 28.78125 69.09375 27.082031 68.542969 27.082031 68.542969 L 27.808594 68.117188 C 31.039062 69.40625 37.40625 82.957031 38.054688 84.339844 C 38.699219 85.71875 40.316406 87.546875 43.710938 89.863281 C 47.105469 92.1875 53.683594 98.714844 53.683594 98.714844 C 53.898438 97.851562 57.886719 90.730469 58.371094 89.488281 C 58.855469 88.246094 57.832031 86.304688 56.054688 82.472656 C 54.277344 78.640625 49.867188 73.679688 49.867188 73.679688 L 50.660156 73.8125 "/>
</g>
<path style=" stroke:none;fill-rule:nonzero;fill:rgb(96.078491%,47.44873%,50.588989%);fill-opacity:1;" d="M 53.285156 56.414062 C 53.285156 56.414062 52.71875 54.746094 52.226562 54.519531 C 51.734375 54.292969 51.394531 54.707031 51.394531 54.707031 C 51.394531 54.707031 50.636719 54.0625 50.144531 54.292969 C 49.652344 54.519531 46.511719 56.144531 46.363281 56.414062 C 46.210938 56.679688 47.195312 58.421875 49.824219 58.457031 C 52.453125 58.496094 52.90625 57.773438 53.285156 56.414062 "/>
</g>
</svg>
