<?xml version="1.0" encoding="UTF-8"?>
<svg xmlns="http://www.w3.org/2000/svg" xmlns:xlink="http://www.w3.org/1999/xlink" width="75pt" height="112.499997pt" viewBox="0 0 75 112.499997" version="1.2">
<defs>
<clipPath id="clip1">
  <path d="M 25 3.789062 L 56 3.789062 L 56 21 L 25 21 Z M 25 3.789062 "/>
</clipPath>
<clipPath id="clip2">
  <path d="M 11 52.621094 L 65.191406 52.621094 L 65.191406 112.003906 L 11 112.003906 Z M 11 52.621094 "/>
</clipPath>
<clipPath id="clip3">
  <path d="M 36.816406 66.136719 L 59.273438 66.136719 L 59.273438 112.003906 L 36.816406 112.003906 Z M 36.816406 66.136719 "/>
</clipPath>
</defs>
<g id="surface1">
<path style=" stroke:none;fill-rule:nonzero;fill:rgb(82.348633%,57.249451%,52.159119%);fill-opacity:1;" d="M 20.097656 79.863281 C 20.097656 79.863281 17.875 73.023438 19.371094 70.597656 C 19.371094 70.597656 21.753906 67.765625 21.632812 61.859375 C 21.632812 61.859375 20.179688 59.269531 19.167969 62.019531 L 19.289062 63.636719 L 17.269531 66.996094 C 17.269531 66.996094 8.699219 69.179688 8.78125 69.464844 C 8.863281 69.746094 11.8125 73.105469 12.175781 73.308594 C 12.539062 73.511719 12.824219 76.382812 13.1875 76.828125 C 13.550781 77.273438 15.207031 92.367188 17.105469 93.335938 L 21.996094 83.625 L 20.097656 79.863281 "/>
<g clip-path="url(#clip1)" clip-rule="nonzero">
<path style=" stroke:none;fill-rule:nonzero;fill:rgb(88.62915%,33.329773%,11.759949%);fill-opacity:1;" d="M 38.726562 3.816406 C 42.175781 3.96875 45.601562 5.484375 48.628906 6.949219 C 51.882812 8.527344 54.195312 10.53125 54.976562 14.113281 C 54.976562 14.113281 56.109375 19.292969 54.976562 20.667969 C 53.847656 22.042969 25.339844 13.554688 25.3125 13.546875 C 24.972656 13.445312 27.226562 9.410156 27.382812 9.191406 C 29.601562 6.128906 33.011719 4.34375 36.734375 3.886719 C 37.398438 3.808594 38.0625 3.785156 38.726562 3.816406 "/>
</g>
<path style=" stroke:none;fill-rule:nonzero;fill:rgb(81.17981%,35.289001%,41.178894%);fill-opacity:1;" d="M 13.832031 12.171875 C 13.832031 12.171875 36.628906 9.824219 59.019531 21.074219 C 59.019531 21.074219 74.78125 28.921875 72.195312 34.265625 C 72.195312 34.265625 73.628906 39.261719 49.753906 40.527344 C 39.933594 41.046875 29.902344 39.082031 20.894531 35.160156 C 15.019531 32.601562 8.65625 29.414062 5.058594 23.859375 C 0.222656 16.394531 7.375 13.011719 13.832031 12.171875 "/>
<path style=" stroke:none;fill-rule:nonzero;fill:rgb(82.348633%,57.249451%,52.159119%);fill-opacity:1;" d="M 52.417969 54.332031 C 52.417969 54.332031 48.375 38.527344 49.9375 35.289062 C 50.660156 33.796875 49.492188 31.582031 48.855469 30.265625 C 47.804688 28.09375 46.503906 26.039062 45.148438 24.046875 C 44.503906 23.097656 43.972656 22.023438 43.160156 21.203125 C 42.390625 20.421875 41.429688 19.855469 40.457031 19.367188 C 36.800781 17.546875 32.738281 16.785156 28.671875 16.992188 C 27.660156 17.046875 26.140625 17.058594 25.6875 18.1875 C 25.152344 19.535156 22.941406 25.738281 24.179688 29.839844 C 24.179688 29.839844 24.613281 30.8125 24.34375 32.96875 C 24.074219 35.125 24.503906 38.847656 26.066406 41.0625 C 26.066406 41.0625 27.46875 44.191406 27.628906 44.460938 C 27.789062 44.730469 28.976562 47.050781 28.921875 47.265625 C 28.867188 47.480469 30.054688 49.746094 35.011719 48.398438 C 35.011719 48.398438 37.007812 53.984375 35.738281 55.640625 C 34.472656 57.300781 27.304688 68.953125 27.304688 68.953125 L 29.945312 70.839844 L 41.800781 65.335938 L 48.539062 61.183594 L 52.417969 54.332031 "/>
<g clip-path="url(#clip2)" clip-rule="nonzero">
<path style=" stroke:none;fill-rule:nonzero;fill:rgb(98.039246%,86.669922%,79.998779%);fill-opacity:1;" d="M 65.164062 112.113281 C 65.164062 112.113281 60.394531 58.78125 52.875 53.523438 C 45.359375 48.261719 28.949219 68.25 28.949219 68.25 C 28.949219 68.25 35.738281 56.464844 35.738281 55.640625 C 35.738281 54.816406 18.683594 73.347656 16.339844 90.34375 L 11.003906 112.113281 L 65.164062 112.113281 "/>
</g>
<path style=" stroke:none;fill-rule:nonzero;fill:rgb(82.348633%,57.249451%,52.159119%);fill-opacity:1;" d="M 18.820312 65.898438 L 16.636719 63.679688 L 13.671875 62.90625 C 13.671875 62.90625 12.339844 63.476562 12.175781 63.597656 C 12.015625 63.71875 10.558594 65.898438 10.558594 65.898438 L 10.558594 67.5625 L 12.175781 68.695312 L 14.480469 68.695312 L 18.480469 67.078125 L 18.820312 65.898438 "/>
<g clip-path="url(#clip3)" clip-rule="nonzero">
<path style=" stroke:none;fill-rule:nonzero;fill:rgb(98.81897%,88.62915%,83.139038%);fill-opacity:1;" d="M 57.160156 71.324219 C 62.554688 77.285156 55.785156 112.113281 55.785156 112.113281 L 36.871094 112.113281 C 36.871094 112.113281 37.839844 110.085938 37.03125 97.300781 C 36.222656 84.515625 38.730469 73.269531 38.730469 73.269531 C 38.730469 73.269531 45.734375 58.703125 57.160156 71.324219 "/>
</g>
<path style=" stroke:none;fill-rule:nonzero;fill:rgb(85.488892%,60.778809%,57.249451%);fill-opacity:1;" d="M 12.214844 61.0625 C 12.214844 61.0625 14.910156 57.472656 16.015625 57.960938 C 16.9375 58.367188 17.789062 59.019531 18.597656 59.609375 C 19.308594 60.125 20.5 60.652344 20.828125 61.53125 C 21.261719 62.683594 19.871094 63.378906 18.953125 62.871094 C 17.496094 62.058594 16.175781 60.953125 16.042969 60.980469 C 15.90625 61.007812 15.828125 61.359375 15.828125 61.359375 C 15.828125 61.359375 15.558594 61.738281 15.367188 61.738281 C 15.179688 61.738281 12.753906 61.765625 12.648438 61.765625 C 12.539062 61.765625 11.675781 61.332031 11.675781 61.332031 L 12.214844 61.0625 "/>
<path style=" stroke:none;fill-rule:nonzero;fill:rgb(85.488892%,60.778809%,57.249451%);fill-opacity:1;" d="M 9.410156 66.570312 C 9.441406 66.617188 9.472656 66.660156 9.496094 66.710938 C 9.664062 67.070312 9.335938 67.261719 9.105469 67.464844 C 8.878906 67.664062 8.734375 67.945312 8.664062 68.234375 C 8.542969 68.714844 8.539062 69.34375 8.945312 69.703125 C 9.445312 70.144531 10.113281 70.355469 10.707031 69.992188 C 10.839844 69.914062 10.964844 69.828125 11.105469 69.773438 C 11.347656 69.675781 11.59375 69.753906 11.84375 69.75 C 12.125 69.742188 12.40625 69.703125 12.691406 69.707031 C 13.351562 69.71875 14.011719 69.730469 14.667969 69.738281 C 15.378906 69.75 16.089844 69.78125 16.800781 69.785156 C 17.203125 69.789062 17.6875 69.914062 17.9375 69.546875 C 18.398438 68.859375 17.496094 68.460938 16.957031 68.304688 C 15.019531 67.738281 14.398438 67.792969 14.398438 67.792969 L 12.808594 67.414062 L 10.921875 67.171875 L 14.019531 67.035156 L 19.328125 69.03125 C 19.328125 69.03125 21.027344 69.652344 21.269531 68.871094 C 21.511719 68.089844 20.785156 67.710938 20.785156 67.710938 C 20.785156 67.710938 16.5 65.230469 16.5 65.230469 C 15.816406 64.890625 15.089844 64.394531 14.355469 64.199219 C 13.882812 64.070312 13.347656 64.152344 12.863281 64.152344 C 12.863281 64.152344 12 64.152344 12 64.152344 C 12.285156 64.152344 12.648438 63.929688 12.929688 63.859375 C 13.238281 63.785156 13.558594 63.75 13.867188 63.820312 C 14.582031 63.984375 15.25 64.300781 15.933594 64.554688 C 16.566406 64.789062 17.203125 65.023438 17.8125 65.3125 C 18.507812 65.640625 19.109375 66.117188 19.765625 66.503906 C 20.097656 66.695312 20.433594 66.878906 20.765625 67.066406 C 20.964844 67.175781 21.652344 67.722656 21.863281 67.683594 C 21.863281 67.683594 23.371094 67.414062 22.210938 65.957031 C 21.40625 64.945312 20.285156 64.265625 19.195312 63.597656 C 18.308594 63.050781 17.449219 62.488281 16.683594 61.773438 C 16.1875 61.308594 15.324219 61.390625 14.667969 61.347656 C 13.765625 61.285156 12.839844 61.238281 11.933594 61.289062 C 11.207031 61.328125 10.789062 61.554688 10.1875 61.984375 C 10.066406 62.070312 9.941406 62.164062 9.875 62.300781 C 9.734375 62.582031 9.761719 62.984375 9.714844 63.292969 C 9.652344 63.714844 9.570312 64.132812 9.4375 64.539062 C 9.34375 64.824219 9.226562 65.105469 9.164062 65.402344 C 9.113281 65.636719 9.09375 65.941406 9.160156 66.175781 C 9.203125 66.328125 9.316406 66.445312 9.410156 66.570312 "/>
<path style=" stroke:none;fill-rule:nonzero;fill:rgb(97.24884%,89.7995%,81.959534%);fill-opacity:1;" d="M 28.019531 17.03125 C 28.019531 17.03125 26.117188 16.964844 25.636719 18.316406 C 25.15625 19.671875 24.886719 20.539062 24.886719 20.539062 C 24.886719 20.539062 27.628906 17.054688 28.019531 17.03125 "/>
<path style=" stroke:none;fill-rule:nonzero;fill:rgb(97.24884%,89.7995%,81.959534%);fill-opacity:1;" d="M 34.300781 17.34375 C 35.339844 18.097656 36.355469 18.894531 37.351562 19.707031 C 38.914062 20.984375 40.566406 22.203125 41.824219 23.808594 C 42.535156 24.722656 43.042969 25.785156 43.363281 26.894531 C 43.617188 27.78125 44.074219 33.953125 45.925781 33.128906 C 47.378906 32.484375 48.855469 30.265625 48.855469 30.265625 C 48.855469 30.265625 44.347656 21.714844 42.402344 20.539062 C 42.402344 20.539062 38.882812 17.984375 34.300781 17.34375 "/>
<path style=" stroke:none;fill-rule:nonzero;fill:rgb(78.42865%,19.219971%,23.919678%);fill-opacity:1;" d="M 30.214844 40.667969 C 30.214844 40.667969 30.867188 39.601562 31.871094 40.113281 C 32.878906 40.625 33.867188 40.886719 34.113281 40.992188 C 34.363281 41.097656 36.316406 40.660156 36.445312 40.480469 C 36.574219 40.300781 34.992188 42.269531 34.894531 42.519531 C 34.796875 42.765625 34.148438 44.414062 32.695312 44.300781 C 31.246094 44.1875 29.261719 45.132812 29.3125 42.960938 C 29.3125 42.960938 27.050781 40.226562 30.214844 40.667969 "/>
<path style=" stroke:none;fill-rule:nonzero;fill:rgb(74.508667%,10.978699%,17.649841%);fill-opacity:1;" d="M 29.3125 42.960938 L 30.230469 42.726562 C 30.378906 42.683594 30.523438 42.632812 30.660156 42.574219 C 30.792969 42.523438 30.921875 42.445312 30.972656 42.378906 L 31.03125 42.300781 L 31.15625 42.3125 C 31.636719 42.347656 32.144531 42.335938 32.621094 42.261719 C 33.105469 42.195312 33.570312 42.039062 33.957031 41.679688 C 33.746094 42.179688 33.21875 42.492188 32.703125 42.636719 C 32.175781 42.785156 31.640625 42.792969 31.101562 42.722656 L 31.285156 42.65625 C 31.113281 42.820312 30.941406 42.875 30.777344 42.925781 C 30.609375 42.964844 30.445312 42.984375 30.28125 43 C 29.957031 43.03125 29.628906 43.011719 29.3125 42.960938 "/>
<path style=" stroke:none;fill-rule:nonzero;fill:rgb(12.939453%,11.369324%,11.369324%);fill-opacity:1;" d="M 33.707031 37.945312 C 33.707031 38.039062 33.628906 38.113281 33.535156 38.113281 C 33.445312 38.113281 33.367188 38.039062 33.367188 37.945312 C 33.367188 37.851562 33.445312 37.777344 33.535156 37.777344 C 33.628906 37.777344 33.707031 37.851562 33.707031 37.945312 "/>
<path style=" stroke:none;fill-rule:nonzero;fill:rgb(12.939453%,11.369324%,11.369324%);fill-opacity:1;" d="M 31.742188 29.320312 C 31.714844 29.292969 31.699219 29.253906 31.683594 29.21875 C 31.371094 28.472656 31.605469 28.292969 32.304688 28.09375 C 33.570312 27.726562 34.832031 27.351562 36.09375 26.984375 C 36.09375 26.984375 38.601562 26.003906 40.785156 28.800781 C 40.355469 28.25 38.96875 27.9375 38.339844 27.820312 C 37.199219 27.605469 36.09375 28.128906 35.050781 28.511719 C 34.042969 28.882812 32.976562 29.132812 31.933594 29.351562 C 31.882812 29.363281 31.828125 29.375 31.78125 29.351562 C 31.765625 29.34375 31.75 29.332031 31.742188 29.320312 "/>
<path style=" stroke:none;fill-rule:nonzero;fill:rgb(12.939453%,11.369324%,11.369324%);fill-opacity:1;" d="M 27.722656 30.019531 C 27.410156 29.097656 27.164062 28.785156 26.15625 28.722656 C 25.851562 28.707031 23.519531 28.601562 23.863281 29.351562 C 23.964844 29.574219 25.570312 29.425781 25.835938 29.445312 C 26.464844 29.492188 27.234375 29.566406 27.722656 30.019531 "/>
<path style=" stroke:none;fill-rule:nonzero;fill:rgb(85.488892%,60.778809%,57.249451%);fill-opacity:1;" d="M 35.011719 48.398438 C 36.609375 47.699219 38.1875 46.96875 39.738281 46.183594 C 41.277344 45.390625 42.808594 44.554688 44.179688 43.519531 C 44.855469 43.003906 45.535156 42.453125 45.980469 41.753906 C 46.441406 41.042969 46.796875 40.238281 47.15625 39.457031 C 47.847656 37.871094 48.40625 36.21875 48.855469 34.535156 C 48.582031 36.257812 48.105469 37.953125 47.46875 39.585938 C 47.148438 40.40625 46.789062 41.203125 46.320312 41.964844 C 45.832031 42.75 45.132812 43.324219 44.441406 43.867188 C 43.011719 44.902344 41.46875 45.75 39.882812 46.484375 C 38.296875 47.214844 36.675781 47.867188 35.011719 48.398438 "/>
<path style=" stroke:none;fill-rule:nonzero;fill:rgb(84.309387%,49.409485%,26.269531%);fill-opacity:1;" d="M 32.472656 33.039062 C 33.191406 35 35.410156 35.988281 37.433594 35.246094 C 39.453125 34.507812 40.511719 32.316406 39.792969 30.355469 C 39.078125 28.390625 36.855469 27.402344 34.835938 28.144531 C 32.8125 28.886719 31.753906 31.074219 32.472656 33.039062 "/>
<path style=" stroke:none;fill-rule:nonzero;fill:rgb(84.309387%,49.409485%,26.269531%);fill-opacity:1;" d="M 39.078125 29.972656 L 47.542969 27.8125 L 48.183594 28.953125 C 48.183594 28.953125 39.257812 30.457031 38.316406 31.171875 C 37.378906 31.882812 39.078125 29.972656 39.078125 29.972656 "/>
<path style=" stroke:none;fill-rule:nonzero;fill:rgb(84.309387%,49.409485%,26.269531%);fill-opacity:1;" d="M 32.835938 31.015625 L 31.070312 30.847656 L 28.804688 31.675781 L 28.9375 32.035156 L 30.820312 31.347656 L 32.359375 31.535156 L 32.835938 31.015625 "/>
<path style=" stroke:none;fill-rule:nonzero;fill:rgb(84.309387%,49.409485%,26.269531%);fill-opacity:1;" d="M 29.214844 31.089844 C 28.839844 30.367188 28.304688 29.683594 27.425781 29.367188 C 26.292969 28.960938 24.785156 28.878906 23.804688 29.941406 C 22.34375 31.527344 22.050781 33.988281 22.824219 35.542969 C 23.304688 36.515625 24.566406 36.71875 25.753906 36.914062 C 26.421875 37.023438 27.214844 37.332031 27.871094 36.789062 C 28.28125 36.445312 28.511719 35.964844 28.671875 35.542969 C 28.8125 35.171875 29.0625 34.953125 29.300781 34.609375 C 29.539062 34.265625 29.84375 33.851562 29.894531 33.480469 C 29.980469 32.84375 29.71875 32.199219 29.480469 31.644531 C 29.398438 31.460938 29.3125 31.273438 29.214844 31.089844 "/>
<path style=" stroke:none;fill-rule:nonzero;fill:rgb(71.369934%,45.098877%,40.388489%);fill-opacity:1;" d="M 30.417969 32.441406 C 29.933594 33.570312 29.371094 34.660156 28.816406 35.75 L 28.820312 35.742188 C 28.628906 36.257812 28.523438 36.882812 28.785156 37.363281 C 28.917969 37.597656 29.152344 37.773438 29.429688 37.851562 C 29.699219 37.945312 29.996094 37.964844 30.289062 37.972656 C 29.996094 38 29.699219 38.019531 29.402344 37.953125 C 29.105469 37.894531 28.820312 37.714844 28.644531 37.453125 C 28.464844 37.183594 28.421875 36.859375 28.4375 36.554688 C 28.453125 36.246094 28.511719 35.953125 28.621094 35.660156 L 28.621094 35.65625 L 28.625 35.652344 C 29.199219 34.570312 29.769531 33.484375 30.417969 32.441406 "/>
<path style=" stroke:none;fill-rule:nonzero;fill:rgb(16.468811%,8.239746%,8.239746%);fill-opacity:1;" d="M 30.289062 37.625 C 30.277344 37.597656 30.308594 37.570312 30.355469 37.53125 C 30.460938 37.433594 30.652344 37.300781 30.792969 37.261719 C 31.121094 37.179688 31.382812 37.410156 31.554688 37.667969 C 31.621094 37.769531 31.425781 37.777344 31.378906 37.753906 C 31.226562 37.6875 31.066406 37.511719 30.894531 37.503906 C 30.707031 37.492188 30.550781 37.777344 30.347656 37.671875 C 30.3125 37.652344 30.296875 37.640625 30.289062 37.625 "/>
<path style=" stroke:none;fill-rule:nonzero;fill:rgb(78.42865%,19.219971%,23.919678%);fill-opacity:1;" d="M 18.820312 62.140625 C 18.820312 62.140625 19.773438 61.007812 19.773438 61.007812 C 20.085938 61.253906 20.398438 61.5 20.710938 61.746094 C 20.960938 61.945312 21.308594 62.148438 21.445312 62.464844 C 21.597656 62.816406 21.339844 63.324219 20.996094 63.46875 C 20.554688 63.652344 20.09375 63.21875 19.800781 62.949219 C 19.707031 62.867188 18.855469 62.097656 18.820312 62.140625 "/>
<path style=" stroke:none;fill-rule:nonzero;fill:rgb(78.42865%,19.219971%,23.919678%);fill-opacity:1;" d="M 20.859375 66.695312 C 20.863281 66.695312 21.652344 65.832031 21.652344 65.832031 C 21.996094 66.136719 22.332031 66.445312 22.683594 66.738281 C 22.945312 66.949219 22.921875 67.371094 22.714844 67.613281 C 22.496094 67.859375 22.210938 67.753906 21.960938 67.609375 C 21.863281 67.554688 20.855469 66.703125 20.859375 66.695312 "/>
<path style=" stroke:none;fill-rule:nonzero;fill:rgb(78.42865%,19.219971%,23.919678%);fill-opacity:1;" d="M 19.695312 68.59375 L 20.15625 67.753906 C 20.183594 67.710938 21.828125 68.550781 21.945312 68.726562 C 22.179688 69.066406 21.949219 69.601562 21.492188 69.464844 C 20.757812 69.246094 19.695312 68.59375 19.695312 68.59375 "/>
<path style=" stroke:none;fill-rule:nonzero;fill:rgb(78.42865%,19.219971%,23.919678%);fill-opacity:1;" d="M 16.742188 69.28125 C 16.742188 69.28125 16.820312 68.644531 16.824219 68.621094 C 16.824219 68.628906 17.769531 68.800781 17.839844 68.8125 C 18.117188 68.867188 18.757812 68.867188 18.734375 69.300781 C 18.730469 69.402344 18.648438 69.492188 18.550781 69.535156 C 18.386719 69.609375 18.15625 69.609375 17.976562 69.605469 C 17.886719 69.605469 16.746094 69.476562 16.742188 69.484375 C 16.742188 69.484375 16.742188 69.28125 16.742188 69.28125 "/>
</g>
</svg>
